<svg width="1864" height="2022" viewBox="0 0 1864 2022" fill="none" xmlns="http://www.w3.org/2000/svg">
<path d="M1258.52 873.188C1258.35 880.663 1257.93 888.306 1257.25 896.625C1255.67 915.892 1252.94 935.451 1250.04 956.159C1248.39 967.997 1246.67 980.24 1245.12 992.86C1244.79 998.208 1244.41 1003.56 1243.98 1008.83C1239.72 1060.84 1230.45 1111.92 1213.93 1174.46C1210.15 1187.46 1205.96 1200.33 1201.35 1213.05C1186.77 1263.37 1172 1300.7 1153.42 1334.1C1133.29 1373.7 1103.23 1403.36 1068.74 1417.63C1062.04 1420.49 1055.15 1422.89 1048.11 1424.81C1010.96 1436.01 971.361 1428.25 933.581 1402.32C885.068 1369.43 846.352 1317.59 822.413 1279.88C780.371 1220.13 769.611 1162.87 760.742 1099.57C756.124 1071.46 753.469 1043.84 750.653 1014.6C749.223 999.727 747.741 984.353 745.955 968.498C742.995 941.493 743.874 924.072 744.804 905.635C745.646 888.989 746.516 871.775 744.741 845.989C742.511 815.759 742.596 784.328 744.989 755.101C750.869 683.294 769.29 636.839 795.526 627.638C824.816 616.619 846.192 617.819 878.548 619.636L883.827 619.932C890.807 619.991 898.082 619.914 906.091 619.696C932.431 618.98 959.958 616.179 995.359 610.615C1038.32 604.579 1073.49 602.775 1105.47 613.595C1139.03 624.855 1170.57 649.675 1199.25 687.356C1243.4 743.802 1264.05 806.344 1258.99 868.234C1258.85 869.889 1258.7 871.541 1258.52 873.188ZM1258.31 897.096C1258.99 888.739 1259.41 881.059 1259.58 873.622C1259.75 872.033 1259.91 870.367 1260.04 868.703C1265.16 806.26 1244.35 743.202 1199.87 686.341C1171.03 648.44 1139.29 623.464 1105.51 612.127C1073.37 601.258 1038.11 603.061 995.036 609.115C959.666 614.673 932.161 617.472 905.856 618.189C897.855 618.406 890.589 618.485 883.633 618.424L878.37 618.127C845.927 616.304 824.492 615.1 795.076 626.17C768.497 635.488 749.855 682.311 743.933 754.63C741.532 783.961 741.446 815.498 743.686 845.835C745.45 871.489 744.584 888.639 743.747 905.223C742.811 923.752 741.928 941.248 744.907 968.427C746.691 984.263 748.17 999.628 749.602 1014.5C752.42 1043.78 755.085 1071.44 759.709 1099.59C768.287 1160.81 779.484 1220.77 821.718 1280.79C845.716 1318.59 884.577 1370.63 933.294 1403.67C971.307 1429.74 1011.15 1437.56 1048.51 1426.29C1055.57 1424.36 1062.49 1421.96 1069.23 1419.1C1103.88 1404.75 1134.1 1374.94 1154.31 1335.16C1172.94 1301.7 1187.74 1264.28 1202.32 1213.91C1206.95 1201.17 1211.15 1188.27 1214.92 1175.25C1231.48 1112.6 1240.77 1061.42 1245.03 1009.3C1245.47 1003.99 1245.85 998.67 1246.18 993.347C1247.72 980.796 1249.43 968.564 1251.08 956.739C1253.98 936.003 1256.72 916.418 1258.31 897.096Z" fill="#A8C4E0" fill-opacity="0.5"/>
<path d="M1549.66 1164.24C1549.54 1166.16 1549.4 1168.07 1549.23 1170.03C1542.9 1247.29 1509.29 1360.47 1459.29 1472.75C1408.43 1587.03 1349.93 1678.18 1302.8 1716.58C1214.93 1836.68 1142.71 1785.95 1033.4 1709.18C986.124 1675.97 932.543 1638.34 867.145 1606.17C819.48 1582.55 776.741 1562.2 739.03 1544.24C556.097 1457.13 472.606 1417.37 387.965 1272.75C366.118 1234.86 356.971 1192.06 360.782 1145.53C363.337 1114.33 371.75 1081.26 385.787 1047.26C401.408 1004.58 421.937 961.85 443.673 916.618C464.097 874.115 485.216 830.159 504.471 781.828C543.777 681.223 556.892 573.061 563.338 500.456L564.261 487.557C565.384 471.899 566.443 457.106 567.643 442.452C572.747 380.119 579.719 330.686 597.156 292.032C643.738 190.102 792.155 163.215 975.258 223.539C1069.01 253.735 1154.7 304.259 1223.06 369.648C1283.65 428.006 1339.93 507.774 1400.19 620.682C1444.32 703.058 1480.12 792.69 1512.87 902.749C1544.36 1009.79 1555.72 1090.19 1549.73 1163.43L1549.66 1164.24ZM1550.3 1170.5C1550.46 1168.53 1550.6 1166.63 1550.72 1164.7L1550.79 1163.91C1556.81 1090.4 1545.42 1009.75 1513.84 902.422C1481.06 792.208 1445.2 702.442 1400.99 619.936C1340.64 506.846 1284.25 426.929 1223.53 368.438C1155.02 302.922 1069.18 252.304 975.283 222.061C791.79 161.603 642.996 188.679 596.215 291.035C578.697 329.884 571.695 379.47 566.576 441.977C565.375 456.641 564.318 471.438 563.194 487.104L562.27 499.984C555.834 572.469 542.741 680.471 503.512 780.891C484.271 829.174 463.163 873.11 442.749 915.6C421 960.858 400.457 1003.61 384.826 1046.33C370.738 1080.45 362.288 1113.67 359.718 1145.06C355.871 1192.02 365.114 1235.27 387.199 1273.56C472.098 1418.63 555.707 1458.45 738.886 1545.68C776.596 1563.64 819.331 1583.99 866.992 1607.6C932.315 1639.73 985.857 1677.34 1033.09 1710.52C1089.52 1750.15 1134.08 1781.45 1176.8 1788.63C1222.98 1796.39 1262.07 1774.56 1303.55 1717.85C1350.7 1679.45 1409.31 1588.16 1460.24 1473.74C1510.29 1361.32 1543.95 1247.95 1550.3 1170.5Z" fill="#A8C4E0" fill-opacity="0.5"/>
<path d="M385.108 1148.9C387.409 1120.79 394.133 1091.13 405.085 1060.75C419.798 1006.89 441.839 952.691 465.174 895.305C479.738 859.488 494.797 822.454 509.037 783.205C543.349 686.078 559.149 587.524 570.081 503.925L570.563 498.962C578.071 421.498 584.558 354.595 608.879 305.244C655.577 208.14 799.25 181.043 974.927 236.205C1068.49 263.328 1150.15 308.733 1217.64 371.163C1276.86 426.106 1334.07 505.595 1392.57 614.16C1438.46 697.967 1476.04 793.121 1507.45 905.068C1536.85 1011.11 1546.19 1093.77 1537.16 1167.72L1537.03 1169.42C1530.98 1243.18 1498.33 1352.07 1449.69 1460.69C1400.13 1571.37 1343.07 1660.04 1297.08 1697.9C1211.5 1814.56 1140.97 1767.01 1034.21 1695.03C989.333 1664.77 938.476 1630.48 876.873 1601.13C831.532 1579.21 790.746 1560.26 754.763 1543.54C577.971 1461.42 497.285 1423.94 414.829 1285.01C390.976 1245.17 380.975 1199.37 385.108 1148.9ZM1539.97 1151.01C1545.68 1081.22 1535.67 1002.98 1508.44 904.776C1476.97 792.657 1439.34 697.347 1393.38 613.399C1334.77 504.651 1277.44 425.012 1218.09 369.936C1150.46 307.374 1068.64 261.883 974.936 234.721C888.282 207.511 808.031 199.653 742.867 211.985C677.69 224.327 631.038 256.219 607.96 304.216C583.525 353.797 577.027 420.835 569.501 498.46L569.023 503.392C558.106 586.871 542.324 685.322 508.062 782.31C493.832 821.519 478.777 858.55 464.215 894.356C440.867 951.782 418.809 1006.03 404.094 1059.91C393.109 1090.37 386.358 1120.16 384.043 1148.42C379.871 1199.37 389.975 1245.6 414.073 1285.85C496.786 1425.2 577.591 1462.74 754.633 1544.98C790.608 1561.69 831.392 1580.64 876.728 1602.57C938.265 1631.89 989.087 1666.15 1033.92 1696.38C1089.03 1733.53 1132.55 1762.88 1174.24 1769.09C1219.31 1775.82 1257.42 1754.25 1297.82 1699.16C1343.84 1661.31 1401 1572.49 1450.63 1461.67C1499.34 1352.91 1532.04 1243.83 1538.09 1169.89L1538.22 1168.23C1538.91 1162.59 1539.5 1156.79 1539.97 1151.01Z" fill="#A8C4E0" fill-opacity="0.5"/>
<path d="M409.568 1150.41C411.577 1125.87 416.711 1100.12 424.826 1073.88C437.701 1006.2 461.449 937.737 486.592 865.246C495.609 839.258 504.931 812.384 514.008 784.809C546.156 683.862 564.085 582.321 577.179 508.181C586.112 436.349 594.539 368.543 620.919 319.627C643.962 274.264 689.254 243.795 751.904 231.497C814.684 219.176 891.778 225.727 974.835 250.446C1066.88 274.051 1146.82 315.69 1212.44 374.208C1271.1 426.445 1327.61 503.202 1385.19 608.862C1433.46 695.099 1471.76 792.993 1502.29 908.151C1525.95 998.566 1534.44 1071.54 1529.01 1137.81C1528.09 1149.16 1526.72 1160.52 1524.95 1171.53C1518.63 1242.08 1486.77 1346.14 1439.71 1449.96C1390.93 1557.59 1337 1640.85 1291.74 1678.38C1208.47 1791.38 1139.6 1747.05 1035.35 1679.94C992.918 1652.63 944.815 1621.66 887.038 1595.13C844.098 1574.91 805.33 1557.39 771.13 1541.94C600.385 1464.8 522.459 1429.6 442.157 1296.5C416.027 1254.55 405.066 1205.39 409.568 1150.41ZM1530.08 1138.28C1535.52 1071.77 1527.01 998.565 1503.29 907.898C1472.71 792.542 1434.33 694.479 1385.98 608.087C1328.29 502.247 1271.67 425.33 1212.87 372.966C1147.1 314.319 1067.01 272.597 974.83 248.956C891.662 224.205 814.447 217.646 751.553 229.991C688.666 242.336 643.182 272.964 620.015 318.568C593.52 367.695 585.074 435.645 576.13 507.584C563.052 581.637 545.129 683.111 513.019 783.956C503.948 811.509 494.626 838.378 485.611 864.367C460.451 936.906 436.685 1005.43 423.808 1073.13C415.681 1099.4 410.524 1125.27 408.505 1149.93C403.963 1205.4 415.034 1255 441.412 1297.36C521.972 1430.87 600.016 1466.14 771.008 1543.39C805.205 1558.83 843.967 1576.35 886.903 1596.55C944.623 1623.08 992.682 1654.01 1035.09 1681.31C1088.89 1715.94 1131.38 1743.29 1172.06 1748.56C1216.04 1754.27 1253.18 1733.01 1292.49 1679.66C1337.77 1642.12 1391.8 1558.73 1440.65 1450.96C1487.76 1347 1519.67 1242.74 1526.01 1172.08C1527.79 1160.87 1529.15 1149.59 1530.08 1138.28Z" fill="#A8C4E0" fill-opacity="0.5"/>
<path d="M432.269 1150.3C433.944 1129.83 437.621 1108.51 443.2 1086.89C453.028 1001.76 478.989 915.263 506.473 823.706C510.206 811.274 513.972 798.733 517.737 786.053C539.897 708.437 556.232 633.891 570.642 568.121C574.976 548.335 579.073 529.648 583.115 511.828C594.521 438.058 605.341 378.099 631.85 333.208C655.018 290.174 699.221 260.938 759.679 248.644C820.286 236.319 894.458 241.589 974.17 263.894C1064.83 284.006 1143.16 321.939 1207.01 376.652C1265.18 426.217 1321.06 500.338 1377.84 603.244C1427.87 690.762 1468.07 794.374 1497.33 911.222C1517.95 994.62 1525.15 1062.7 1520.01 1125.46C1518.61 1142.44 1516.25 1159.29 1512.99 1175.57C1506.01 1243.18 1474.76 1342.32 1429.38 1440.86C1382.18 1543.34 1330.05 1623.06 1286.34 1659.58C1205.22 1769.05 1137.87 1727.9 1035.93 1665.61C995.908 1641.16 950.541 1613.44 896.535 1589.63C856.015 1571.13 819.281 1555.04 786.87 1540.86C621.801 1468.57 546.469 1435.58 468.147 1308.12C439.395 1263.74 427.328 1210.65 432.269 1150.3ZM1521.07 1125.94C1526.23 1062.94 1519.01 994.641 1498.34 911C1469.02 793.943 1428.74 690.132 1378.62 602.458C1321.74 499.363 1265.74 425.086 1207.42 375.39C1143.42 320.56 1064.93 282.541 974.139 262.401C894.331 240.068 820.039 234.79 759.32 247.142C698.636 259.481 654.248 288.866 630.964 332.121C604.347 377.192 593.495 437.291 582.077 511.167C578.045 528.931 573.947 547.62 569.611 567.412C555.207 633.158 538.877 707.678 516.734 785.243C512.97 797.907 509.205 810.451 505.474 822.879C477.969 914.51 451.988 1001.07 442.164 1086.24C436.581 1107.83 432.888 1129.26 431.204 1149.82C426.223 1210.67 438.407 1264.22 467.417 1309C545.988 1436.87 621.437 1469.9 786.754 1542.29C819.163 1556.49 855.899 1572.57 896.409 1591.07C950.368 1614.87 995.696 1642.55 1035.68 1666.99C1088.3 1699.14 1129.86 1724.52 1169.6 1728.84C1212.56 1733.51 1248.8 1712.55 1287.09 1660.86C1330.82 1624.33 1383.05 1544.48 1430.31 1441.85C1475.75 1343.18 1507.05 1243.87 1514.04 1176.17C1517.31 1159.91 1519.68 1142.98 1521.07 1125.94Z" fill="#A8C4E0" fill-opacity="0.5"/>
<path d="M464.773 1074.81C472.213 983.925 495.495 891.201 522.892 788.115C533.646 745.708 543.32 705.236 552.673 666.097C565.779 611.256 578.165 559.456 590.405 515.999C602.845 449.826 615.461 391.494 644.081 347.121C667.339 306.349 710.369 278.268 768.529 265.893C826.845 253.48 897.947 257.391 974.149 277.198C1063.25 293.673 1139.83 327.839 1201.76 378.747C1259.3 425.571 1314.42 497.033 1370.27 597.223C1422.63 687.226 1463.54 793.786 1491.88 913.969C1509.5 989.84 1515.75 1055.09 1510.96 1113.43C1509.13 1135.89 1505.59 1158.11 1500.43 1179.47C1484.95 1310.53 1373.48 1562.78 1280.68 1641.29C1201.79 1747.44 1136.06 1709.56 1036.57 1652.22C999.087 1630.62 956.607 1606.14 906.524 1585.08C868.608 1568.35 834.053 1553.76 803.565 1540.86C644.377 1473.58 571.72 1442.88 495.527 1320.98C463.837 1273.9 450.552 1216.18 456.017 1149.43C457.305 1133.69 459.679 1117.41 463.064 1101.02C463.49 1092.27 464.06 1083.53 464.773 1074.81ZM1512.04 1113.91C1516.83 1055.34 1510.56 989.875 1492.88 913.769C1464.5 793.366 1423.51 686.591 1371.05 596.426C1315.09 496.045 1259.84 424.415 1202.14 377.468C1140.05 326.434 1063.33 292.197 974.102 275.696C897.815 255.863 826.596 251.948 768.166 264.385C709.793 276.809 666.584 305.032 643.212 346.001C614.485 390.541 601.837 449.014 589.382 515.27C577.148 558.688 564.765 610.506 551.651 665.358C542.297 704.497 532.625 744.957 521.877 787.344C494.466 890.504 471.164 983.306 463.712 1074.34C462.998 1083.04 462.433 1091.75 462.016 1100.47C458.63 1116.79 456.25 1133.15 454.956 1148.95C449.45 1216.22 462.855 1274.4 494.809 1321.88C531.715 1380.92 568.856 1420.17 618.988 1453.1C666.966 1484.63 724.221 1508.83 803.463 1542.32C833.947 1555.2 868.502 1569.81 906.419 1586.52C956.447 1607.57 998.898 1632.03 1036.36 1653.62C1087.7 1683.2 1128.26 1706.59 1167 1709.88C1208.9 1713.44 1244.18 1692.68 1281.42 1642.57C1323.52 1606.96 1373.87 1530.53 1419.47 1432.92C1463.16 1339.41 1493.82 1244.91 1501.48 1180.12C1506.62 1158.77 1510.19 1136.46 1512.04 1113.91Z" fill="#A8C4E0" fill-opacity="0.5"/>
<path d="M484.574 1031.02C491.553 945.747 509.826 860.88 526.78 789.113C548.42 692.441 571.623 592 596.463 519.546C612.022 450.656 627.246 400.092 655.117 360.687C702.971 282.024 824.945 255.208 973.447 290.681C1061.15 303.581 1136.08 334.031 1196.2 381.188C1253.21 425.252 1307.68 494.044 1362.72 591.504C1416.74 682.632 1459.61 795.099 1486.68 916.771C1502.01 986.719 1507.27 1047.32 1502.81 1102.02C1500.51 1130.08 1495.74 1156.59 1488.23 1183.1C1479.91 1244.86 1449.93 1334.23 1408 1422.27C1364.06 1514.55 1315.62 1587.29 1275.12 1621.86C1198.33 1724.5 1134.06 1689.89 1036.76 1637.5C1001.82 1618.68 962.216 1597.36 916.027 1578.94C880.754 1564.01 848.413 1550.88 819.878 1539.31C670.796 1478.78 595.968 1448.4 521.693 1332.06C487.057 1282.63 471.933 1217.82 477.925 1144.6C478.782 1134.23 480.017 1123.89 481.627 1113.6C481.258 1087.18 482.246 1059.45 484.574 1031.02ZM1503.86 1102.49C1508.36 1047.58 1503.07 986.776 1487.69 916.603C1460.57 794.697 1417.62 681.994 1363.49 590.695C1308.33 493.044 1253.73 424.077 1196.56 379.891C1136.28 332.617 1061.2 302.092 973.373 289.174C824.58 253.636 702.292 280.596 654.266 359.537C623.278 403.353 608.224 462.214 595.462 518.748C570.62 591.199 547.404 691.682 525.753 788.391C508.789 860.21 490.501 945.148 483.509 1030.54C481.178 1059.03 480.19 1086.83 480.571 1113.16C478.951 1123.43 477.713 1133.76 476.86 1144.12C470.824 1217.86 486.085 1283.17 520.993 1332.98C595.519 1449.71 670.467 1480.14 819.791 1540.75C848.319 1552.33 880.657 1565.46 915.936 1580.4C962.075 1598.79 1001.66 1620.1 1036.57 1638.9C1086.79 1665.95 1126.45 1687.31 1164.29 1689.61C1205.2 1692.09 1239.61 1671.59 1275.86 1623.12C1316.4 1588.56 1364.93 1515.69 1408.93 1423.28C1450.9 1335.12 1480.94 1245.59 1489.26 1183.77C1496.77 1157.29 1501.55 1130.66 1503.86 1102.49Z" fill="#A8C4E0" fill-opacity="0.5"/>
<path d="M501.793 981.761C506.484 924.446 515.995 861.768 530.873 790.155C553.997 671.796 577.508 584.381 602.753 522.9C619.249 461.429 636.37 412.615 666.402 373.918C714.399 300.151 831.881 273.242 973.022 303.666C1059.32 312.937 1132.62 339.676 1190.93 383.147C1247.38 424.432 1301.2 490.599 1355.45 585.409C1426.76 703.616 1463.5 832.274 1481.76 919.397C1495.1 984.025 1499.54 1040.34 1495.35 1091.56C1492.64 1124.59 1486.4 1155.73 1476.28 1186.74C1457.95 1306.56 1354.53 1529.8 1269.78 1602.86C1195.01 1702.18 1132.12 1670.87 1036.92 1623.47C1004.59 1607.37 967.946 1589.13 925.72 1573.34C893.215 1560.2 863.199 1548.57 836.719 1538.31C692.736 1482.53 620.468 1454.54 548.049 1343.59C509.472 1290.7 492.647 1219.37 499.368 1137.26C499.663 1133.66 500.001 1130.06 500.381 1126.46C497.123 1080.45 497.584 1033.18 501.793 981.761ZM1496.4 1092.03C1500.62 1040.61 1496.15 984.096 1482.78 919.255C1464.48 831.956 1427.66 703.04 1356.2 584.594C1301.84 489.576 1247.89 423.244 1191.25 381.832C1132.8 338.247 1059.34 311.433 972.924 302.156C831.519 271.675 713.729 298.722 665.575 372.737C635.452 411.547 618.281 460.494 601.769 522.034C576.519 583.519 552.982 671.026 529.841 789.467C514.951 861.145 505.428 923.894 500.73 981.288C496.512 1032.81 496.053 1080.19 499.318 1126.13C498.931 1129.68 498.593 1133.23 498.303 1136.78C491.54 1219.42 508.504 1291.26 547.364 1344.52C620.028 1455.85 692.421 1483.9 836.639 1539.77C863.121 1550.03 893.132 1561.65 925.645 1574.79C967.836 1590.58 1004.46 1608.81 1036.76 1624.89C1132.31 1672.47 1195.44 1703.9 1270.53 1604.14C1355.37 1531.01 1458.96 1307.38 1477.3 1187.47C1487.43 1156.46 1493.7 1125.2 1496.4 1092.03Z" fill="#A8C4E0" fill-opacity="0.5"/>
<path d="M517.134 932.558C520.81 887.628 526.953 841.605 535.905 791.88C555.118 677.513 580.018 588.281 609.919 526.656C625.256 478.13 644.153 427.74 678.492 387.364C726.575 318.36 839.406 291.215 972.969 316.494C1058.94 322.082 1128.51 344.413 1185.69 384.781C1241.5 423.236 1294.56 486.761 1347.93 578.987C1405.86 673.628 1451.46 795.373 1476.34 921.819C1487.94 981.681 1491.66 1034.1 1487.73 1082.09C1484.64 1119.78 1476.82 1155.21 1463.81 1190.41C1444.05 1304.46 1346.1 1512.75 1264.12 1584.43C1191.4 1680.66 1129.9 1652.74 1036.81 1610.48C1007.23 1597.04 973.719 1581.83 935.61 1568.62C906.061 1557.33 878.55 1547.23 854.276 1538.34C715.407 1487.43 645.705 1461.88 575.185 1356.21C523.452 1288 516.645 1201.17 520.034 1140.32L520.029 1140.13C512.001 1074.74 511.054 1006.84 517.134 932.558ZM1488.78 1082.55C1492.73 1034.39 1488.99 981.775 1477.37 921.707C1452.44 794.996 1406.74 672.989 1348.69 578.155C1295.2 485.711 1241.98 422.019 1185.99 383.443C1128.66 342.973 1058.93 320.571 972.848 314.984C839.04 289.661 725.926 316.928 677.687 386.15C643.257 426.637 624.306 477.16 608.962 525.723C579.041 587.379 554.098 676.74 534.864 791.239C525.903 841.014 519.757 887.085 516.074 932.086C509.985 1006.48 510.93 1074.48 518.965 1139.99C515.563 1201.2 522.453 1288.53 574.516 1357.18C645.28 1463.21 715.105 1488.81 854.214 1539.81C878.484 1548.7 905.997 1558.79 935.553 1570.1C973.638 1583.29 1007.13 1598.49 1036.68 1611.92C1130.12 1654.33 1191.84 1682.35 1264.88 1585.7C1346.93 1513.96 1445.05 1305.3 1464.82 1191.18C1477.83 1155.98 1485.69 1120.41 1488.78 1082.55Z" fill="#A8C4E0" fill-opacity="0.5"/>
<path d="M528.373 886.471C530.885 855.783 534.632 824.159 539.505 792.466C555.51 679.863 581.868 588.983 615.728 529.633C637.691 470.542 659.691 431.879 689.326 400.265C713.078 368.703 751.643 345.457 800.883 333.012C850.429 320.488 909.678 319.191 972.234 329.261C1056.84 331.091 1124.86 349.834 1180.22 386.578C1235.47 422.199 1287.91 483.095 1340.54 572.746C1400.92 669.789 1447.38 794.617 1471.39 924.262C1481.5 979.81 1484.63 1028.64 1480.95 1073.56C1477.52 1115.56 1468 1154.89 1451.84 1193.82C1430.39 1303.09 1337.08 1495.77 1258.68 1565.06C1187.78 1658.11 1127.42 1633.58 1036.07 1596.47C1009.32 1585.6 979.003 1573.28 945.043 1562.53C918.566 1553.06 894.736 1544.87 871.692 1536.96C737.393 1490.82 669.982 1467.67 601.092 1367.18C548.541 1300.7 537.945 1213.83 538.301 1152.66L538.286 1152.46C524.072 1069.27 520.736 979.775 528.373 886.471ZM1482.02 1074.03C1485.7 1028.94 1482.57 979.92 1472.41 924.178C1448.36 794.255 1401.8 669.149 1341.3 571.899C1288.53 482.039 1235.93 420.967 1180.49 385.217C1124.97 348.374 1056.8 329.574 972.077 327.748C909.48 317.668 850.129 318.969 800.495 331.519C751.092 344.002 712.381 367.348 688.546 399.026C658.844 430.705 636.78 469.477 614.801 528.632C580.902 588.035 554.488 679.093 538.455 791.874C533.579 823.595 529.828 855.267 527.313 885.998C519.665 979.436 523.003 1069.08 537.23 1152.43C536.883 1213.95 547.572 1301.29 600.443 1368.16C669.575 1469.01 737.109 1492.21 871.652 1538.43C894.693 1546.34 918.518 1554.53 945.01 1564C978.952 1574.75 1009.25 1587.06 1035.99 1597.93C1127.66 1635.18 1188.23 1659.78 1259.43 1566.33C1295.24 1534.69 1338.29 1472.24 1377.46 1395.06C1414.26 1322.58 1442.44 1247.65 1452.83 1194.62C1469.01 1155.7 1478.56 1116.21 1482.02 1074.03Z" fill="#A8C4E0" fill-opacity="0.5"/>
<path d="M537.956 848.98C539.46 830.661 541.382 812.378 543.721 794.146C557.043 680.641 584.148 590.538 622.106 533.555C644.792 481.469 669.006 444.628 700.669 414.016C749.806 353.763 851.116 327.097 971.711 342.654C1054.86 340.619 1121.25 355.74 1174.72 388.882C1229.35 421.631 1281.1 479.886 1332.94 566.982C1395.7 666.417 1442.95 794.348 1466.03 927.226C1474.86 978.918 1477.48 1024.51 1474.03 1066.64C1470.26 1112.65 1458.96 1155.57 1439.46 1197.86C1416.78 1300.01 1326.32 1480.9 1253 1546.61C1183.84 1636.7 1124.55 1615.69 1034.81 1583.87C1011.08 1575.46 984.183 1565.92 954.563 1557.56C931.394 1549.92 910.29 1543.23 889.886 1536.76C764.091 1496.85 694.795 1474.87 627.493 1379.43C574.216 1314.72 559.833 1227.78 557.146 1166.22C535.44 1065.19 528.991 958.517 537.956 848.98ZM1475.09 1067.11C1478.55 1024.81 1475.94 979.037 1467.07 927.168C1443.94 793.997 1396.57 665.785 1333.68 566.13C1281.71 478.804 1229.78 420.368 1174.96 387.51C1121.34 354.264 1054.79 339.096 971.528 341.138C850.745 325.555 749.182 352.321 699.916 412.744C668.193 443.407 643.91 480.354 621.211 532.487C583.193 589.542 556.016 679.863 542.667 793.593C540.325 811.851 538.399 830.161 536.894 848.507C527.912 958.247 534.375 1065.13 556.102 1166.19C558.784 1227.9 573.259 1315.34 626.86 1380.44C694.41 1476.23 763.83 1498.25 889.865 1538.24C910.267 1544.71 931.367 1551.4 954.559 1559.04C984.162 1567.4 1011.04 1576.93 1034.76 1585.34C1124.81 1617.27 1184.31 1638.36 1253.75 1547.88C1288.48 1516.75 1328.63 1459.29 1366.75 1386.13C1401.78 1318.89 1429.33 1248.83 1440.44 1198.72C1459.96 1156.41 1471.31 1113.32 1475.09 1067.11Z" fill="#A8C4E0" fill-opacity="0.5"/>
<path d="M546.015 818.328C546.654 810.529 547.378 802.738 548.188 794.955C558.949 680.094 586.782 590.822 628.682 536.793C651.763 491.57 678.273 456.764 712.162 427.165C761.443 371.769 858.268 345.005 971.204 355.536C1054.01 349.498 1116.89 360.665 1169.14 390.675C1223.11 420.487 1274.14 476.065 1325.17 560.591C1389.33 660.879 1438.64 795.26 1460.46 929.313C1468.17 977.483 1470.34 1020.12 1467.1 1059.68C1462.97 1110.09 1450.19 1154.93 1426.88 1200.82C1402.85 1296.37 1317.39 1463 1247.2 1526.8C1179.65 1614.09 1121.24 1596.67 1032.83 1570.31C1012.37 1564.21 989.174 1557.3 964.13 1551.19C944.524 1545.37 926.416 1540.16 908.903 1535.14C787.061 1500.15 719.942 1480.88 654.081 1390.36C600.146 1327.52 581.975 1240.54 576.219 1178.63C546.62 1062.94 536.188 938.402 546.015 818.328ZM1468.16 1060.15C1471.42 1020.43 1469.24 977.624 1461.5 929.269C1439.63 794.923 1390.21 660.23 1325.91 559.72C1274.73 474.967 1223.52 419.205 1169.35 389.278C1116.94 359.174 1053.9 347.97 970.998 354.019C857.892 343.474 760.84 370.328 711.438 425.867C677.496 455.503 650.917 490.403 627.829 535.662C585.842 589.793 557.916 679.31 547.128 794.446C546.319 802.241 545.595 810.046 544.956 817.857C535.109 938.166 545.564 1062.94 575.195 1178.69C580.945 1240.75 599.227 1328.2 653.466 1391.4C719.577 1482.25 786.825 1501.57 908.906 1536.62C926.412 1541.64 944.522 1546.85 964.144 1552.69C989.189 1558.79 1012.38 1565.71 1032.83 1571.8C1078.53 1585.42 1114.62 1596.19 1148.68 1592.86C1185.44 1589.27 1216.07 1569.29 1247.96 1528.07C1281.07 1497.97 1319.41 1443.93 1355.86 1375.96C1389.09 1314.01 1416 1248.86 1427.84 1201.72C1451.19 1155.81 1464.02 1110.78 1468.16 1060.15Z" fill="#A8C4E0" fill-opacity="0.5"/>
<path d="M552.285 786.386C561.44 674.538 589.792 589.371 634.284 540.097C658.045 500.501 685.332 469.767 722.817 440.38C772.375 389.783 864.883 362.963 970.325 368.593C1051.77 358.567 1113.15 366.259 1163.55 392.788C1216.2 419.318 1268.05 473.79 1317.7 554.706C1384.31 657.37 1434.51 794.932 1455.45 932.149C1462.21 977.195 1464 1017.19 1460.95 1054.41C1456.54 1108.38 1441.89 1156.13 1414.85 1204.65C1388.55 1296.76 1308.93 1445.94 1241.66 1507.94C1175.35 1592.72 1120.52 1579.72 1029.67 1558.19C1011.95 1553.99 993.633 1549.66 973.429 1545.61C957.672 1541.5 942.864 1537.77 928.545 1534.14C809.947 1504.2 744.616 1487.69 679.835 1401.8C625.182 1340.79 603.156 1253.7 594.292 1191.37C555.99 1061.27 541.227 924.572 551.557 795.9C551.785 792.727 552.027 789.556 552.285 786.386ZM1462.02 1054.87C1465.08 1017.5 1463.27 977.342 1456.49 932.136C1435.51 794.61 1385.18 656.725 1318.42 553.835C1268.63 472.678 1216.58 418.013 1163.72 391.372C1113.16 364.76 1051.63 357.039 970.084 367.077C864.507 361.433 771.789 388.341 722.124 439.05C684.59 468.471 657.236 499.279 633.468 538.904C588.862 588.294 560.402 673.734 551.22 785.911C550.961 789.086 550.719 792.261 550.496 795.438C540.143 924.359 554.938 1061.33 593.282 1191.53C602.153 1254.01 624.299 1341.53 679.242 1402.85C744.274 1489.09 809.739 1505.62 928.577 1535.65C942.898 1539.26 957.7 1543 973.474 1547.1C993.688 1551.15 1012 1555.5 1029.71 1559.68C1075.1 1570.44 1110.95 1578.93 1144.62 1574.3C1180.94 1569.32 1211.1 1549.25 1242.41 1509.21C1273.96 1480.14 1310.56 1429.53 1345.41 1366.73C1376.86 1310.06 1403.18 1249.81 1415.79 1205.59C1442.87 1157.03 1457.59 1109.1 1462.02 1054.87Z" fill="#A8C4E0" fill-opacity="0.5"/>
<path d="M557.142 771.918C565.797 666.157 594.594 587.162 640.415 543.475C664.006 510.107 692.837 482.375 733.957 453.493C783.835 407.534 871.961 380.543 969.729 381.262C1050.85 366.899 1108.91 370.934 1158.07 394.36C1210.09 417.974 1261.25 469.773 1310.18 548.32C1379.18 653.409 1430.23 794.253 1450.23 934.779C1456.15 977.021 1457.63 1014.64 1454.75 1049.78C1450.05 1107.21 1433.46 1157.68 1402.58 1208.58C1375.02 1293.52 1299.87 1429.75 1235.98 1489.65C1170.56 1572.49 1115.74 1563.16 1024.92 1547.72C1011.53 1545.45 997.683 1543.09 982.829 1540.87C971.355 1538.39 960.322 1536.06 949.702 1533.81C833.787 1509.31 769.935 1495.81 705.966 1414.19C650.705 1355.05 624.825 1267.76 612.837 1204.94C567.814 1068.38 547.998 927.468 555.486 797.27C555.901 788.811 556.453 780.359 557.142 771.918ZM1455.81 1050.25C1458.7 1014.96 1457.21 977.19 1451.28 934.788C1431.23 793.936 1380.06 652.757 1310.89 547.437C1261.82 468.641 1210.44 416.645 1158.21 392.924C1108.89 369.427 1050.67 365.362 969.454 379.746C871.572 379.028 783.266 406.088 733.296 452.138C692.134 481.041 663.24 508.838 639.646 542.229C593.682 586.039 564.767 665.324 556.081 771.445C555.391 779.908 554.837 788.38 554.421 796.86C546.915 927.303 566.773 1068.51 611.848 1205.18C623.851 1268.15 649.863 1355.85 705.393 1415.27C769.621 1497.24 833.605 1510.76 949.76 1535.31C960.382 1537.56 971.413 1539.89 982.909 1542.37C997.788 1544.6 1011.63 1546.96 1025.02 1549.24C1070.47 1556.96 1106.37 1563.07 1139.87 1556.98C1175.96 1550.41 1205.84 1530.05 1236.74 1490.92C1300.68 1430.97 1375.96 1294.51 1403.51 1209.57C1434.44 1158.61 1451.09 1107.94 1455.81 1050.25Z" fill="#A8C4E0" fill-opacity="0.5"/>
<path d="M561.707 760.892C569.987 659.717 599.39 585.756 646.74 547.003C673.909 514.62 705.756 491.561 745.237 466.889C796.303 424.918 877.905 398.498 969.164 394.363C1022.79 381.832 1092.04 370.751 1152.54 396.404C1203.88 417.066 1254.34 466.146 1302.53 542.276C1372.86 648.108 1426.06 795.794 1444.84 937.36C1450.02 977.026 1451.22 1012.45 1448.5 1045.65C1443.47 1107.16 1425.49 1158.52 1390.18 1212.17C1360.88 1291.28 1289.67 1413.95 1230.28 1470.63C1165.13 1552.15 1109.59 1546.7 1017.57 1537.69C1009.43 1536.9 1001.03 1536.07 992.31 1535.27C985.695 1534.19 979.207 1533.15 972.87 1532.12C862.512 1514.25 795.906 1503.47 732.299 1425.79C676.507 1368.6 646.761 1281.19 631.622 1217.91C580.582 1077.29 555.043 928.376 559.663 798.488C560.027 785.663 560.715 773.013 561.707 760.892ZM1449.56 1046.13C1452.29 1012.78 1451.1 977.212 1445.9 937.387C1437.09 871.012 1420.33 801.172 1397.43 735.402C1372.06 662.513 1340.37 597.237 1303.25 541.382C1254.89 464.98 1204.21 415.712 1152.64 394.952C1091.92 369.207 1022.52 380.306 968.847 392.854C877.506 396.987 795.756 423.471 744.61 465.506C705.104 490.192 673.2 513.292 646.018 545.706C598.498 584.588 568.958 658.853 560.645 760.42C559.65 772.572 558.961 785.259 558.595 798.114C556.289 862.878 561.245 931.722 573.33 1002.73C585.568 1074.67 604.857 1147.18 630.653 1218.25C645.817 1281.66 675.705 1369.46 731.752 1426.9C795.624 1504.92 862.378 1515.73 972.969 1533.63C979.308 1534.65 985.788 1535.7 992.43 1536.78C1001.17 1537.58 1009.59 1538.41 1017.71 1539.21C1109.97 1548.25 1165.66 1553.7 1231.03 1471.9C1290.48 1415.15 1361.8 1292.31 1391.09 1213.19C1426.45 1159.47 1444.5 1107.91 1449.56 1046.13Z" fill="#A8C4E0" fill-opacity="0.5"/>
<path d="M566.13 751.763C574.123 654.1 604.252 584.337 653.256 550.022C682.947 520.463 718.755 500.682 756.666 479.742C808.456 442.265 885.721 415.716 968.688 406.878C1024.56 390.465 1089.38 376.569 1147.02 397.844C1197.66 415.515 1247.4 461.863 1294.85 535.608C1367.5 643.716 1421.51 794.623 1439.34 939.299C1443.87 976.602 1444.82 1010.03 1442.25 1041.45C1436.96 1106.12 1417.04 1159.7 1377.68 1215.12C1346.75 1287.91 1281.04 1395.99 1224.52 1451.03C1158.53 1532.53 1100.84 1531.28 1005.27 1529.21L1001.8 1529.13L998.982 1528.86C889.05 1517.86 822.7 1511.24 758.737 1436.86C702.508 1381.7 668.876 1294.13 650.556 1230.39C592.866 1083.91 562.16 930.824 564.051 799.216C564.191 782.873 564.891 766.911 566.13 751.763ZM1443.31 1041.93C1445.89 1010.36 1444.94 976.807 1440.39 939.339C1422.52 794.331 1368.37 643.064 1295.56 534.699C1247.92 460.681 1197.96 414.138 1147.08 396.376C1089.23 375.017 1024.26 388.945 968.328 405.376C885.306 414.216 807.925 440.814 756.072 478.337C718.154 499.278 682.301 519.082 652.583 548.673C603.375 583.125 573.097 653.204 565.068 751.29C563.825 766.485 563.124 782.496 562.985 798.884C561.086 930.768 591.855 1084.16 649.614 1230.8C667.968 1294.69 701.743 1382.6 758.215 1438.01C822.457 1512.7 888.96 1519.35 999.121 1530.36L1001.98 1530.65L1005.47 1530.72C1101.27 1532.8 1159.08 1534.05 1225.27 1452.3C1281.85 1397.2 1347.66 1288.98 1378.58 1216.19C1418 1160.68 1437.99 1106.9 1443.31 1041.93Z" fill="#A8C4E0" fill-opacity="0.5"/>
<path d="M569.391 745.027C577.154 650.173 608.107 584.079 658.904 553.877C684.89 532.603 715.688 518.019 748.289 502.576C754.634 499.579 760.968 496.559 767.291 493.515C820.556 460.23 893.542 433.602 967.555 420.456C1022.39 400.905 1085.81 383.256 1140.99 400.447C1190.95 415.132 1240 458.762 1286.77 530.133C1361.8 640.509 1416.68 794.605 1433.59 942.332C1437.55 977.479 1438.29 1009.04 1435.86 1038.82C1430.32 1106.55 1408.44 1162.13 1364.93 1219.02C1332.63 1284.72 1271.97 1379 1218.4 1432.22C1154.73 1509.6 1097.49 1518.37 1010.78 1523.63C910.951 1521.48 846.591 1516.7 784.454 1448.48C727.796 1395.34 690.23 1307.64 668.683 1243.42C604.27 1091.26 568.36 934.05 567.535 800.642C567.327 781.315 567.953 762.603 569.391 745.027ZM1436.92 1039.28C1439.37 1009.38 1438.62 977.692 1434.66 942.398C1417.69 794.316 1362.67 639.861 1287.48 529.216C1240.51 457.551 1191.22 413.724 1141 398.966C1085.61 381.709 1022.04 399.392 967.155 418.963C893.111 432.115 820.042 458.77 766.735 492.087C760.426 495.124 754.106 498.136 747.774 501.125C715.129 516.588 684.298 531.193 658.283 552.487C633.773 567.059 613.615 590.376 598.416 621.769C582.418 654.815 572.295 696.126 568.331 744.554C566.888 762.191 566.263 780.961 566.468 800.349C567.292 934.038 603.268 1091.56 667.763 1243.91C689.355 1308.27 727.075 1396.3 783.955 1449.65C846.384 1518.2 910.91 1523 1011.01 1525.14C1097.94 1519.88 1155.31 1511.08 1219.16 1433.49C1272.77 1380.23 1333.51 1285.83 1365.79 1220.14C1409.4 1163.13 1431.35 1107.33 1436.92 1039.28Z" fill="#A8C4E0" fill-opacity="0.5"/>
<path d="M573.588 739.101C581.175 646.396 613.018 583.422 665.674 557.001C689.084 541.515 716.04 531.103 744.58 520.078C755.733 515.768 767.269 511.311 779.022 506.394C820.047 484.702 886.02 454.353 967.497 432.895C1023.97 408.926 1083.43 388.577 1136 401.763C1185.26 413.411 1233.61 454.35 1279.68 523.437C1357.06 636.183 1412.79 793.612 1428.74 944.59C1432.15 977.333 1432.72 1008.09 1430.43 1035.99C1424.64 1106.78 1400.78 1164.32 1353.05 1222.58C1322.31 1276.26 1267.25 1358.4 1213.17 1413.46C1153.05 1485.3 1099.13 1505.78 1020.66 1518.44C926.335 1525.9 868.024 1518.98 811.135 1460.47C754.152 1409.36 712.632 1321.43 687.83 1256.65C616.722 1098.77 575.641 937.237 572.13 801.745C571.492 779.778 571.984 758.703 573.588 739.101ZM1431.49 1036.46C1433.79 1008.43 1433.22 977.546 1429.79 944.675C1422.39 874.642 1405.66 800.076 1381.41 729.031C1355.05 651.809 1320.11 580.393 1280.37 522.516C1234.09 453.114 1185.5 411.983 1135.96 400.264C1083.19 387.03 1023.59 407.418 967.059 431.417C885.56 452.877 819.537 483.249 778.508 504.945C766.791 509.844 755.261 514.298 744.112 518.609C715.538 529.646 688.548 540.07 665.108 555.576C639.7 568.326 618.861 589.948 603.211 619.834C586.725 651.31 576.402 691.276 572.527 738.629C570.916 758.304 570.426 779.452 571.064 801.489C574.581 937.273 615.734 1099.11 686.938 1257.21C711.799 1322.13 753.469 1410.37 810.671 1461.66C838.891 1490.7 868.966 1508.09 905.282 1516.37C941.759 1524.68 982.434 1523.01 1020.96 1519.96C1099.63 1507.26 1153.67 1486.73 1213.92 1414.72C1268.04 1359.63 1323.15 1277.41 1353.88 1223.74C1401.73 1165.36 1425.68 1107.57 1431.49 1036.46Z" fill="#A8C4E0" fill-opacity="0.5"/>
<path d="M576.713 734.202C584.146 643.377 616.914 583.328 671.477 560.548C692.974 549.4 717.251 542.229 742.95 534.635C758.101 530.158 773.773 525.531 789.746 519.834C800.408 515.228 811.518 510.348 823.051 505.282C865.962 486.432 914.598 465.071 966.406 446.106C1030.35 414.419 1082.61 395.14 1129.92 403.996C1178.47 412.603 1226.09 450.817 1271.49 517.571C1350.04 630.837 1408.02 795.439 1422.8 947.156C1425.76 978.074 1426.17 1007.2 1424 1033.71C1417.89 1108.4 1392.8 1165.91 1340.13 1226C1324.32 1249.36 1268.08 1330.4 1206.93 1394.21C1152.58 1457.77 1101.2 1492.04 1029.58 1512.51C965.878 1525.9 898.431 1530.22 836.891 1471.66C791.582 1432.86 746.354 1362.91 706.063 1269.31C628.26 1105.99 582.005 940.337 575.803 802.863C574.666 778.583 574.971 755.483 576.713 734.202ZM1425.06 1034.18C1427.25 1007.55 1426.83 978.31 1423.85 947.263C1416.91 876.05 1400.19 799.957 1375.49 727.195C1348.68 648.236 1312.95 575.43 1272.18 516.636C1226.56 449.56 1178.67 411.152 1129.84 402.495C1082.33 393.596 1029.95 412.913 965.91 444.648C914.12 463.604 865.476 484.97 822.554 503.825C811.023 508.889 799.913 513.766 789.276 518.366C773.341 524.045 757.68 528.672 742.536 533.148C716.803 540.755 692.497 547.936 670.965 559.098C644.635 570.088 623.101 590.108 606.976 618.592C589.986 648.6 579.449 687.338 575.652 733.731C573.904 755.095 573.596 778.284 574.737 802.65C580.953 940.417 627.285 1106.37 705.201 1269.92C745.593 1363.76 790.99 1433.97 836.46 1472.89C863.489 1498.61 892.829 1513.94 926.123 1519.71C954.825 1524.69 987.82 1522.87 1029.96 1514.01C1101.76 1493.49 1153.24 1459.15 1207.7 1395.48C1268.87 1331.64 1325.14 1250.54 1340.93 1227.21C1393.74 1166.96 1418.93 1109.22 1425.06 1034.18Z" fill="#A8C4E0" fill-opacity="0.5"/>
<path d="M579.826 729.922C587.033 641.855 621.705 582.865 677.456 563.818C697.478 556.035 719.764 551.438 743.362 546.571C761.976 542.73 781.228 538.761 800.76 532.948C847.835 517.097 899.398 491.645 953.992 464.704L965.756 458.9C1018.59 428.714 1074.36 399.752 1124.43 405.759C1172.28 411.313 1219.25 446.837 1264.01 511.352C1344.95 626.932 1403.84 794.93 1417.69 949.792C1420.28 979.058 1420.55 1006.7 1418.48 1031.93C1410.48 1129.57 1368.25 1186.74 1327.97 1229.78C1304.54 1258.61 1256.96 1315.86 1201.35 1375.51C1156.84 1426.25 1106.38 1477.32 1038.98 1507.26C969.057 1534.57 913.122 1527.02 862.963 1483.49C816.825 1445.82 770.247 1378.18 724.5 1282.41C639.932 1113.57 588.464 943.66 579.568 803.966C577.878 777.567 577.965 752.657 579.826 729.922ZM1419.53 1032.41C1421.61 1007.06 1421.35 979.307 1418.75 949.916C1404.87 794.68 1345.84 626.266 1264.69 510.404C1219.69 445.552 1172.45 409.833 1124.3 404.248C1074.02 398.214 1018.14 427.228 965.213 457.46L953.467 463.255C898.895 490.194 847.354 515.629 800.331 531.462C780.839 537.266 761.603 541.233 743.002 545.067C719.377 549.945 697.062 554.546 677 562.344C649.707 571.669 627.432 590.206 610.8 617.435C593.276 646.132 582.496 683.817 578.763 729.448C576.894 752.275 576.807 777.291 578.503 803.787C587.422 943.779 638.975 1114 723.663 1283.09C769.524 1379.09 816.263 1446.95 862.566 1484.76C913.013 1528.53 969.227 1536.15 1039.47 1508.73C1107 1478.72 1157.55 1427.58 1202.11 1376.78C1257.72 1317.12 1305.31 1259.85 1328.74 1231.03C1369.12 1187.87 1411.51 1130.5 1419.53 1032.41Z" fill="#A8C4E0" fill-opacity="0.5"/>
<path d="M582.877 726.328C589.98 639.52 625.697 583.041 683.447 567.293C702.247 562.213 722.946 559.723 744.858 557.086C766.617 554.473 789.115 551.767 811.767 546.29C855.717 535.659 901.569 513.425 965.07 471.952C1018.97 436.816 1071.29 405.478 1118.88 407.822C1166.02 410.309 1212.31 443.138 1256.46 505.408C1339.79 623.27 1399.58 794.611 1412.49 952.572C1414.73 980.287 1414.87 1006.53 1412.91 1030.57C1404.62 1131.86 1359.14 1190.03 1315.74 1233.59C1308.67 1240.67 1301.4 1247.89 1293.95 1255.28C1264.27 1284.76 1230.62 1318.17 1195.71 1356.78C1187.43 1365.92 1178.97 1375.49 1170.8 1384.76C1132.59 1428.01 1093.08 1472.74 1048.35 1501.94C995.607 1536.35 939.03 1533.97 889.041 1495.23C842.79 1459.26 793.642 1392.06 742.962 1295.49C651.641 1121.24 594.958 947.115 583.355 805.176C581.073 776.846 580.913 750.317 582.877 726.328ZM1413.96 1031.04C1415.95 1006.89 1415.8 980.545 1413.55 952.71C1400.61 794.369 1340.67 622.607 1257.13 504.447C1212.73 441.827 1166.16 408.807 1118.7 406.31C1070.9 403.959 1018.46 435.355 964.469 470.552C901.034 511.978 855.254 534.183 811.384 544.791C788.771 550.26 766.294 552.964 744.555 555.577C722.617 558.215 701.895 560.708 683.045 565.805C654.771 573.516 631.742 590.635 614.59 616.694C596.526 644.159 585.495 680.883 581.815 725.855C579.842 749.952 580.006 776.595 582.292 805.037C588.071 875.715 605.068 954.647 632.811 1039.66C660.334 1123.98 697.123 1210.3 742.153 1296.23C792.955 1393.02 842.255 1460.41 888.688 1496.53C939.002 1535.52 995.924 1537.94 1048.96 1503.35C1093.77 1474.08 1133.32 1429.31 1171.56 1386.02C1179.74 1376.76 1188.2 1367.19 1196.46 1358.05C1231.36 1319.45 1264.99 1286.05 1294.68 1256.58C1302.13 1249.19 1309.4 1241.96 1316.47 1234.89C1360.01 1191.19 1405.64 1132.8 1413.96 1031.04Z" fill="#A8C4E0" fill-opacity="0.5"/>
<path d="M596.507 730.252C603.579 643.849 637.822 587.859 692.935 572.597C712.452 567.177 733.7 564.709 756.192 562.099C776.214 559.775 796.918 557.372 817.951 552.696C827.797 550.458 838.076 547.522 848.505 543.971C883.09 532.199 919.886 513.63 967.808 483.775C1020.42 451.161 1071.5 422.137 1118.02 425.241C1164.02 428.439 1209.08 460.611 1251.96 520.859C1301.41 590.282 1341.11 677.119 1366.79 771.986C1383.63 832.753 1394.7 896.491 1398.82 956.332C1400.77 982.724 1400.79 1007.83 1398.9 1030.94C1393.83 1093.02 1375.15 1144.31 1340.14 1192.34C1330.51 1205.47 1319.5 1218.56 1306.48 1232.34C1296.31 1243.28 1285.81 1254.38 1274.7 1266.13C1249.8 1292.48 1221.56 1322.33 1192.44 1355.4C1187.7 1360.83 1182.94 1366.32 1178.16 1371.84C1145.6 1409.39 1111.93 1448.22 1074.76 1477.48C1065.94 1484.44 1057.12 1490.69 1048.55 1496.05C997.122 1528.51 941.854 1525.65 892.942 1488.03C847.314 1452.85 799.135 1387.79 749.743 1294.68C716.289 1232.45 686.904 1165.61 662.4 1096.04C645.143 1047.62 630.63 998.567 619.266 950.237C607.889 901.714 600.794 856.817 596.942 808.933C594.687 780.773 594.54 754.297 596.507 730.252ZM1399.96 1031.41C1401.86 1008.2 1401.84 982.982 1399.88 956.483C1395.75 896.512 1384.64 832.612 1367.77 771.709C1342.03 676.592 1302.22 589.512 1252.63 519.896C1209.5 459.305 1164.16 426.948 1117.85 423.729C1071.12 420.61 1019.94 449.684 967.224 482.364C919.343 512.191 882.592 530.736 848.064 542.494C837.657 546.034 827.401 548.964 817.58 551.199C796.582 555.866 775.896 558.266 755.894 560.587C733.37 563.2 712.101 565.672 692.531 571.108C637.042 586.474 602.562 642.826 595.446 729.78C593.469 753.933 593.617 780.515 595.88 808.786C599.743 856.788 606.855 901.802 618.259 950.435C629.642 998.849 644.18 1047.98 661.465 1096.48C686.006 1166.16 715.437 1233.1 748.939 1295.43C798.449 1388.76 846.787 1454 892.598 1489.33C941.831 1527.2 997.43 1530.1 1049.15 1497.47C1057.73 1492.08 1066.57 1485.81 1075.41 1478.84C1112.65 1449.54 1146.34 1410.68 1178.93 1373.1C1183.71 1367.57 1188.47 1362.08 1193.21 1356.66C1222.32 1323.6 1249.33 1295.04 1275.44 1267.41C1286.55 1255.66 1297.05 1244.56 1307.22 1233.62C1320.27 1219.8 1331.31 1206.69 1340.96 1193.53C1376.11 1145.32 1394.86 1093.79 1399.96 1031.41Z" fill="#A8C4E0" fill-opacity="0.5"/>
<path d="M610.162 733.602C617.187 647.759 649.923 592.352 702.34 577.587C722.605 571.801 744.392 569.382 767.459 566.822C785.707 564.796 804.575 562.704 823.909 558.796C833.457 556.774 843.472 554.1 853.683 550.849C887.553 540.069 923.476 522.949 970.154 495.337C1021.41 465.259 1071.18 438.579 1116.58 442.437C1161.39 446.354 1205.19 477.827 1246.75 535.996C1295.8 604.349 1333.72 689.072 1356.41 781.012C1371.56 839.332 1380.94 899.318 1384.26 959.325C1385.92 984.359 1385.84 1008.27 1384.03 1030.39C1379.06 1091.09 1361.29 1141.87 1328.14 1190.23C1319.04 1203.33 1308.67 1216.37 1296.43 1230.08C1282.35 1246.4 1267.41 1263.21 1251.59 1280.99C1231.47 1303.63 1210.67 1327.02 1188.52 1352.9L1186.17 1355.68C1151.13 1397.3 1114.89 1440.31 1073.93 1471.41C1065.32 1477.97 1056.68 1483.87 1048.26 1488.94C998.192 1519.4 944.305 1516.09 896.527 1479.6C851.567 1445.25 804.412 1382.42 756.365 1292.87C723.418 1233.07 695.643 1168.68 671.436 1096.02C655.422 1049.07 642.174 1001.85 630.924 951.652C620.781 906.124 614.686 864.399 610.549 812.147C608.317 784.152 608.188 757.728 610.162 733.602ZM1385.09 1030.86C1386.9 1008.65 1386.99 984.64 1385.33 959.511C1381.99 899.364 1372.59 839.225 1357.4 780.774C1334.66 688.574 1296.62 603.593 1247.41 535.027C1205.61 476.528 1161.54 444.869 1116.42 440.925C1070.83 437.049 1020.95 463.782 969.58 493.923C922.953 521.503 887.075 538.602 853.255 549.367C843.066 552.61 833.07 555.276 823.546 557.296C804.246 561.197 785.394 563.29 767.164 565.312C744.07 567.873 722.253 570.296 701.935 576.099C676.16 583.359 654.996 600.499 639.033 627.045C622.711 654.187 612.641 689.881 609.102 733.129C607.118 757.362 607.251 783.9 609.49 812.007C613.637 864.372 619.743 906.19 629.915 951.827C641.182 1002.11 654.453 1049.41 670.489 1096.42C694.735 1169.22 722.567 1233.73 755.571 1293.63C803.734 1383.4 851.043 1446.42 896.184 1480.91C944.275 1517.64 998.489 1520.99 1048.84 1490.35C1057.29 1485.27 1065.94 1479.36 1074.58 1472.79C1115.6 1441.63 1151.87 1398.56 1186.96 1356.92L1189.29 1354.15C1211.43 1328.28 1232.23 1304.88 1252.35 1282.25C1268.17 1264.47 1283.11 1247.66 1297.19 1231.34C1309.45 1217.6 1319.85 1204.53 1328.98 1191.4C1362.27 1142.86 1380.1 1091.84 1385.09 1030.86Z" fill="#A8C4E0" fill-opacity="0.5"/>
<path d="M623.871 736.756C630.755 652.624 662.846 596.29 711.914 582.195C733.011 575.987 755.377 573.641 779.058 571.157C795.538 569.428 812.574 567.643 830.174 564.443C839.444 562.619 849.211 560.2 859.201 557.248C892.395 547.435 927.478 531.722 972.975 506.284C1022.94 478.666 1071.45 454.259 1115.79 458.864C1159.47 463.486 1202.04 494.318 1242.32 550.487C1291.02 617.877 1327.19 700.629 1346.92 789.816C1360.2 844.858 1368.17 902.926 1370.64 962.432C1372 986.122 1371.82 1008.84 1370.08 1029.98C1365.22 1089.41 1348.34 1139.84 1316.99 1188.68C1308.41 1201.77 1298.66 1214.79 1287.19 1228.46C1267.68 1252.94 1246.1 1278.65 1223.25 1305.87C1211.02 1320.43 1198.38 1335.49 1185.26 1351.3C1151.53 1392.96 1115.12 1436.16 1073.64 1466.49C1065.21 1472.69 1056.74 1478.24 1048.47 1483.01C999.709 1511.57 947.132 1507.8 900.438 1472.4C856.097 1438.83 809.913 1378.11 763.171 1291.96C730.438 1233.96 704.193 1171.89 680.575 1096.58C666.041 1051.87 653.638 1005.05 642.651 953.396C632.43 904.985 628.148 866.159 624.201 815.447C621.993 787.529 621.882 761.056 623.871 736.756ZM1371.14 1030.45C1372.88 1009.22 1373.06 986.399 1371.7 962.628C1369.23 903.003 1361.23 844.789 1347.93 789.623C1328.15 700.16 1291.85 617.129 1242.98 549.512C1202.47 493.019 1159.62 462.01 1115.65 457.358C1071.1 452.724 1022.48 477.176 972.425 504.851C926.972 530.264 891.926 545.964 858.79 555.762C848.816 558.707 839.072 561.119 829.825 562.942C812.254 566.129 795.231 567.92 778.769 569.646C755.053 572.132 732.656 574.483 711.503 580.706C662.067 594.907 629.738 651.612 622.809 736.284C620.812 760.689 620.925 787.275 623.14 815.305C627.094 866.102 631.388 905.012 641.632 953.547C652.64 1005.28 665.062 1052.18 679.62 1096.95C703.28 1172.4 729.582 1234.61 762.385 1292.74C809.244 1379.11 855.581 1440 900.103 1473.72C947.107 1509.34 1000 1513.15 1049.04 1484.43C1057.32 1479.65 1065.82 1474.08 1074.27 1467.87C1115.83 1437.48 1152.28 1394.23 1186.05 1352.53C1199.16 1336.73 1211.8 1321.67 1224.02 1307.11C1246.88 1279.88 1268.47 1254.16 1287.97 1229.69C1299.46 1215.99 1309.22 1202.94 1317.83 1189.82C1349.32 1140.8 1366.25 1090.16 1371.14 1030.45Z" fill="#A8C4E0" fill-opacity="0.5"/>
<path d="M636.628 739.444C643.454 656.026 674.056 600.419 720.594 586.881C742.608 580.263 765.596 578.062 789.932 575.731C804.641 574.323 819.854 572.866 835.681 570.361C844.672 568.759 854.197 566.612 863.994 563.968C896.538 555.191 930.833 540.952 975.189 517.798C1021.96 493.749 1071.24 470.721 1114.55 476.143C1157.15 481.529 1198.56 511.708 1237.62 565.841C1286.05 632.205 1320.54 712.896 1337.34 799.19C1348.79 850.758 1355.39 906.814 1356.98 965.836C1358.06 988.097 1357.78 1009.55 1356.14 1029.62C1351.39 1087.71 1335.39 1137.71 1305.8 1186.95C1297.73 1200 1288.6 1212.96 1277.89 1226.56C1249.69 1264.88 1216.75 1305.76 1181.87 1349.06C1151.76 1387.66 1115.29 1431.08 1073.11 1460.57C1064.85 1466.38 1056.55 1471.58 1048.41 1476.01C1000.91 1502.55 949.588 1498.28 903.907 1463.97C860.117 1431.17 814.842 1372.62 769.326 1289.95C736.569 1233.44 711.773 1173.71 688.914 1096.27C675.659 1053.48 664.405 1008.42 653.492 954.473C643.586 904.983 640.748 868.055 637.15 821.292L636.922 818.291C634.721 790.453 634.624 763.929 636.628 739.444ZM1357.21 1030.09C1358.85 1009.94 1359.13 988.391 1358.04 966.064C1356.45 906.93 1349.84 850.727 1338.37 799.046C1321.5 712.464 1286.89 631.475 1238.28 564.863C1198.99 510.414 1157.32 480.054 1114.42 474.639C1070.91 469.192 1021.52 492.262 974.657 516.358C930.338 539.494 896.09 553.715 863.597 562.481C853.815 565.114 844.311 567.263 835.346 568.857C819.548 571.36 804.347 572.813 789.646 574.221C765.275 576.553 742.253 578.757 720.18 585.394C673.276 599.04 642.438 655.018 635.567 738.972C633.554 763.561 633.65 790.198 635.86 818.146L636.089 821.144C639.693 867.978 642.537 904.965 652.47 954.599C663.397 1008.63 674.67 1053.75 687.947 1096.6C710.852 1174.22 735.715 1234.09 768.548 1290.74C814.177 1373.62 859.608 1432.34 903.574 1465.28C949.554 1499.81 1001.19 1504.13 1048.97 1477.44C1057.12 1472.99 1065.45 1467.78 1073.73 1461.96C1116.01 1432.41 1152.52 1388.93 1182.67 1350.28C1217.55 1306.99 1250.49 1266.08 1278.69 1227.75C1289.42 1214.14 1298.58 1201.16 1306.67 1188.06C1336.38 1138.64 1352.43 1088.44 1357.21 1030.09Z" fill="#A8C4E0" fill-opacity="0.5"/>
<path d="M650.284 742.835C657.05 660.166 686.107 605.266 730.009 592.208C752.945 585.104 776.5 583.064 801.441 580.904C814.341 579.789 827.679 578.638 841.639 576.731C850.469 575.316 859.471 573.47 869.171 571.098C900.97 563.308 934.393 550.478 977.526 529.506C1022.97 507.837 1070.88 487.198 1113.1 493.37C1154.51 499.458 1194.65 528.948 1232.37 581.028C1280.38 646.351 1313.08 724.979 1326.91 808.424C1336.65 857.1 1341.7 909.679 1342.37 969.2C1343.19 989.989 1342.8 1010.14 1341.26 1029.1C1336.6 1085.95 1321.5 1135.62 1293.73 1185.42C1286.19 1198.48 1277.69 1211.39 1267.76 1224.92C1244.31 1259.75 1216.58 1297.5 1177.85 1347.33C1139.8 1398.31 1106.23 1432.65 1072.19 1455.41C1064.13 1460.86 1056 1465.72 1048.02 1469.84C1001.9 1494.45 951.963 1489.73 907.407 1456.57C864.898 1425.03 819.424 1367.1 775.898 1289.04C734.43 1219.17 712.444 1149.72 697.925 1097.03C682.703 1045.06 672.404 994.66 665.134 956.565C657.105 913.935 654.801 881.674 652.136 844.326C651.611 836.908 651.071 829.491 650.514 822.076C648.337 794.244 648.259 767.585 650.284 742.835ZM1342.31 1029.58C1343.87 1010.53 1344.25 990.31 1343.44 969.457C1342.77 909.825 1337.69 857.116 1327.95 808.338C1314.05 724.587 1281.23 645.631 1233.03 580.049C1195.07 527.666 1154.68 497.99 1112.99 491.87C1070.57 485.664 1022.55 506.351 977.004 528.063C933.915 549.01 900.541 561.825 868.788 569.603C859.109 571.973 850.124 573.815 841.317 575.224C827.384 577.126 814.054 578.281 801.164 579.395C776.184 581.556 752.591 583.594 729.588 590.724C685.328 603.887 656.034 659.159 649.225 742.364C647.191 767.219 647.267 793.989 649.457 821.928C650.039 829.645 650.565 837.021 651.078 844.163C653.748 881.585 656.053 913.901 664.109 956.66C671.391 994.815 681.7 1045.28 696.944 1097.33C711.499 1150.14 733.541 1219.76 775.127 1289.84C818.764 1368.11 864.39 1426.21 907.078 1457.88C951.923 1491.27 1002.17 1496.02 1048.56 1471.27C1056.55 1467.13 1064.71 1462.27 1072.8 1456.82C1106.9 1433.98 1140.55 1399.59 1178.65 1348.53C1217.4 1298.69 1245.13 1260.94 1268.58 1226.09C1278.54 1212.55 1287.05 1199.6 1294.61 1186.52C1322.48 1136.52 1337.64 1086.65 1342.31 1029.58Z" fill="#A8C4E0" fill-opacity="0.5"/>
<path d="M663.996 745.6C670.585 665.091 698.832 609.673 739.556 597.344C763.483 589.737 787.635 587.951 813.203 586.057C824.309 585.235 835.791 584.382 847.861 583.035C856.39 581.836 865.147 580.248 874.641 578.187C905.324 571.508 938.885 559.798 980.281 541.318C1024.45 522.08 1071.02 503.89 1112.23 510.859C1152.51 517.683 1191.41 546.503 1227.87 596.512C1275.52 660.774 1306.48 737.311 1317.39 817.847C1325.42 863.312 1329.01 912.481 1328.72 972.621C1329.27 991.868 1328.82 1010.62 1327.35 1028.37C1322.81 1083.96 1308.58 1133.31 1282.59 1183.72C1275.58 1196.74 1267.72 1209.62 1258.53 1223.05C1235.1 1261.18 1207.67 1301.12 1174.64 1345.15C1140.59 1392.81 1106.05 1427.95 1071.97 1449.61C1064.11 1454.69 1056.14 1459.18 1048.31 1462.98C1003.51 1485.6 954.9 1480.41 911.41 1448.34C869.499 1417.6 825.021 1361.93 782.78 1287.34C741.875 1220.13 721.576 1153.46 707.117 1097.1C693.988 1049.58 684.829 1002.19 676.888 958.062C670.164 920.112 668.456 892.286 666.476 860.071C665.807 849.143 665.109 837.842 664.179 825.382C662.007 797.509 661.945 770.669 663.996 745.6ZM1328.42 1028.84C1329.87 1011.01 1330.34 992.198 1329.79 972.907C1330.08 912.67 1326.47 863.376 1318.43 817.823C1307.48 736.955 1276.39 660.068 1228.52 595.525C1191.85 545.223 1152.7 516.23 1112.14 509.358C1070.74 502.357 1024.05 520.589 979.778 539.867C938.436 558.32 904.906 570.024 874.275 576.69C864.799 578.75 856.057 580.333 847.556 581.529C835.51 582.875 824.033 583.724 812.933 584.547C787.323 586.441 763.133 588.233 739.133 595.864C718.112 602.226 700.669 619.106 687.295 646.031C674.569 671.643 666.146 705.913 662.938 745.129C660.877 770.303 660.937 797.255 663.121 825.23C664.051 837.685 664.743 848.975 665.414 859.894C667.398 892.177 669.109 920.06 675.858 958.136C683.81 1002.33 692.981 1049.77 706.129 1097.36C720.626 1153.86 740.987 1220.73 782.023 1288.15C824.367 1362.93 869.003 1418.79 911.083 1449.65C954.862 1481.93 1003.78 1487.17 1048.83 1464.42C1056.69 1460.61 1064.67 1456.09 1072.57 1451.02C1106.73 1429.31 1141.35 1394.08 1175.45 1346.35C1208.5 1302.29 1235.95 1262.33 1259.39 1224.2C1268.57 1210.74 1276.46 1197.84 1283.48 1184.78C1309.58 1134.19 1323.86 1084.65 1328.42 1028.84Z" fill="#A8C4E0" fill-opacity="0.5"/>
<path d="M677.699 748.571C684.204 669.083 710.895 614.578 749.095 602.765C774.055 594.609 797.639 593.202 824.949 591.571C834.276 591.014 843.925 590.441 854.074 589.556C862.338 588.569 870.848 587.231 880.106 585.478C910.074 579.797 942.782 569.549 983.023 553.247C1025.91 536.397 1071.15 520.601 1111.34 528.366C1150.5 535.923 1188.18 564.071 1223.35 612.043C1270.64 675.28 1299.86 749.778 1307.82 827.481C1315.93 881.2 1315.93 935.285 1315.03 976.409C1315.33 994.04 1314.8 1011.3 1313.46 1027.75C1309 1082.21 1295.62 1131.41 1271.38 1182.61C1264.9 1195.62 1257.66 1208.46 1249.25 1221.82C1226.44 1262.79 1200.97 1302.67 1171.36 1343.77C1140.4 1389.2 1105.94 1424.11 1071.68 1444.75C1063.99 1449.44 1056.2 1453.58 1048.51 1457.08C1005.05 1477.75 957.758 1472.09 915.332 1441.13C863.136 1403.29 818.149 1336.17 789.603 1286.54C749.051 1221.53 730.39 1157.47 716.261 1097.94C704.551 1052.7 696.811 1008.8 688.612 960.216C682.863 925.554 681.678 900.895 680.303 872.338C679.663 859.014 678.999 845.231 677.82 829.214C675.651 801.206 675.611 774.073 677.699 748.571ZM1314.5 1028.22C1315.86 1011.7 1316.39 994.375 1316.1 976.729C1317 935.555 1317 881.351 1308.87 827.513C1300.86 749.464 1271.51 674.589 1224 611.049C1188.62 562.796 1150.69 534.473 1111.27 526.871C1070.88 519.067 1025.53 534.894 982.555 551.777C942.345 568.072 909.685 578.302 879.76 583.979C870.514 585.729 862.018 587.062 853.786 588.049C843.656 588.931 834.012 589.507 824.69 590.062C797.332 591.696 773.706 593.101 748.669 601.289C710.116 613.203 683.188 668.087 676.641 748.1C674.544 773.71 674.584 800.95 676.762 829.065C677.938 845.052 678.598 858.817 679.239 872.131C680.618 900.759 681.808 925.48 687.576 960.263C695.785 1008.91 703.537 1052.86 715.264 1098.16C729.434 1157.86 748.156 1222.12 788.854 1287.38C817.473 1337.13 862.605 1404.45 915.013 1442.45C957.718 1473.62 1005.31 1479.33 1049.02 1458.54C1056.73 1455.03 1064.55 1450.86 1072.26 1446.16C1106.61 1425.47 1141.16 1390.46 1172.18 1344.94C1201.81 1303.82 1227.31 1263.91 1250.12 1222.92C1258.54 1209.55 1265.8 1196.69 1272.3 1183.63C1296.62 1132.26 1310.03 1082.88 1314.5 1028.22Z" fill="#A8C4E0" fill-opacity="0.5"/>
<path d="M690.543 750.244C696.957 671.879 722.094 618.336 757.784 607.024C783.783 598.261 807.869 597.224 835.754 596.025C843.343 595.697 851.188 595.357 859.432 594.851C867.413 594.066 875.677 592.977 884.715 591.525C913.954 586.816 945.792 578.021 984.916 563.846C1026.49 549.342 1070.38 535.897 1109.59 544.464C1147.61 552.741 1184.07 580.24 1217.95 626.192C1264.87 688.441 1292.33 760.956 1297.35 835.905C1302.85 880.852 1302.56 925.664 1300.42 979.138C1300.48 995.028 1299.9 1010.68 1298.67 1025.72C1294.29 1079.16 1281.76 1128.4 1259.24 1180.65C1253.31 1193.69 1246.69 1206.51 1239.02 1219.8C1217.46 1262.96 1193.95 1302.84 1167.12 1341.75C1138.56 1385.9 1105.14 1419.67 1070.43 1439.41C1062.93 1443.74 1055.31 1447.54 1047.77 1450.72C1005.65 1469.5 959.685 1463.39 918.316 1433.5C866.88 1396.64 823.14 1332.53 795.507 1285.25C757.393 1225.55 739.566 1167.26 724.515 1098.12C714.127 1054.96 707.477 1012.66 700.439 967.872L699.453 961.591C694.475 929.325 693.756 907.024 692.925 881.199C692.446 866.327 691.953 850.953 690.591 832.144C688.424 803.875 688.408 776.323 690.543 750.244ZM1299.72 1026.18C1300.96 1011.1 1301.56 995.384 1301.49 979.483C1303.63 925.953 1303.92 881.043 1298.41 836.016C1293.35 760.69 1265.75 687.77 1218.59 625.199C1184.51 578.973 1147.82 551.3 1109.54 542.965C1070.14 534.36 1026.14 547.837 984.46 562.377C945.383 576.533 913.584 585.315 884.386 590.021C875.363 591.473 867.113 592.556 859.161 593.338C850.936 593.846 843.091 594.188 835.508 594.511C807.568 595.716 783.439 596.753 757.352 605.543C721.316 616.965 695.941 670.886 689.485 749.773C687.342 775.955 687.359 803.618 689.53 831.993C690.89 850.75 691.384 866.101 691.861 880.952C692.695 906.849 693.416 929.221 698.411 961.613L699.404 967.904C706.449 1012.74 713.105 1055.09 723.51 1098.3C738.603 1167.67 756.499 1226.16 794.766 1286.1C822.467 1333.5 866.356 1397.81 918.001 1434.83C959.641 1464.91 1005.9 1471.06 1048.26 1452.17C1055.82 1448.99 1063.47 1445.17 1070.99 1440.83C1105.8 1421.03 1139.33 1387.17 1167.96 1342.9C1194.8 1303.97 1218.34 1264.05 1239.92 1220.87C1247.58 1207.56 1254.21 1194.72 1260.19 1181.65C1282.77 1129.21 1295.33 1079.82 1299.72 1026.18Z" fill="#A8C4E0" fill-opacity="0.5"/>
<path d="M704.315 752.191C710.607 675.335 734.176 623.03 767.37 612.288C794.371 602.947 818.878 602.399 847.254 601.76C853.164 601.626 859.285 601.488 865.679 601.272C873.383 600.698 881.4 599.87 890.206 598.73C918.696 595.03 949.657 587.737 987.66 575.759C1027.93 563.656 1070.46 552.625 1108.7 562.024C1145.59 571.045 1180.82 597.865 1213.4 641.737C1259.95 702.908 1285.67 773.319 1287.79 845.352C1291.76 888.692 1289.75 931.339 1286.74 982.585C1286.6 996.518 1285.98 1010.32 1284.88 1023.68C1280.58 1076.13 1268.89 1125.48 1248.07 1178.96C1242.66 1192 1236.67 1204.75 1229.77 1217.94C1209.8 1262.78 1188.24 1302.56 1163.87 1339.56C1137.92 1381.87 1104.66 1415.26 1070.19 1433.58C1062.88 1437.53 1055.43 1440.99 1048.05 1443.84C1007.29 1460.65 962.641 1454.05 922.325 1425.28C871.639 1389.43 829.14 1328.41 802.419 1283.55C764.44 1225.52 747.503 1167.5 733.754 1098.23C725.251 1060.03 719.841 1022.56 714.114 982.883C713.172 976.364 712.224 969.796 711.251 963.157C706.9 932.756 706.591 911.345 706.266 888.685C706.038 872.89 705.804 856.559 704.299 835.534C702.125 806.943 702.129 778.905 704.315 752.191ZM1285.95 1024.15C1287.05 1010.44 1287.67 996.707 1287.8 982.961C1290.82 931.676 1292.82 888.958 1288.85 845.533C1286.71 773.097 1260.85 702.256 1214.04 640.741C1181.26 596.604 1145.81 569.617 1108.66 560.534C1070.24 551.09 1027.61 562.143 987.242 574.275C949.279 586.241 918.341 593.536 889.897 597.225C881.106 598.36 873.1 599.192 865.421 599.759C859.048 599.978 852.929 600.113 847.019 600.247C818.586 600.885 794.031 601.441 766.933 610.808C733.397 621.667 709.592 674.345 703.258 751.72C701.063 778.537 701.056 806.687 703.24 835.379C704.738 856.337 704.975 872.64 705.203 888.401C705.529 911.136 705.839 932.615 710.212 963.156C711.182 969.8 712.132 976.363 713.072 982.881C718.807 1022.6 724.222 1060.13 732.736 1098.38C746.534 1167.89 763.544 1226.13 801.693 1284.41C828.476 1329.38 871.116 1390.59 922.018 1426.61C962.595 1455.57 1007.52 1462.22 1048.51 1445.31C1055.93 1442.45 1063.4 1438.97 1070.74 1435C1105.32 1416.62 1138.7 1383.13 1164.73 1340.68C1189.12 1303.65 1210.7 1263.82 1230.67 1218.95C1237.58 1205.77 1243.59 1192.98 1249.02 1179.91C1269.91 1126.27 1281.63 1076.77 1285.95 1024.15Z" fill="#A8C4E0" fill-opacity="0.5"/>
<path d="M718.096 754.155C724.342 677.867 745.8 628.175 776.969 617.824C804.89 607.892 828.516 607.906 858.43 607.925C862.784 607.931 867.27 607.931 871.928 607.907C879.375 607.541 887.146 606.96 895.695 606.133C923.398 603.433 953.495 597.604 990.41 587.782C1027.64 578.458 1070.48 569.368 1107.78 579.615C1143.55 589.371 1177.55 615.521 1208.83 657.339C1254.99 717.466 1278.96 785.82 1278.15 855.026C1280.38 893.962 1277.23 933.371 1273.88 975.093L1272.99 986.402C1272.69 997.983 1272.07 1009.55 1271.14 1021.1C1266.91 1072.83 1256 1122.63 1236.81 1177.87C1231.93 1190.91 1226.57 1203.63 1220.42 1216.71C1202 1263.7 1182.97 1302.28 1160.53 1338.16C1136.63 1379.47 1104.43 1411.61 1069.87 1428.69C1062.75 1432.28 1055.47 1435.4 1048.22 1437.92C1008.84 1452.81 965.525 1445.76 926.251 1418.07C876.317 1383.22 835.082 1325.26 809.286 1282.77C767.178 1219.97 753.434 1157.61 742.964 1099.13C735.998 1064.92 731.646 1031.33 727.038 995.788C725.733 985.647 724.401 975.51 723.042 965.377C719.218 936.391 719.327 916.554 719.439 895.551C719.53 879.22 719.619 862.331 718.006 839.459C715.844 810.785 715.876 781.287 718.096 754.155ZM1272.2 1021.57C1273.13 1010.01 1273.75 998.415 1274.05 986.814L1274.95 975.556C1278.29 933.763 1281.45 894.292 1279.21 855.282C1280.03 785.654 1255.91 716.834 1209.46 656.33C1177.99 614.268 1143.78 587.954 1107.78 578.131C1070.29 567.842 1027.34 576.946 990.023 586.291C953.137 596.104 923.073 601.93 895.411 604.621C886.873 605.455 879.114 606.034 871.693 606.393C867.2 606.417 862.707 606.424 858.214 606.414C828.236 606.398 804.554 606.381 776.531 616.349C745.014 626.82 723.328 676.873 717.041 753.685C714.81 780.92 714.779 810.53 716.948 839.304C718.556 862.087 718.465 878.94 718.377 895.238C718.261 916.312 718.156 936.219 721.998 965.355C723.357 975.484 724.688 985.617 725.992 995.754C730.606 1031.35 734.964 1064.97 741.939 1099.23C752.451 1157.93 766.253 1220.54 808.567 1283.65C834.425 1326.24 875.803 1384.39 925.952 1419.4C965.475 1447.27 1009.06 1454.37 1048.68 1439.4C1056.11 1436.78 1063.36 1433.69 1070.39 1430.13C1105.09 1412.99 1137.41 1380.71 1161.4 1339.28C1183.87 1303.35 1202.92 1264.7 1221.36 1217.68C1227.5 1204.6 1232.88 1191.86 1237.77 1178.75C1257.01 1123.39 1267.95 1073.45 1272.2 1021.57Z" fill="#A8C4E0" fill-opacity="0.5"/>
<path d="M731.024 754.85C737.095 680.696 757.053 632.577 785.777 622.838C814.52 612.381 837.145 613.013 868.461 613.893C871.407 613.974 874.426 614.06 877.535 614.138C884.75 613.993 892.283 613.675 900.583 613.161C927.497 611.494 956.768 607.172 992.7 599.569C1037.35 590.837 1073.81 587.076 1106.61 597.101C1141.32 607.643 1174.14 633.135 1204.18 672.875C1250.03 731.952 1272.31 798.22 1268.61 864.516C1268.91 880.437 1268.26 897.477 1266.57 918.218C1265.33 933.242 1263.72 948.329 1262.01 964.303C1261.11 972.704 1260.21 981.222 1259.33 989.904C1258.95 998.83 1258.4 1007.75 1257.67 1016.65C1253.42 1068.56 1243.55 1117.77 1225.63 1176.21C1221.28 1189.27 1216.44 1202.17 1211.13 1214.87C1194.67 1263.16 1177.54 1301.62 1157.18 1335.94C1135.19 1376.28 1104.02 1407.11 1069.41 1422.79C1062.54 1425.98 1055.46 1428.7 1048.24 1430.95C1010.17 1443.86 968.124 1436.3 929.816 1409.68C880.515 1375.78 840.471 1320.89 815.557 1280.81C773.432 1219.59 761.188 1159.85 751.431 1098.94C745.725 1068.06 742.271 1037.75 738.611 1005.65C737.169 993.018 735.682 979.948 734.024 966.641C730.649 938.789 731.147 920.276 731.674 900.682C732.12 884.101 732.583 866.964 730.871 842.553C728.674 813.234 728.726 782.913 731.024 754.85ZM1267.62 918.689C1269.33 897.88 1269.97 880.778 1269.67 864.859C1273.39 798.106 1250.97 731.345 1204.8 671.873C1174.59 631.892 1141.56 606.236 1106.62 595.629C1073.66 585.559 1037.1 589.32 992.344 598.073C956.444 605.671 927.205 609.988 900.323 611.653C892.033 612.166 884.506 612.487 877.319 612.629C874.299 612.551 871.28 612.47 868.261 612.384C836.869 611.504 814.188 610.871 785.33 621.37C756.263 631.225 736.08 679.708 729.966 754.38C727.66 782.544 727.609 812.979 729.813 842.395C731.515 866.7 731.056 883.786 730.613 900.317C730.083 919.993 729.582 938.577 732.979 966.595C734.632 979.898 736.121 992.957 737.561 1005.58C741.224 1037.72 744.684 1068.08 750.401 1099C760.193 1160.15 772.497 1220.16 814.847 1281.71C839.828 1321.88 880.016 1376.97 929.518 1411.01C968.069 1437.8 1010.38 1445.42 1048.67 1432.43C1055.92 1430.17 1063.02 1427.43 1069.91 1424.23C1104.68 1408.49 1135.98 1377.52 1158.07 1337.02C1178.45 1302.65 1195.62 1264.12 1212.1 1215.78C1217.41 1203.06 1222.26 1190.14 1226.62 1177.06C1244.57 1118.48 1254.47 1069.17 1258.73 1017.12C1259.46 1008.21 1260.01 999.286 1260.39 990.353C1261.25 981.735 1262.16 973.211 1263.06 964.821C1264.77 948.833 1266.39 933.736 1267.62 918.689Z" fill="#A8C4E0" fill-opacity="0.5"/>
<path d="M758.043 754.969C763.687 686.047 780.6 641.581 804.442 632.974C834.1 621.509 854.092 623.274 887.204 626.197L889.471 626.399C896.644 626.684 903.821 626.863 910.999 626.937C936.333 627.217 963.045 625.845 997.593 622.503C1033.35 619.64 1071.02 618.696 1104.16 631.077C1136.64 643.119 1166.99 667.279 1194.36 702.897C1235.61 755.103 1254.99 812.253 1250.42 868.185C1250.01 873.064 1249.43 877.991 1248.66 882.831C1248.58 883.931 1248.51 884.943 1248.42 885.972C1246.68 907.163 1242.83 928.72 1238.73 951.542C1236.14 965.966 1233.47 980.877 1231.15 996.661C1225.58 1063.83 1213.5 1123.67 1202.43 1173.36C1199.19 1186.4 1195.6 1199.35 1191.74 1211.82C1183.4 1246.53 1171.09 1291.6 1149.78 1332.67C1131.66 1370.97 1101.87 1400.12 1068.04 1412.69C1061.48 1415.19 1054.75 1417.24 1047.9 1418.81C1012.15 1428.09 973.817 1419.85 937.009 1395C889.156 1363.07 851.681 1314.25 828.666 1278.92C786.647 1220.65 776.911 1163.54 769.274 1100.26C765.575 1074.54 763.602 1049.26 761.513 1022.49C760.21 1005.79 758.861 988.526 757.032 970.505C754.441 944.202 755.687 927.748 757.005 910.327C758.259 893.786 759.556 876.671 757.725 849.694C755.464 818.722 755.577 785.085 758.043 754.969ZM1251.47 868.653C1256.1 812.166 1236.56 754.491 1194.98 701.872C1167.44 666.054 1136.9 641.739 1104.22 629.62C1070.93 617.189 1033.16 618.132 997.312 620.996C962.788 624.339 936.096 625.707 910.787 625.427C903.623 625.357 896.461 625.177 889.302 624.889L887.053 624.691C853.836 621.759 833.786 619.987 803.986 631.513C779.807 640.237 762.674 685.067 756.987 754.5C754.513 784.715 754.398 818.464 756.668 849.535C758.491 876.354 757.199 893.393 755.951 909.868C754.624 927.38 753.373 943.917 755.981 970.415C757.81 988.411 759.158 1005.66 760.457 1022.35C762.551 1049.15 764.525 1074.46 768.23 1100.23C775.902 1163.8 785.695 1221.21 827.981 1279.86C851.057 1315.28 888.677 1364.28 936.731 1396.34C973.752 1421.34 1012.33 1429.63 1048.28 1420.3C1055.15 1418.72 1061.91 1416.67 1068.5 1414.15C1102.52 1401.53 1132.48 1372.2 1150.68 1333.7C1172.06 1292.53 1184.39 1247.35 1192.74 1212.59C1196.68 1199.86 1200.24 1187.02 1203.44 1174.09C1214.53 1124.33 1226.62 1064.41 1232.2 997.195C1234.51 981.493 1237.18 966.594 1239.77 952.181C1244.06 928.215 1248.11 905.634 1249.72 883.354C1250.48 878.477 1251.07 873.574 1251.47 868.653Z" fill="#A8C4E0" fill-opacity="0.5"/>
<path d="M772.19 753.537C775.344 715.031 785.029 648.8 814.453 637.845C844.217 626.014 862.637 628.271 896.081 632.368C903.035 632.898 909.996 633.339 916.961 633.693C947.797 635.274 977.989 634.628 1000.86 633.896C1035.14 633.357 1071.36 634.696 1103.82 648.042C1135.24 660.873 1164.37 684.376 1190.43 717.904C1229.04 766.26 1247.24 818.573 1243.1 869.192C1242.48 876.778 1241.36 884.421 1239.75 891.912C1237.41 910.263 1233.21 928.83 1228.77 948.489C1225.08 964.747 1221.28 981.56 1218.11 999.896C1212.15 1055.43 1203.31 1108.72 1191.87 1171.66C1189.25 1184.51 1186.32 1197.29 1183.09 1209.99C1175.83 1247.73 1165.88 1291.52 1147.09 1330.64C1130.64 1368.28 1101.94 1396.16 1068.33 1407.14C1061.9 1409.29 1055.34 1410.99 1048.68 1412.22C1014.38 1419.57 977.316 1410.88 941.468 1387.08C894.268 1356.12 858.058 1310.35 835.989 1277.4C793.93 1220.47 785.523 1165.87 778.901 1100.42C776.003 1076.76 774.635 1053.52 773.187 1028.91C772.118 1010.71 771.01 991.889 769.216 972.008C767.452 951.888 768.119 938.2 768.998 927.463C769.368 922.944 769.804 918.682 770.268 914.162C770.729 909.696 771.207 905.062 771.605 900.213C772.47 889.647 773.275 874.718 771.812 852.902C769.468 820.404 769.604 785.115 772.19 753.537ZM1244.16 869.662C1248.35 818.483 1229.98 765.655 1191.04 716.87C1165.21 683.625 1135.07 659.326 1103.91 646.597C1071.3 633.196 1035 631.85 1000.62 632.389C977.766 633.123 947.596 633.766 916.78 632.184C909.859 631.837 902.943 631.4 896.034 630.874C862.394 626.751 843.908 624.488 813.99 636.383C784.107 647.507 774.313 714.264 771.135 753.068C768.541 784.746 768.405 820.143 770.755 852.742C772.212 874.418 771.412 889.243 770.552 899.745C770.156 904.577 769.676 909.189 769.216 913.657C768.773 917.98 768.312 922.454 767.94 926.993C767.054 937.816 766.386 951.604 768.164 971.889C769.958 991.736 771.064 1010.54 772.131 1028.73C773.578 1053.37 774.946 1076.65 777.855 1100.35C784.506 1166.13 792.971 1221.02 835.323 1278.37C857.448 1311.4 893.808 1357.34 941.2 1388.43C977.254 1412.37 1014.54 1421.12 1049.04 1413.72C1055.72 1412.48 1062.31 1410.77 1068.76 1408.61C1102.58 1397.56 1131.47 1369.5 1148 1331.62C1166.87 1292.39 1176.84 1248.48 1184.1 1210.7C1187.24 1198.46 1190.19 1185.54 1192.9 1172.33C1204.35 1109.32 1213.2 1056 1219.16 1000.47C1222.3 982.234 1226.11 965.443 1229.78 949.205C1234.24 929.503 1238.46 910.893 1240.79 892.533C1242.4 884.989 1243.53 877.35 1244.16 869.662Z" fill="#A8C4E0" fill-opacity="0.5"/>
<path d="M785.458 751.269C790.582 688.725 804.146 650.142 823.65 642.626C853.28 630.505 870.638 633.261 902.141 638.261C908.819 639.025 915.505 639.72 922.197 640.344C950.382 642.991 977.91 644.231 1003.47 645.174C1034.69 646.819 1070.95 650.455 1102.94 664.904C1132.9 678.356 1161.63 701.856 1186.02 732.873C1222.76 778.432 1239.46 825.149 1235.64 871.736C1234.82 881.685 1233.06 891.534 1230.39 901.153C1227.53 916.182 1223.25 931.365 1218.72 947.439C1213.79 964.92 1208.69 982.997 1204.62 1003.41C1200.23 1035.84 1195.61 1067.76 1190.71 1101.55C1187.46 1123.95 1184.11 1147.1 1180.83 1170.46C1178.67 1183.85 1176.34 1196.72 1173.93 1208.7C1168.03 1249.25 1160.31 1291.88 1143.85 1329.26C1129.03 1366.36 1101.37 1392.99 1068 1402.33C1061.72 1404.15 1055.32 1405.51 1048.84 1406.4C1015.99 1411.87 980.158 1402.71 945.215 1379.93C898.597 1349.88 863.632 1307.12 842.509 1276.54C800.352 1220.82 793.191 1168.65 787.674 1101.02C785.469 1079.17 784.642 1057.69 783.767 1034.95C783.016 1015.48 782.242 995.344 780.54 973.799C779.517 960.483 779.492 948.817 780.452 937.099C781.005 930.348 781.8 924.327 782.643 917.958C783.487 911.59 784.36 904.994 784.965 897.597C786.028 884.633 786.054 871.501 785.042 856.277C782.627 822.254 782.779 783.983 785.458 751.269ZM1236.7 872.208C1240.57 825.044 1223.71 777.817 1186.61 731.839C1162.09 700.645 1133.19 677.004 1103.06 663.474C1070.93 648.961 1034.59 645.318 1003.27 643.664C977.732 642.723 950.216 641.484 922.049 638.841C915.368 638.215 908.695 637.523 902.028 636.762C870.407 631.74 852.981 628.975 823.18 641.167C803.343 648.806 789.568 687.745 784.403 750.799C781.716 783.607 781.563 821.993 783.987 856.116C784.987 871.227 784.966 884.261 783.913 897.129C783.311 904.474 782.44 911.045 781.599 917.398C780.753 923.788 779.951 929.831 779.395 936.629C778.426 948.457 778.455 960.22 779.486 973.655C781.182 995.158 781.958 1015.27 782.707 1034.72C783.583 1057.5 784.412 1079.01 786.618 1100.91C792.167 1168.89 799.375 1221.37 841.851 1277.51C863.035 1308.17 898.138 1351.1 944.95 1381.27C980.094 1404.19 1016.13 1413.39 1049.16 1407.9C1055.67 1407.01 1062.1 1405.65 1068.41 1403.83C1102.02 1394.41 1129.86 1367.58 1144.8 1330.22C1161.31 1292.7 1169.06 1249.95 1174.97 1209.33C1177.38 1197.38 1179.7 1184.49 1181.87 1171.05C1185.15 1147.67 1188.51 1124.52 1191.75 1102.14C1196.65 1068.33 1201.28 1036.41 1205.66 1004.03C1209.71 983.732 1214.79 965.687 1219.71 948.229C1224.26 932.12 1228.55 916.906 1231.4 901.875C1234.1 892.175 1235.87 882.242 1236.7 872.208Z" fill="#A8C4E0" fill-opacity="0.5"/>
</svg>
