<svg xmlns="http://www.w3.org/2000/svg" width="1702" height="1183" fill="none"><g fill="#A8C4E0" opacity=".6"><path d="M-291.052 839.641c-43.667 30.217-71.477 54.506-90.169 78.757-69.405 93.722-16.132 239.702 135.732 371.912 76.68 65.64 167.462 114.14 262.526 140.25 83.365 22.39 183.179 30.5 314.122 25.51 90.006-3.8 182.808-16.89 292.055-41.2 110.47-24.9 186.85-53.38 247.649-92.37 2.739-1.79 5.442-3.6 8.259-5.55 66.726-46.18 151.308-134.96 226.258-237.5 76.18-104.213 127.46-203.038 137.17-264.353 62.14-139.986-21.46-177.025-148-233.099-56.14-24.87-119.757-53.064-184.648-95.423-46.818-30.576-87.946-58.348-124.236-82.853-174.258-117.679-253.785-171.393-427.512-171.294-41.326.718-80.353 13.586-115.977 38.237-28.081 19.431-54.301 46.344-77.933 79.996-21.318 30.615-40.907 63.976-61.644 99.298-27.274 46.456-55.473 94.493-91.458 143.131C-31.955 650.782-91.04 705.213-169.49 759.499c-11.645 8.058-24.067 16.354-36.917 24.658-5.778 3.729-11.519 7.422-17.204 11.082-23.876 15.356-46.426 29.861-67.44 44.402zM880.062 1317.63a363.204 363.204 0 0 1-8.305 5.59c-61.027 39.13-137.627 67.71-248.375 92.67-109.384 24.33-202.313 37.44-292.455 41.26-131.146 4.99-231.134-3.14-314.677-25.58-95.257-26.16-186.196-74.74-262.994-140.49-152.191-132.48-205.492-278.9-135.789-373.02 18.795-24.389 46.719-48.783 90.538-79.104 21.04-14.56 43.602-29.073 67.493-44.439a9238.233 9238.233 0 0 0 17.202-11.079c12.832-8.294 25.237-16.577 36.865-24.624C-92.136 704.633-33.173 650.318 9.832 592.757c35.934-48.58 64.118-96.587 91.379-143.02 20.745-35.341 40.342-68.72 61.693-99.374 23.734-33.798 50.087-60.84 78.329-80.383 35.986-24.901 75.419-37.895 117.218-38.624 84.476-.048 148.305 12.231 213.435 41.072 63.242 27.998 126.875 70.971 214.947 130.446 36.285 24.503 77.409 52.277 124.227 82.845 64.804 42.31 128.39 70.482 184.48 95.337 65.31 28.941 116.91 51.8 145.78 85.622 31.22 36.564 32.05 82.34 2.7 148.429-9.69 61.335-61.04 160.321-137.31 264.673-75.05 102.66-159.777 191.58-226.648 237.85z"/><path d="M867.126 1168.86c6.386-3.89 12.797-8.07 19.661-12.82 15.897-11 31.467-23.15 47.954-36.01 9.425-7.35 19.169-14.96 29.324-22.61 4.467-2.96 8.91-5.97 13.261-8.98 42.914-29.69 82.514-63.26 128.414-108.839a621.724 621.724 0 0 0 27.13-30.19c36.29-37.78 61.23-69.235 80.87-102.03 24.23-37.229 34.88-78.097 30-115.097a160.871 160.871 0 0 0-4.1-21.455c-8.88-37.777-35.4-68.188-76.74-87.945-52.74-25.569-117-33.173-161.62-35.054-72.771-6.532-127.736 12.777-186.988 36.746-26.658 10.058-51.907 21.57-78.633 33.749-13.597 6.198-27.653 12.602-42.276 18.983-24.867 10.939-39.515 20.411-55.017 30.435-13.995 9.052-28.467 18.412-51.686 29.768-27.295 13.184-54.473 28.973-78.588 45.659-59.246 40.996-90.267 80.176-85.117 107.498 5.102 30.875 16.829 48.787 34.581 75.9l2.896 4.424c3.541 6.015 7.112 12.354 10.927 19.399 12.55 23.169 23.888 48.409 36.77 81.849 16.251 40.22 32.274 71.58 57.637 93.87 26.529 23.43 63.797 38.34 110.766 44.33 70.963 10.02 135.45-3.37 186.516-38.7 1.363-.95 2.722-1.9 4.058-2.88zm20.597-12.14c-6.895 4.77-13.339 8.97-19.692 12.84-1.292.94-2.655 1.91-4.029 2.86-51.52 35.65-116.533 49.16-188.016 39.07-47.246-6.03-84.746-21.03-111.451-44.61-25.482-22.4-41.552-53.84-57.847-94.17-12.871-33.41-24.2-58.63-36.731-81.769-3.813-7.038-7.378-13.37-10.908-19.364l-2.889-4.409c-17.8-27.185-29.56-45.146-34.681-76.156-5.22-27.677 26.009-67.233 85.678-108.521 24.201-16.745 51.469-32.588 78.862-45.817 23.099-11.299 37.518-20.624 51.462-29.641 15.579-10.075 30.289-19.587 55.316-30.597 14.607-6.373 28.653-12.775 42.248-18.971 26.763-12.197 52.049-23.719 78.746-33.793 57.309-23.182 114.827-43.461 187.929-36.899 44.73 1.886 109.23 9.519 162.2 35.19 41.59 19.882 68.28 50.482 77.2 88.474a161.91 161.91 0 0 1 4.13 21.533c4.9 37.184-5.81 78.259-30.15 115.657-19.67 32.858-44.67 64.39-81 102.202a618.025 618.025 0 0 1-27.18 30.239c-45.98 45.672-85.66 79.302-128.659 109.052a826.242 826.242 0 0 1-13.246 8.97c-10.1 7.61-19.836 15.21-29.252 22.55-16.508 12.88-32.102 25.04-48.04 36.08z"/><path d="M1264.75 1275.47c1.61-1.07 3.19-2.15 4.8-3.27 63.75-44.11 144.96-129.81 217.2-229.25 73.54-101.188 123.22-197.425 132.91-257.438 60.08-136.147-19.96-173.33-141.11-229.611-52.39-24.339-111.77-51.926-172.33-92.477-44.29-29.468-83.28-56.308-117.69-79.986-166.91-114.867-243.087-167.293-410.649-168.287-43.743.029-85.381 13.507-123.771 40.071-25.745 17.815-50.172 41.632-72.598 70.788-29.155 34.871-55.895 74.014-84.2 115.454-26.596 38.939-54.104 79.207-86.332 120.048-67.474 84.342-154.587 149.781-214.242 191.666l-10.709 7.249c-12.999 8.801-25.28 17.115-37.371 25.481-51.43 35.587-90.755 66.341-115.512 100.769-64.982 91.306-14.059 233.283 129.735 361.693 73.025 66.09 159.626 115.04 250.436 141.55 80.833 23.29 178.056 32.15 305.966 27.88 93.405-2.97 188.93-16.78 300.617-43.45 108.45-26.25 183.76-56.61 244.19-98.42l.66-.46zm5.75-2.58c-1.63 1.12-3.21 2.2-4.82 3.27l-.65.45c-60.65 41.97-136.19 72.43-244.93 98.74-111.837 26.72-207.506 40.55-301.061 43.52-128.114 4.28-225.521-4.6-306.536-27.94-90.991-26.57-177.747-75.6-250.89-141.8C17.509 1120.45-33.44 978.052 31.813 886.361c24.885-34.596 64.327-65.453 115.9-101.14 12.099-8.372 24.385-16.686 37.39-25.492l10.692-7.24c59.556-41.816 146.542-107.156 213.894-191.339 32.194-40.805 59.69-81.053 86.28-119.977 28.32-41.465 55.075-80.632 84.25-115.526 22.508-29.262 47.056-53.192 72.949-71.109 38.753-26.816 80.823-40.433 125.029-40.453 168.085.989 244.373 53.487 411.503 168.512 34.41 23.677 73.4 50.512 117.68 79.981 60.49 40.504 119.83 68.07 172.18 92.388 62.53 29.05 111.92 51.995 139.5 85.399 29.81 36.11 30.45 80.881 2.08 145.153-9.68 60.038-59.44 156.44-133.06 257.752-72.34 99.56-153.69 185.4-217.58 229.62z"/><path d="M669.189 274.606c-23.19 16.046-45.511 36.697-66.345 61.372-39.287 39.671-75.208 85.861-113.238 134.763-23.737 30.521-48.28 62.08-75.151 94.036-66.958 78.279-144.408 141.239-211.341 192.506l-4.057 2.899C135.725 805.416 81.029 844.485 50.45 890.224c-60.746 88.993-12.376 226.966 123.235 351.526 70.272 67.47 150.42 115.48 238.235 142.72 77.189 23.81 174.634 33.61 297.904 29.99 95.524-2.16 196.721-17.19 309.376-45.96 106.53-27.56 182.79-60.81 242.32-105.6l1.4-.96c60.86-42.12 138.83-124.84 208.58-221.27 71.07-98.266 119.33-192.013 129.12-250.776 58.25-132.443-18.2-169.748-133.92-226.217-48.64-23.733-103.76-50.634-159.98-89.308-41.66-28.303-78.46-54.152-110.93-76.955-159.52-112.043-232.32-163.181-393.864-165.125-46.431-.736-91.092 13.501-132.737 42.317zm579.261 999.084c-57.58 39.84-130.35 70.29-229.01 95.81-112.83 28.81-214.19 43.87-309.871 46.04-123.482 3.62-221.117-6.21-298.488-30.07-87.997-27.29-168.302-75.4-238.677-142.97-66.892-61.44-113.822-127.01-135.725-189.61-21.9-62.616-17.606-118.964 12.421-162.948 30.721-45.952 85.529-85.099 148.991-130.429l4.032-2.88c66.837-51.194 144.207-114.087 211.07-192.253 26.841-31.928 51.383-63.481 75.111-93.995 38.058-48.933 74.006-95.158 113.313-134.843 20.887-24.744 43.311-45.486 66.629-61.621 42.033-29.085 87.124-43.452 134.027-42.705 162.045 1.952 234.957 53.162 394.697 165.366 32.46 22.8 69.26 48.647 110.92 76.944 56.16 38.632 111.24 65.516 159.84 89.224 59.73 29.149 106.9 52.167 133.13 85.163 28.36 35.67 28.74 79.46 1.23 141.988-9.77 58.787-58.11 152.692-129.27 251.089-69.83 96.56-147.95 179.42-208.96 221.63l-1.37.94c-4.54 3.42-9.27 6.83-14.04 10.13z"/><path d="M682.727 295.034c-20.241 14.006-39.975 31.327-58.642 51.475-52.175 44.99-99.595 99.79-149.802 157.81-17.998 20.803-36.611 42.313-55.953 63.962-71.348 78.314-150.321 144.611-207.981 193.021-57.742 43.652-112.25 84.853-141.423 132.157-27.764 42.638-31.505 97.096-10.83 157.501 20.72 60.53 64.94 124.02 127.876 183.59 66.464 67.91 142.494 116.32 225.983 143.89 74.567 24.68 169.295 35.24 289.592 32.28 98.816-1.32 202.749-17.09 317.743-48.23 90.13-24.72 157.57-53.85 212.25-91.69 9.37-6.48 18.52-13.34 27.17-20.38 57.94-40.75 132.13-120.37 198.51-213.04 68.82-96.059 113.96-184.39 123.83-242.346 56.23-128.618-16.6-166.096-126.84-222.824-44.87-23.092-95.74-49.266-147.61-86.034-38.98-27.078-73.53-51.896-104.01-73.789-152.18-109.298-221.629-159.183-377.046-162.178-49.398-1.653-97.447 13.432-142.817 44.825zm549.753 976.456c-54.88 37.97-122.53 67.2-212.91 91.99-115.194 31.19-219.306 46.99-318.3 48.31-120.505 2.96-215.429-7.62-290.178-32.36-83.672-27.63-159.85-76.13-226.413-144.14-63.019-59.65-107.307-123.24-128.063-183.88-20.752-60.635-16.97-115.339 10.941-158.204 29.298-47.509 83.921-88.799 141.75-132.514C266.9 712.34 345.818 646.081 417.097 567.85c19.326-21.632 37.934-43.139 55.934-63.941 50.24-58.059 97.701-112.903 149.892-157.904 18.69-20.175 38.513-37.575 58.862-51.655 45.762-31.665 94.255-46.879 144.129-45.215 155.904 3.012 225.466 52.967 377.866 162.424 30.47 21.895 65.02 46.706 103.99 73.785 51.83 36.725 102.65 62.878 147.49 85.955 56.89 29.28 101.83 52.403 126.73 84.994 26.93 35.233 27.09 78.028.54 138.745-9.87 57.988-55.07 146.473-123.98 242.662-66.47 92.78-140.81 172.54-198.83 213.36a448.478 448.478 0 0 1-27.24 20.43z"/><path d="M693.981 314.749c-16.882 11.681-33.512 25.528-49.448 41.171-68.807 51.074-130.736 116.806-196.285 186.386-8.9 9.449-17.877 18.981-26.976 28.582-56.138 57.999-112.529 109.418-162.282 154.783-14.969 13.646-29.103 26.538-42.515 38.948-58.184 46.763-104.7 86.113-130.322 131.516-25.684 41.581-28.902 94.48-9.32 152.985 19.63 58.65 61.28 120.25 120.453 178.13 62.748 68.46 134.764 117.33 214.073 145.27 72.007 25.59 164.136 36.92 281.645 34.64 100.809-.43 210.641-17.42 326.466-50.5 82.53-23.85 145.09-51.65 196.87-87.48 14.01-9.7 27.42-20.17 39.89-31.14 55.06-39.85 125.3-116.48 187.94-205.05 65.15-92.114 108.13-177.127 117.9-233.234 54.24-124.988-15.07-162.74-119.98-219.879-41.19-22.434-87.88-47.862-135.5-82.73-36.28-25.842-68.58-49.61-97.07-70.587-145.14-106.808-211.377-155.552-360.919-159.653-52.81-2.71-104.821 13.385-154.62 47.842zm523.309 955.111c-51.98 35.97-114.74 63.86-197.51 87.78-116.033 33.14-226.077 50.16-327.066 50.59-117.721 2.29-210.048-9.07-282.247-34.73-79.483-28.01-151.651-76.97-214.49-145.53-59.245-57.95-100.962-119.65-120.624-178.41-19.656-58.723-16.402-111.857 9.416-153.649 25.724-45.586 72.345-85.034 130.615-131.86 13.368-12.374 27.504-25.268 42.476-38.918 49.736-45.348 106.107-96.75 162.209-154.709 9.085-9.592 18.066-19.124 26.964-28.569 65.602-69.636 127.575-135.416 196.422-186.509 15.902-15.628 32.621-29.545 49.583-41.282 50.202-34.736 102.67-50.959 155.955-48.226 150.026 4.109 216.357 52.933 361.707 159.907 28.5 20.968 60.8 44.739 97.07 70.576 47.59 34.83 94.23 60.243 135.39 82.654 54.15 29.493 96.91 52.789 120.52 85.045 25.52 34.873 25.49 76.737-.13 135.743-9.77 56.142-52.81 141.292-118.05 233.537-62.73 88.69-133.09 165.45-188.23 205.35-12.44 10.96-25.92 21.48-39.98 31.21z"/><path d="M644.859 380.642c-74.987 51.885-143.647 118.41-219.224 193.679-31.349 30.517-61.561 59.131-90.78 86.8-40.941 38.771-79.608 75.397-111.123 107.726-51.087 43.86-95.296 83.952-119.415 130.924-23.68 40.528-26.484 91.833-8.121 148.389 18.408 56.71 57.346 116.33 112.601 172.42 58.82 68.93 126.694 118.16 201.748 146.34 69.321 26.42 158.772 38.43 273.463 36.7 104.123.34 216.862-17.51 335.112-53.06 74.52-22.67 134.15-49.89 182.28-83.2 18.54-12.82 36.01-27 51.93-42.14 105.76-78.94 268.48-301.599 290.07-421.228 52.48-121.389-13.19-159.371-112.59-216.869-37.45-21.655-79.89-46.204-123.17-79.047-33.44-24.476-63.36-47.102-89.77-67.059-137.86-104.221-200.78-151.791-344.444-156.827-56.618-3.904-113.243 13.449-168.324 51.56-12.981 8.982-25.899 19.181-38.4 30.308a798.227 798.227 0 0 0-21.843 14.584zm557.491 887.408c-48.32 33.43-108.15 60.74-182.9 83.48-118.465 35.62-231.429 53.51-335.745 53.16-114.911 1.73-204.568-10.3-274.077-36.8-75.239-28.25-143.253-77.58-202.156-146.6-55.319-56.15-94.319-115.87-112.763-172.69-18.428-56.765-15.59-108.297 8.204-149.022 24.209-47.148 68.524-87.338 119.676-131.252 31.485-32.304 70.169-68.937 111.115-107.72 29.218-27.67 59.421-56.277 90.756-86.779 75.633-75.318 144.351-141.899 219.46-193.868a768.567 768.567 0 0 1 21.786-14.536c12.437-11.091 25.417-21.333 38.456-30.355 55.503-38.403 112.589-55.882 169.685-51.949 69.584 2.441 122.149 14.979 175.733 41.929 51.29 25.788 100.88 63.27 169.5 115.153 26.4 19.958 56.33 42.579 89.76 67.06 43.24 32.803 85.65 57.336 123.08 78.983 51.29 29.675 91.82 53.109 114.04 85.012 24.03 34.5 23.7 75.435-1.08 132.741-9.79 54.268-50.81 136.086-112.54 224.383-59.13 84.59-125.65 158.39-177.93 197.42-15.91 15.13-33.45 29.37-52.06 42.25z"/><path d="M616.836 419.685c-70.357 48.68-134.717 106.938-188.393 157.504-72.9 67.077-148.283 137.392-198.61 195.131-51.881 47.919-88.058 86.386-108.249 130.225-44.197 80.775-6.433 199.815 98.538 310.685 55.022 69.5 118.859 119.17 189.76 147.66 66.666 27.34 153.472 40.11 265.398 39.05 105.929 1.22 224.762-17.89 343.67-55.28 68.24-21.7 123.35-47.44 168.49-78.66 23.15-16.02 43.73-33.41 62.93-53.16 49.33-38.09 111.73-108.74 167.01-189.07 57.95-84.193 96.73-162.512 106.41-214.873 50.5-117.821-11.61-156.178-105.63-214.244-33.77-20.851-72.04-44.486-111.08-75.281-30.57-23.08-58.11-44.524-82.4-63.45-126.96-98.844-190.68-148.46-328.578-154.609-60.12-5.284-123.814 14.025-184.226 55.824a428.177 428.177 0 0 0-24.992 18.703c-23.07 12.894-46.591 27.614-70.048 43.845zm571.544 846.995c-45.31 31.35-100.61 57.17-169.07 78.94-119.138 37.46-238.214 56.62-344.347 55.39-112.146 1.06-199.177-11.75-266.024-39.16-71.082-28.57-135.059-78.33-190.159-147.93-105.173-111.09-142.969-230.474-98.617-311.537 22.451-48.744 65.9-91.212 108.478-130.531 50.324-57.739 125.737-128.086 198.664-195.191C481.02 526.06 545.434 467.753 615.894 419c23.503-16.261 47.086-31.018 70.077-43.852a419.801 419.801 0 0 1 24.961-18.696c60.842-42.097 125.027-61.533 185.617-56.206 138.361 6.173 202.181 55.869 329.341 154.877 24.29 18.918 51.83 40.358 82.41 63.44 38.99 30.765 77.24 54.387 110.98 75.226 48.53 29.968 86.86 53.635 107.77 85.256 22.61 34.186 22.06 74.236-1.79 129.865-9.67 52.387-48.51 130.846-106.54 215.16-55.36 80.43-117.88 151.21-167.25 189.32-19.18 19.75-39.85 37.2-63.09 53.29z"/><path d="M582.788 459.226c-47.291 32.72-96.816 72.296-151.396 120.987-90.94 79.205-154.888 143.274-195.509 195.877-44.988 45.022-78.702 84.256-97.198 129.613-39.886 78.45-4.449 193.647 92.47 300.667 51.178 70.1 110.984 120.21 177.785 148.97 63.982 28.25 148.19 41.77 257.425 41.35 138.024 2.65 267.816-29.86 352.395-57.61 62.64-20.76 113.63-45.07 155.89-74.31 27.26-18.86 51.1-39.83 72.9-64.1 94.6-75.79 236.22-276.971 257.12-386.9 48.63-114.41-9.93-153.221-98.58-211.965-30.11-19.95-64.23-42.563-99.02-71.235-27.63-21.581-52.71-41.761-74.83-59.566-120.3-96.802-180.68-145.39-312.974-152.632-65.091-6.965-135.279 14.13-203.027 61.005a460.979 460.979 0 0 0-8.841 6.275c-41.474 20.183-82.187 44.221-124.61 73.574zm592.802 806.224c-42.42 29.36-93.6 53.75-156.44 74.59-84.753 27.8-214.808 60.37-353.114 57.71-109.469.43-193.891-13.13-258.072-41.47-66.973-28.83-126.923-79.04-178.166-149.24-97.099-107.22-132.571-222.753-92.55-301.463 18.55-45.492 52.353-84.836 97.393-129.906 40.622-52.61 104.637-116.747 195.64-196.008 54.63-48.734 104.21-88.356 151.566-121.122 42.509-29.413 83.309-53.499 124.729-73.642a389.295 389.295 0 0 1 8.721-6.207c68.182-47.175 138.879-68.403 204.437-61.381 132.746 7.264 193.236 55.932 313.726 152.896 22.13 17.802 47.2 37.981 74.83 59.572 34.77 28.643 68.87 51.241 98.95 71.179 88.98 58.961 147.76 97.918 98.91 212.821-20.91 110.036-162.78 311.571-257.46 387.411-21.79 24.27-45.73 45.33-73.1 64.26z"/><path d="M547.847 497.113c-37.072 25.649-73.858 53.98-112.445 86.595-89.438 73.823-154.265 140.003-192.684 196.71-34.356 37.546-68.546 79.106-86.344 129.032-35.717 76.143-2.81 187.43 85.864 290.46 47.825 71.66 101.947 120.74 165.5 150.08 61.204 29.1 142.75 43.29 249.306 43.4 110.928 2.85 239.163-18.53 361.106-60.21 57.64-19.89 104.9-42.88 144.49-70.27 31.1-21.52 57.87-46.01 81.85-74.88 88.89-74.13 220.3-263.112 241.39-369.941 46.98-111.095-7.95-150.395-91.1-209.885-26.42-18.895-56.35-40.315-86.85-66.71-24.55-19.947-47.05-38.723-66.89-55.298-113.52-94.811-170.5-142.399-297.272-150.636-84.937-10.698-163.542 26.825-214.541 60.182l-.168.091c-60.646 25.744-119.923 58.874-181.212 101.28zm615.723 766.477c-39.74 27.5-87.17 50.57-145 70.54-122.204 41.76-250.713 63.19-361.869 60.33-106.802-.1-188.569-14.34-249.971-43.54-63.717-29.42-117.979-78.6-165.861-150.36-88.834-103.22-121.777-214.813-85.948-291.2 17.847-50.061 52.126-91.734 86.511-129.304 38.435-56.74 103.353-123.022 192.894-196.929 38.626-32.648 75.452-61.006 112.582-86.696 61.379-42.468 120.748-75.653 181.499-101.45 51.307-33.55 130.381-71.248 215.865-60.485 127.208 8.268 184.288 55.94 298.008 150.913 19.84 16.57 42.33 35.354 66.9 55.297 30.47 26.385 60.38 47.785 86.79 66.669 83.44 59.711 138.57 99.153 91.39 210.728-21.11 106.931-152.75 296.237-241.7 370.417-23.97 28.87-50.85 53.46-82.09 75.07z"/><path d="M513.554 529.89c-25.32 17.519-50.834 36.576-75.844 56.643-89.515 70.162-155.04 138.429-189.509 197.427-40.193 48.567-62.676 86.951-75.237 128.422-15.458 36.351-16.307 81.372-2.464 130.238 13.927 49.17 42.428 101.13 82.427 150.27 43.89 72.36 94.129 121.89 153.629 151.46 58.476 30.04 137.435 45.01 241.388 45.76 114.233 3.77 245.566-18.41 369.846-62.44 53.16-19.02 97.02-40.72 134.08-66.37 34.65-23.97 63.95-51.88 89.59-85.34 83.91-73.21 204.12-250.358 224.92-352.897 45.14-107.931-6.28-147.936-84.1-208.492-22.79-17.732-48.62-37.827-74.91-61.862-21.44-18.195-40.44-34.741-58.82-50.739-107.1-93.24-160.86-140.042-282.328-149.459-83.848-12.271-164.38 21.988-217.179 52.883l-.176.084c-79.157 29.289-158.328 71.146-235.313 124.412zm639.256 732.1c-37.21 25.74-81.23 47.53-134.58 66.61-124.543 44.13-256.169 66.36-370.64 62.59-104.206-.77-183.398-15.79-242.074-45.92-59.667-29.66-110.035-79.3-153.978-151.76-40.028-49.17-68.577-101.22-82.525-150.48-13.891-49.025-13.028-94.223 2.488-130.704 12.584-41.562 35.129-80.056 75.369-128.668 34.495-59.059 100.147-127.463 189.802-197.739 25.033-20.083 50.586-39.167 75.943-56.711 77.095-53.342 156.394-95.271 235.694-124.627 53.107-31.062 134.087-65.473 218.439-53.124 121.902 9.447 175.762 56.333 283.062 149.74 18.37 15.999 37.37 32.54 58.82 50.746 26.28 24.021 52.09 44.104 74.87 61.826 78.1 60.768 129.69 100.917 84.36 209.305-9.5 46.838-42.06 115.341-89.31 187.856-44.37 68.1-95.17 129.97-135.9 165.49-25.62 33.47-55.04 61.49-89.84 85.57z"/><path d="M485.878 556.934a1207.624 1207.624 0 0 0-44.605 32.41c-91.637 68.29-156.117 136.815-186.486 198.179-33.765 45.689-53.563 85.08-64.243 127.807-27.612 72.68-.05 173.75 73.72 270.41 39.814 73.03 86.101 122.96 141.541 152.7 55.672 30.93 131.998 46.62 233.347 47.97 117.491 4.63 251.911-18.41 378.528-64.86 49.18-18.2 89.97-38.73 124.73-62.78 37.96-26.27 69.48-57.52 96.36-95.55 77.12-70.72 188.55-239.507 208.79-335.857 43.45-104.937-4.39-145.78-76.82-207.588-19.15-16.345-40.86-34.867-62.91-56.338-18.2-16.246-34.55-31.175-50.35-45.613-97.46-88.987-151.15-138.006-267.455-148.571-82.671-13.789-165.16 17.229-219.813 45.68-98.349 31.718-193.955 79.469-284.334 142.001zm657.472 702.516c-34.9 24.15-75.85 44.77-125.2 63.03-126.897 46.55-261.619 69.63-379.363 65-101.615-1.35-178.185-17.1-234.053-48.15-55.6-29.81-102.011-79.86-141.874-152.99-73.887-96.81-101.488-198.149-73.794-271.026 10.694-42.805 30.549-82.308 64.348-128.032 30.402-61.452 95.034-130.149 186.853-198.574a1207.54 1207.54 0 0 1 44.67-32.457c90.547-62.649 186.338-110.491 284.728-142.208 54.78-28.53 137.748-59.718 220.92-45.844 116.735 10.603 170.515 59.713 268.165 148.867 15.8 14.436 32.15 29.361 50.36 45.627 22.04 21.458 43.73 39.969 62.88 56.303 72.67 62.027 120.69 103.005 77.05 208.382-9.59 45.644-39.28 109.148-83.58 178.742-40.72 63.95-87.62 122.84-125.46 157.52-26.88 38.06-58.52 69.43-96.65 95.81z"/><path d="M463.362 579.24a1070.845 1070.845 0 0 0-19.156 13.568c-94.092 66.75-157.487 135.49-183.327 198.791-27.624 42.6-44.512 82.961-53.201 127.11-23.334 70.376 1.9 167.611 67.488 260.151 36.174 74.73 77.283 123.6 129.401 153.85 52.801 31.83 126.451 48.24 225.168 50.17 118.932 5.42 259.962-19.07 386.965-67.2 45.57-17.41 83.58-36.85 116.22-59.43 41.59-28.78 74.04-62.27 102.12-105.4 70.74-68.59 172.31-225.916 192.47-318.597 41.82-102.148-2.47-144.021-69.5-207.408-15.52-14.675-33.1-31.304-50.91-49.94-14.85-14.066-28.41-27.146-41.52-39.799-91.22-88.025-141.47-136.516-252.79-148.295-81.389-15.289-165.803 12.466-222.298 38.437-114.986 32.209-228.057 85.444-327.13 153.992zm670.498 677.69c-32.77 22.68-70.93 42.2-116.68 59.67-127.278 48.24-268.639 72.78-387.833 67.35-98.985-1.94-172.882-18.41-225.885-50.36-52.278-30.34-93.5-79.33-129.712-154.15-65.686-92.68-90.955-190.156-67.558-260.709 8.694-44.213 25.629-84.681 53.281-127.305 25.885-63.428 89.446-132.371 183.763-199.281a1081.131 1081.131 0 0 1 19.188-13.587c99.268-68.682 212.55-122.014 327.609-154.228 56.623-26.052 141.501-53.946 223.347-38.57 111.74 11.825 162.09 60.407 253.49 148.605 13.1 12.65 26.66 25.733 41.53 39.805 17.81 18.637 35.39 35.262 50.89 49.926 34.65 32.766 62.02 58.643 76.17 89.798 15.27 33.638 13.28 70.146-6.47 118.374-9.51 43.728-37.14 103.949-77.78 169.502-37.04 59.75-80 115.63-114.91 149.46-28.08 43.17-60.66 76.8-102.44 105.7z"/><path d="M438.834 600.641c-92.285 63.852-151.866 130.989-172.293 194.157-22.411 40.376-35.383 79.374-42.091 126.531-19.039 68.217 3.988 161.741 61.585 250.241 32.041 75.55 69.393 124.86 117.566 155.24 49.3 32.33 122.4 50 217.3 52.54 122.213 6.35 266.449-18.95 395.749-69.43 42.39-16.67 77.92-35.11 108.63-56.36 44.54-30.81 78.56-67.37 107.06-115.05 66.62-68.83 156.01-212.369 176.07-301.632 40.26-99.814 1.59-140.803-62.48-208.714-12.5-13.248-25.41-26.94-39.02-42.412-11.43-11.595-22.07-22.551-32.37-33.139-85.23-87.737-132.19-136.063-238.97-149.216-80.158-16.829-166.595 7.643-225.007 31.131-131.821 31.88-257.585 87.443-363.854 160.725a1019.984 1019.984 0 0 0-7.875 5.388zm687.386 653.609c-30.84 21.34-66.52 39.85-109.06 56.58-129.593 50.59-274.168 75.95-396.653 69.58-95.178-2.54-168.548-20.29-218.045-52.74-48.327-30.48-85.781-79.91-117.86-155.55-57.677-88.61-80.733-182.361-61.65-250.727 6.712-47.215 19.716-86.309 42.148-126.705 20.47-63.325 80.233-130.692 172.791-194.732a850.702 850.702 0 0 1 7.888-5.391c106.473-73.426 232.489-129.098 364.418-160.992 58.542-23.555 145.415-48.139 225.993-31.219 107.2 13.201 154.25 61.629 239.67 149.534 10.29 10.596 20.93 21.545 32.37 33.154 13.61 15.483 26.53 29.167 39.01 42.408 32.01 33.931 57.29 60.731 70.12 92.209 13.84 33.943 11.54 70.098-7.48 117.24-9.4 41.856-34.93 98.857-71.89 160.432-33.35 55.579-72.37 108.489-104.36 141.519-28.51 47.74-62.67 84.45-107.41 115.4z"/><path d="M428.733 612.081c-87.264 60.376-141.277 124.812-156.201 186.338-17.102 37.114-26.703 75.949-31.156 126.001-14.862 66.175 5.826 155.99 55.333 240.3 28.119 77.43 60.647 125.7 105.514 156.56 46.458 33.24 116.9 51.65 209.387 54.75 125.509 7.21 273.01-19 404.71-71.94 39.54-16 72.86-33.53 101.85-53.59 47.39-32.79 82.8-72.38 111.44-124.58 59.78-66.34 140.19-199.536 160.12-284.812 39.03-98.082 3.54-140.891-55.24-211.821-8.66-10.458-17.63-21.273-26.98-33.027-7.89-8.694-15.42-17.086-22.68-25.158-79.17-88.138-122.79-136.684-225.46-151.272-78.846-18.289-167.385 2.946-227.782 23.973-140.776 29.29-272.717 82.584-381.727 154.168a782.96 782.96 0 0 0-21.128 14.11zm690.377 639.099c-29.12 20.15-62.57 37.75-102.26 53.81-132.007 53.06-279.854 79.34-405.647 72.1-92.776-3.1-163.496-21.6-210.153-54.97-45.013-30.97-77.639-79.35-105.792-156.88-49.563-84.41-70.281-174.415-55.386-240.715 4.45-50.099 14.076-89.02 31.197-126.149 14.958-61.711 69.163-126.395 156.724-186.978a789.208 789.208 0 0 1 21.18-14.145c109.214-71.722 241.431-125.127 382.332-154.428 60.534-21.09 149.487-42.411 228.715-24.032 103.1 14.639 146.8 63.291 226.14 151.609 7.26 8.073 14.79 16.463 22.69 25.177 9.37 11.77 18.33 22.582 27 33.035 29.41 35.504 52.65 63.535 64.13 95.594 12.36 34.536 9.66 70.594-8.77 116.919-19.95 85.352-100.49 218.773-160.28 285.103-28.66 52.27-64.22 92.02-111.82 124.95z"/><path d="M421.467 621.547c-83.48 57.759-132.831 120.203-142.717 180.586-14.46 39.72-18.506 78.83-20.132 125.357-10.815 65.211 7.105 149.09 49.154 230.19 15.962 52.71 40.989 118.22 93.457 157.79 43.563 34.13 111.298 53.29 201.324 56.96 126.817 7.99 281.317-19.78 413.307-74.3 36.94-15.35 68.22-32.02 95.61-50.98 50.75-35.11 86.24-76.36 115.05-133.76 53.86-64.93 124.49-187.933 143.88-267.713 38.03-97.179 5.54-142.556-48.28-217.739-4.75-6.65-9.67-13.519-14.72-20.667-4.24-5.19-8.39-10.286-12.45-15.259-70.65-86.641-113.29-138.933-212.37-155.176-77.42-19.724-167.996-1.778-230.364 16.749-147.305 26.111-289.036 78.449-399.212 147.394-10.925 6.728-21.536 13.649-31.537 20.568zm690.943 626.283c-27.51 19.04-58.91 35.79-96 51.2-61.886 25.56-130.746 45.97-199.157 59.02-75.81 14.47-148.182 19.67-215.114 15.45-90.346-3.68-158.356-22.94-202.119-57.22-52.655-39.71-77.742-105.36-93.713-158.12-42.092-81.17-60.031-165.21-49.201-230.521 1.626-46.556 5.679-85.736 20.16-125.483 9.913-60.595 59.458-123.31 143.261-181.292 10.027-6.938 20.669-13.878 31.619-20.623 54.934-34.379 117.033-64.509 184.568-89.546 68.426-25.374 140.865-44.924 215.306-58.116 62.499-18.574 153.48-36.59 231.25-16.773 99.5 16.307 142.24 68.712 213.04 155.535 4.05 4.981 8.2 10.068 12.46 15.278 5.06 7.175 9.99 14.042 14.74 20.686 53.96 75.378 86.53 120.879 48.37 218.391-19.42 79.857-90.15 203.044-144.02 267.964-28.84 57.49-64.47 98.9-115.45 134.17z"/><path d="M415.772 629.942c-80.582 55.754-125.934 116.728-131.15 176.324-10.753 40.493-9.98 81.394-9.159 124.696-6.561 63.59 9.079 143.778 42.909 220.048 13.72 56.59 34.099 119.68 81.344 158.96 40.623 35.02 105.631 54.92 193.22 59.14 129.948 8.86 287.642-19.82 421.854-76.71 34.57-14.73 63.99-30.62 89.92-48.56 53.36-36.92 89.8-80.95 118.12-142.75 47.57-63.18 108.32-174.129 127.72-250.598 37.59-97.901 7.66-147.231-41.92-228.964l-1.8-2.966-1.65-2.305c-64.49-89.705-103.4-143.855-199.79-162.062-75.89-21.113-168.537-6.458-232.903 9.55-155.697 23.277-303.628 73.229-416.659 140.67-14.083 8.293-27.557 16.88-40.056 25.527zm689.878 614.578c-26.05 18.02-55.58 33.97-90.3 48.77-134.52 57.02-292.595 85.76-422.845 76.89-87.923-4.25-153.207-24.24-194.034-59.43-47.422-39.42-67.845-102.65-81.58-159.3-33.855-76.32-49.511-156.632-42.942-220.3-.823-43.309-1.599-84.26 9.169-124.792 5.232-59.842 50.783-121.103 131.714-177.099 12.537-8.674 26.053-17.287 40.176-25.601 113.265-67.586 261.493-117.637 417.365-140.935 64.504-16.048 157.527-30.755 233.747-9.553 96.81 18.288 135.82 72.556 200.43 162.457l1.68 2.33 1.81 2.991c49.7 81.919 79.69 131.36 41.98 229.559-19.42 76.544-80.24 187.653-127.82 250.823-28.36 61.9-64.94 106.1-118.55 143.19z"/><path d="M411.569 636.135c-78.264 54.149-120.027 114.003-120.784 173.095-5.431 33.142-2.662 67.105.264 103.06a2850.86 2850.86 0 0 1 1.655 20.987c-2.194 62.771 11.239 139.293 36.86 209.963 10.484 57.26 26.911 121.01 69.388 160.2 37.7 35.93 100.008 56.59 185.203 61.41 133.104 9.79 293.995-19.73 430.385-78.95 32.42-14.14 60.12-29.28 84.69-46.28 55.89-38.66 93.08-85.4 120.6-151.53 40.75-60.82 92.07-160.493 111.37-233.496 35.18-93.83 14.15-147.787-24.65-225.51-51.77-85.378-88.09-138.725-178.24-158.427-74.35-22.497-169.08-11.182-235.47 2.268-163.982 20.297-318.088 67.805-434.035 133.795-16.842 9.483-32.734 19.381-47.236 29.415zm688.601 604.175c-24.68 17.07-52.49 32.27-85.04 46.48-136.725 59.35-297.996 88.93-431.416 79.13-85.546-4.84-148.145-25.61-186.04-61.73-42.639-39.34-59.108-103.23-69.603-160.55-25.632-70.7-39.082-147.307-36.882-210.131a2790.97 2790.97 0 0 0-1.654-20.939c-2.931-36.003-5.698-70.006-.264-103.183.364-28.512 10.479-57.628 30.066-86.487 20.62-30.378 51.335-59.8 91.293-87.447 14.552-10.068 30.495-19.995 47.388-29.511 116.19-66.131 270.598-113.737 434.784-134.057 66.534-13.481 161.628-24.828 236.268-2.243 90.58 19.791 127 73.272 178.91 158.886 38.9 77.915 59.97 132.001 24.7 226.09-19.32 73.058-70.7 172.862-111.45 233.662-27.57 66.27-64.92 113.18-121.06 152.03z"/><path d="M408.536 642.732c-76.492 52.923-115.107 111.987-111.661 170.799-1.706 28.017 2.755 56.567 7.477 86.796 1.844 11.814 3.752 24.033 5.371 36.67 1.726 46.374 8.43 118.683 30.585 199.973 7.477 60.89 19.586 122.56 57.288 161.49 34.719 36.84 94.347 58.24 177.217 63.6 136.33 10.64 300.533-19.81 439.257-81.49 30.06-13.42 56.98-28.3 80-44.23 58.41-40.41 96.31-89.85 122.9-160.31 31.12-53.47 74.73-142.217 95.37-216.588 32.15-87.98 22.93-144.912-5.34-219.209-40.7-85.414-75.85-132.452-154.97-152.462-72.75-23.796-169.661-15.788-238.162-4.877-172.285 17.36-332.715 62.548-451.81 127.254-19.343 10.43-37.349 21.394-53.522 32.584zm686.474 594.288c-23.13 16.01-50.16 30.95-80.34 44.42-64.349 28.61-137.293 51.4-210.945 65.92-80.058 15.78-159.375 21.23-229.364 15.76-83.245-5.38-143.163-26.9-178.08-63.94-37.845-39.08-49.989-100.89-57.472-161.85-22.165-81.31-28.873-153.674-30.598-200.054-1.616-12.597-3.524-24.809-5.365-36.62-4.729-30.264-9.196-58.85-7.488-86.903-1.662-28.378 6.644-57.237 24.701-85.733 19.016-30.015 48.466-58.938 87.537-85.971 16.234-11.232 34.304-22.231 53.707-32.697 119.351-64.846 280.084-110.126 452.601-127.509 68.658-10.933 165.906-18.963 238.926 4.93 39.26 9.92 69.36 27.269 94.69 54.579 25.43 27.438 44.32 63.499 60.94 98.385 28.34 74.485 37.58 131.549 5.35 219.729-20.65 74.416-64.3 163.254-95.42 216.704-26.63 70.62-64.7 120.26-123.38 160.85z"/><path d="M405.856 647.888c-74.941 51.85-110.561 110.252-103.007 168.895 1.094 24.191 7.022 48.801 13.295 74.854 3.698 15.36 7.527 31.246 10.58 47.927 1.342 11.536 2.671 23.598 4.05 36.119 5.131 46.587 10.95 99.387 20.43 153.737 4.529 71.22 13.964 126.12 45.287 162.66 31.728 37.74 88.636 59.88 169.146 65.82 137.364 11.39 308.904-20.7 447.683-83.76 28.26-12.89 53.69-27.1 75.56-42.23 61.63-42.64 98.89-93.12 124.59-168.78 12.33-25.38 54.39-114.602 79.08-199.458 27.87-78.853 31.86-140.481 13.77-212.747-20.25-61.86-50.23-122.432-131.72-146.444-56.25-19.842-139.45-24.032-240.653-12.126-180.344 14.282-346.927 57.048-469.084 120.414-21.596 11.156-41.448 22.97-59.007 35.119zm683.964 584.702c-21.97 15.21-47.5 29.47-75.88 42.41-65.14 29.6-139.402 53.16-214.766 68.15-81.786 16.26-162.703 21.72-234.005 15.81-80.899-5.97-138.106-28.24-170.019-66.2-31.458-36.69-40.919-91.71-45.457-163.04-9.479-54.33-15.297-107.14-20.429-153.739-1.38-12.518-2.711-24.578-4.046-36.09-3.05-16.64-6.873-32.516-10.569-47.869-6.279-26.089-12.213-50.729-13.312-74.957-3.647-28.298 2.923-56.957 19.529-85.164 17.493-29.717 45.772-58.211 84.051-84.696 17.628-12.196 37.556-24.057 59.228-35.252C586.563 548.452 753.45 505.6 934.049 491.3c101.461-11.937 184.961-7.726 241.401 12.192 35.79 10.547 63.74 28.29 85.38 54.24 18.66 22.369 33.59 51.849 46.98 92.779 18.13 72.442 14.13 134.195-13.78 213.188-24.7 84.894-66.8 174.181-79.11 199.521-25.77 75.86-63.18 126.54-125.1 169.37z"/><path d="M403.705 652.724c-72.664 50.275-106.415 109.797-95.035 167.602 3.271 21.231 10.433 42.83 18.017 65.7 5.98 18.04 12.169 36.698 16.901 56.519 9.81 48.694 13.55 106.075 17.515 166.825l.855 13.09c.276 60.85 3.08 123.63 33.318 163.99 28.734 38.66 82.981 61.57 161.235 68.08 140.567 12.31 315.502-20.69 456.539-86.13 26.64-12.39 50.71-25.98 71.53-40.39 80.56-55.74 108.95-120.9 126.09-177.3 13.25-34.71 39.04-104.543 62.89-182.525 21.69-63.916 40.69-133.155 32.92-206.494-11.31-74.209-45.82-118.873-108.6-140.546-55.69-21.123-137.56-27.638-243.368-19.374C766.01 512.952 593.127 553.335 467.7 615.478c-23.707 11.736-45.236 24.267-63.995 37.246zm681.815 575.966c-20.92 14.47-45.08 28.12-71.83 40.57-141.383 65.59-316.746 98.68-457.662 86.33-78.661-6.54-133.213-29.59-162.127-68.5-30.367-40.53-33.181-103.43-33.461-164.38l-.854-13.07c-3.957-60.73-7.7-118.084-17.499-166.723-4.72-19.783-10.903-38.425-16.883-56.451-7.588-22.899-14.761-44.525-18.038-65.798-5.571-28.299-.655-56.858 14.61-84.877 16.09-29.524 43.336-57.702 80.987-83.751 18.835-13.032 40.456-25.615 64.25-37.395 125.696-62.271 298.892-102.738 487.67-113.94 106.067-8.282 188.207-1.736 244.097 19.462 63.13 21.803 97.84 66.674 109.21 141.214 7.78 73.495-11.23 142.836-32.95 206.826-23.86 77.995-49.66 147.843-62.9 182.543-17.19 56.55-45.68 121.94-126.62 177.94z"/><path d="M402.118 657.163c-71.626 49.556-102.68 108.727-87.443 166.614 5 18.821 13.194 37.992 21.866 58.287 8.616 20.15 17.522 40.987 24.105 63.343 12.768 43.377 16.439 94.203 12.273 169.933-3.477 64.25-4.456 125.23 21.368 165.27 25.723 39.58 77.296 63.25 153.299 70.35 143.739 13.24 322.02-20.65 465.274-88.45 25.12-11.92 47.92-24.92 67.75-38.64 83.58-57.82 111.22-126.3 127.24-185.66 2.6-9.66 5.22-19.57 7.89-29.71 10.69-40.454 22.8-86.3 38.78-135.838 3.78-11.733 7.84-23.845 11.78-35.561 18.35-54.718 37.33-111.294 40.26-164.633 3.42-62.879-26.93-110.686-85.47-134.611-54.28-22.067-137.05-31.031-246.017-26.639-196.567 8.04-375.707 46.014-504.431 106.935-25.676 12.189-48.731 25.315-68.524 39.01zm679.432 567.387c-19.92 13.79-42.81 26.84-68.04 38.81-143.6 67.96-322.321 101.93-466.422 88.66-76.43-7.14-128.31-30.96-154.201-70.81-25.936-40.22-24.965-101.33-21.481-165.69 4.158-75.65.498-126.399-12.25-169.695-6.57-22.318-15.467-43.136-24.073-63.269-8.685-20.318-16.887-39.51-21.898-58.383-7.459-28.342-4.148-56.845 9.844-84.728 14.753-29.377 41.042-57.292 78.149-82.965 19.882-13.757 43.037-26.937 68.812-39.178 64.098-30.334 140.954-55.081 228.445-73.558 86.788-18.327 179.936-29.626 276.868-33.593 109.227-4.401 192.237 4.6 246.737 26.75 58.92 24.081 89.48 72.165 86.04 135.39-2.94 53.438-21.94 110.075-40.31 164.844-3.93 11.712-7.99 23.819-11.77 35.546-15.98 49.52-28.09 95.351-38.77 135.799-2.67 10.14-5.3 20.05-7.89 29.71-16.07 59.56-43.82 128.27-127.79 186.36z"/><path d="M412.332 667.005c-71.292 49.326-102.659 106.977-88.319 162.337 5.064 19.612 13.551 39.247 22.537 60.031 7.998 18.501 16.269 37.633 22.736 58.186 2.984 9.646 5.581 20.016 7.721 30.823 7.097 35.838 9.414 76.988 7.52 133.418-1.939 61.87-1.533 120.62 24.412 159.35 25.77 38.24 76.163 61.18 149.779 68.19 84.845 8.11 179.903-.92 274.896-26.12 61.046-15.8 121.781-38.08 175.666-64.43 23.83-11.51 45.58-24.04 64.65-37.23 51.23-35.44 86.31-77.26 110.4-131.59 6.55-14.91 12.38-30.99 17.81-49.16 4.39-14.27 8.75-28.91 13.37-44.412 10.37-34.743 22.1-74.117 36.18-115.869 2.34-6.824 4.71-13.691 7.1-20.597 16.24-46.969 33.03-95.54 39.79-142.36 1.61-11.121 2.62-21.882 2.98-31.983 2.39-60.77-27.72-107.204-84.76-130.75-53.28-21.926-133.71-31.122-239.037-27.344-70.628 2.148-143.201 10.117-215.704 23.682-50.558 9.263-100.298 21.222-147.835 35.545-47.711 14.409-90.14 30.713-133.535 51.319-25.515 12.128-48.517 25.238-68.357 38.964zm662.538 545.235c-19.15 13.25-41 25.84-64.93 37.39-54.001 26.41-114.894 48.74-176.074 64.58-95.242 25.27-190.563 34.33-275.648 26.19-74.035-7.05-124.728-30.14-150.673-68.64-26.066-38.91-26.478-97.77-24.532-159.76 1.89-56.38-.425-97.48-7.506-133.261-2.138-10.783-4.728-21.13-7.703-30.753-6.458-20.518-14.722-39.632-22.713-58.115-8.999-20.813-17.493-40.468-22.57-60.135-14.437-55.738 17.125-113.774 88.871-163.414 19.929-13.788 43.024-26.951 68.639-39.127 43.502-20.655 86.041-37.003 133.861-51.444 47.619-14.349 97.44-26.326 148.083-35.606 72.61-13.583 145.298-21.566 216.035-23.721 105.58-3.787 186.25 5.454 239.75 27.463 57.41 23.704 87.72 70.405 85.32 131.508-.37 10.128-1.38 20.915-3 32.058-6.76 46.899-23.57 95.506-39.82 142.519-2.39 6.905-4.77 13.773-7.09 20.594-14.08 41.736-25.31 79.406-36.18 115.837-4.62 15.497-8.98 30.137-13.37 44.417-5.44 18.21-11.28 34.32-17.85 49.26-24.18 54.55-59.43 96.55-110.9 132.16z"/><path d="M422.06 677.156c-70.829 49.005-102.445 105.059-89.023 157.836 5.121 20.443 13.92 40.52 23.236 61.777 7.37 16.816 14.992 34.202 21.275 52.9 3.022 9.28 5.714 19.29 8.004 29.759 7.599 34.722 10.735 74.392 10.161 128.622-.42 59.43 1.359 115.87 27.401 153.26 25.798 36.85 74.951 59.04 146.109 65.95 83.719 8.3 176.052-1.22 267.019-27.54 58.082-16.04 114.721-37.91 168.348-65.04 22.51-11.08 43.18-23.1 61.43-35.73 50.08-34.65 85.18-75.43 110.48-128.32 6.8-14.43 12.9-29.93 18.66-47.39 7.09-20.35 14.18-41.696 21.67-64.288 9.54-28.74 19.4-58.454 30.74-90.575l1.23-3.418c18.52-51.157 37.65-104.052 44.11-155.073 1.37-10.736 2.16-21.169 2.34-30.989 1.35-58.598-28.46-103.611-83.95-126.743-52.23-21.76-130.22-31.183-231.8-28.016-68.257 1.365-137.907 9.505-212.943 24.876-48.659 9.602-96.179 21.74-145.279 37.097-44.5 13.98-83.682 29.564-131.002 52.107-25.36 12.065-48.309 25.165-68.216 38.938zm644.9 522.474c-18.33 12.68-39.08 24.76-61.67 35.89-53.76 27.18-110.541 49.11-168.757 65.18-91.221 26.4-183.835 35.95-267.818 27.62-71.561-6.95-121.016-29.29-146.989-66.39-26.155-37.55-27.942-94.11-27.525-153.67.572-54.17-2.559-93.79-10.146-128.462-2.286-10.446-4.975-20.435-7.988-29.693-6.272-18.665-13.885-36.038-21.249-52.837-9.329-21.28-18.139-41.386-23.273-61.883-6.6-25.952-2.338-52.85 12.67-79.948 15.345-27.706 41.221-54.274 76.906-78.963 19.994-13.834 43.043-26.988 68.504-39.103 47.423-22.591 86.691-38.212 131.3-52.221 49.18-15.384 96.778-27.541 145.512-37.161 75.164-15.399 144.947-23.55 213.323-24.917 101.83-3.178 180.06 6.284 232.5 28.131 55.85 23.286 85.86 68.561 84.5 127.487-.17 9.851-.97 20.301-2.34 31.07-6.47 51.106-25.63 104.049-44.15 155.256l-1.23 3.406c-11.34 32.107-21.2 61.824-30.74 90.559-7.49 22.597-14.58 43.939-21.67 64.289-5.77 17.49-11.89 33.03-18.7 47.5-25.39 53.1-60.66 94.05-110.97 128.86z"/><path d="M431.646 687.451c-69.418 48.028-102.159 103.986-89.832 153.528 5.172 21.375 14.324 41.917 24.013 63.667 6.743 15.137 13.714 30.783 19.743 47.625 3.056 8.94 5.844 18.608 8.283 28.736 8.098 33.653 12.032 71.893 12.751 124.013 1.064 57.08 4.18 111.29 30.34 147.39 25.844 35.52 73.83 56.97 142.614 63.77 82.712 8.48 172.463-1.57 259.564-29.08 54.308-16.02 108.583-38.15 161.348-65.77 21.2-10.66 40.78-22.18 58.22-34.25 49.04-33.93 84.27-73.76 110.89-125.33 7.05-13.98 13.45-28.93 19.55-45.7 11.45-29.131 22.92-60.68 35.07-94.078 6.5-17.87 13.22-36.346 20.35-55.611 19.21-50.046 38.42-103.175 43.95-154.262 1.15-10.406 1.73-20.515 1.72-30.059.35-56.509-29.2-100.158-83.2-122.899-51.25-21.612-126.92-31.252-224.899-28.657-66.596.653-133.478 8.962-210.503 26.16-45.987 9.769-92.741 22.44-142.966 38.751-47.036 15.354-82.801 31.058-128.692 52.996-25.282 12.047-48.264 25.188-68.314 39.06zm627.984 500.309c-17.52 12.12-37.19 23.69-58.46 34.39-52.868 27.68-107.283 49.86-161.711 65.92-87.368 27.6-177.424 37.68-260.415 29.17-69.181-6.84-117.458-28.44-143.476-64.2-26.285-36.26-29.418-90.59-30.48-147.78-.719-52.07-4.645-90.27-12.728-123.866-2.436-10.11-5.219-19.755-8.264-28.675-6.025-16.81-12.986-32.448-19.722-47.567-9.705-21.782-18.868-42.354-24.055-63.784-12.42-49.914 20.524-106.264 90.387-154.601 20.137-13.932 43.218-27.127 68.6-39.223 45.969-21.975 81.813-37.711 128.967-53.107 50.304-16.332 97.138-29.028 143.188-38.805 77.171-17.234 144.199-25.562 210.935-26.214 98.234-2.608 174.134 7.077 225.594 28.776 54.35 22.897 84.1 66.799 83.75 123.629 0 9.562-.58 19.703-1.73 30.133-5.54 51.184-24.77 104.374-44 154.469-7.13 19.256-13.85 37.733-20.35 55.6-12.15 33.406-23.63 64.958-35.07 94.085-6.12 16.8-12.54 31.78-19.6 45.8-26.71 51.78-62.1 91.76-111.36 125.85z"/><path d="M440.353 697.155c-68.829 47.62-101.685 101.926-90.141 148.998 5.276 22.374 14.864 43.382 25.013 65.624 6.135 13.442 12.48 27.345 18.224 42.304 3.108 8.588 6.011 17.91 8.62 27.717 8.671 32.572 13.487 69.392 15.613 119.382 2.559 52.53 7.255 106.72 33.608 141.52 25.964 34.2 72.803 54.97 139.214 61.73 81.688 8.76 168.811-1.72 251.948-30.31 50.383-15.87 102.231-38.18 154.137-66.32 19.821-10.19 38.261-21.16 54.821-32.62 47.93-33.16 83.23-72.01 111.08-122.26 7.27-13.51 13.93-27.9 20.35-43.98 19.08-43.575 38.02-92.547 58.08-144.397 18.37-45.374 37.74-98.668 42.19-149.946.9-10.06 1.25-19.849 1.02-29.111-.77-54.409-30.13-96.716-82.68-119.124-50.3-21.523-123.64-31.46-217.995-29.541-65.318-.113-129.444 8.278-207.942 27.204-43.679 9.912-88.328 22.695-140.508 40.22-47.812 16.166-81.212 32.173-123.509 52.438l-2.713 1.303c-25.208 12.013-48.228 25.191-68.43 39.169zm611.997 478.715c-16.63 11.5-35.15 22.52-55.03 32.74-52.007 28.19-103.989 50.56-154.479 66.47-83.418 28.68-170.863 39.2-252.855 30.41-66.798-6.8-113.927-27.71-140.064-62.15-26.473-34.96-31.19-89.27-33.753-141.9-2.123-49.95-6.931-86.72-15.586-119.243-2.611-9.788-5.502-19.093-8.604-27.654-5.731-14.933-12.073-28.824-18.205-42.259-10.165-22.272-19.768-43.312-25.057-65.746-11.634-47.443 21.426-102.139 90.696-150.066 20.289-14.038 43.405-27.273 68.714-39.333l2.711-1.301c42.361-20.296 75.815-36.326 123.765-52.541 52.259-17.554 96.97-30.351 140.717-40.278 78.67-18.971 142.953-27.376 208.429-27.266 94.591-1.924 168.161 8.059 218.671 29.665 52.89 22.557 82.45 65.116 83.23 119.833.22 9.285-.13 19.111-1.03 29.193-4.45 51.381-23.85 104.746-42.25 150.177-20.05 51.852-39 100.838-58.1 144.419-6.42 16.1-13.08 30.52-20.38 44.08-27.95 50.44-63.4 89.44-111.54 122.75z"/><path d="M450.118 707.286c-68.211 47.194-101.227 99.808-90.585 144.357 5.316 23.415 15.327 44.835 25.927 67.514 5.484 11.73 11.156 23.856 16.485 36.899 3.189 8.355 6.092 17.074 8.887 26.66 9.153 31.434 14.754 66.794 18.158 114.634 3.956 50.19 10.036 102 36.493 135.48 25.978 32.82 71.584 52.83 135.548 59.46 80.578 8.92 165.02-2.08 244.203-31.82 47.021-15.91 95.084-37.82 146.966-67 18.41-9.69 35.67-20.1 51.32-30.92 46.9-32.45 82.37-70.37 111.61-119.32 7.54-13.05 14.47-26.87 21.22-42.24 18.44-37.723 37.27-80.609 61.06-139.065 25.12-58.442 38.08-104.69 40.77-145.548.69-9.707.83-19.171.41-28.14-1.75-52.251-30.8-93.139-81.8-115.142-48.57-21.044-121.47-31.464-210.837-30.127-81.248-.975-152.381 14.707-205.271 28.477-52.623 12.806-101.418 29.085-138.044 41.837-40.933 14.361-70.024 28.496-103.701 44.862a5183.102 5183.102 0 0 1-20.08 9.721c-25.192 12.03-48.318 25.292-68.739 39.421zm594.342 455.944c-15.72 10.87-33.04 21.31-51.502 31.04-51.981 29.23-100.165 51.19-147.28 67.14-79.48 29.84-164.27 40.89-245.166 31.94-64.343-6.68-110.237-26.82-136.386-59.87-26.582-33.63-32.677-85.56-36.647-135.86-3.403-47.79-8.992-83.1-18.133-114.488-2.787-9.567-5.684-18.27-8.867-26.601-5.32-13.017-10.985-25.139-16.465-36.859-10.618-22.714-20.65-44.165-25.976-67.651-10.731-44.912 22.489-97.917 91.142-145.417 20.508-14.189 43.729-27.508 69.02-39.581 6.975-3.354 13.625-6.587 20.067-9.714 33.743-16.398 62.883-30.56 103.941-44.963 36.684-12.771 85.544-29.076 138.245-41.901 53.01-13.799 124.323-29.519 205.809-28.546 89.598-1.342 162.728 9.121 211.498 30.256 51.34 22.141 80.58 63.282 82.34 115.831.41 8.992.28 18.484-.4 28.218-2.72 40.952-15.68 87.284-40.85 145.817-23.79 58.473-42.62 101.369-61.07 139.099-6.75 15.39-13.71 29.24-21.26 42.33-29.36 49.13-64.97 87.2-112.06 119.78z"/><path d="M459.368 717.778c-66.428 45.961-100.298 98.133-90.614 139.565 5.376 24.525 15.905 46.334 27.049 69.424 4.841 10.029 9.844 20.399 14.712 31.525 3.226 7.987 6.229 16.364 9.192 25.617 9.557 29.911 16.196 64.831 20.89 109.921 5.424 47.87 12.958 97.3 39.596 129.5 26.049 31.47 70.459 50.75 131.997 57.32 79.481 9.14 161.241-2.32 236.442-33.14 43.388-15.78 87.768-37.25 139.706-67.57 16.942-9.15 32.952-18.92 47.592-29.06 45.87-31.73 81.5-68.73 112.16-116.44 7.77-12.58 14.99-25.83 22.03-40.502 21.31-39.361 42.18-83.09 63.8-133.705 24.24-53.318 37.41-100.8 39.13-141.142.46-9.348.37-18.492-.25-27.176-2.82-50.107-31.62-89.609-81.13-111.242-47.58-20.925-118.03-31.609-203.751-30.894-78.653-1.822-146.547 13.937-202.582 29.593-47.716 12.388-93.338 28.153-135.525 43.34-36.228 13.152-61.18 25.585-90.069 39.978-9.799 4.885-19.935 9.931-31.19 15.356-25.225 12.055-48.5 25.421-69.185 39.732zm577.502 433.792c-14.71 10.17-30.77 19.98-47.751 29.15-52.021 30.37-96.517 51.89-139.989 67.7-75.509 30.95-157.64 42.47-237.468 33.29-61.9-6.61-106.584-26.02-132.816-57.71-26.761-32.35-34.316-81.9-39.757-129.88-4.69-45.03-11.319-79.92-20.862-109.78-2.954-9.236-5.954-17.598-9.169-25.559-4.857-11.105-9.86-21.469-14.697-31.493-11.165-23.126-21.708-44.971-27.1-69.571-5.001-21.386.897-44.932 17.527-69.977 15.818-23.827 41.285-48.256 73.643-70.643 20.771-14.372 44.142-27.795 69.461-39.892 11.251-5.422 21.375-10.467 31.166-15.346 28.951-14.423 53.953-26.883 90.303-40.076 42.248-15.21 87.922-30.99 135.71-43.399 56.178-15.694 124.269-31.496 203.173-29.667 85.936-.72 156.626 10.008 204.396 31.018 49.84 21.776 78.84 61.52 81.66 111.912.63 8.708.71 17.884.26 27.255-1.72 40.439-14.92 88.035-39.2 141.439-21.63 50.642-42.51 94.396-63.82 133.761-7.06 14.678-14.29 27.968-22.09 40.578-30.76 47.89-66.53 85.03-112.58 116.89z"/><path d="M468.792 728.16c-65.586 45.378-99.443 95.745-90.573 134.734 5.417 25.694 15.99 46.822 28.232 71.288 4.182 8.356 8.51 16.999 12.818 26.231 3.277 7.65 6.373 15.689 9.484 24.583 10.064 28.794 17.543 62.244 23.546 105.244 6.853 45.57 15.789 92.64 42.613 123.57 26.121 30.13 69.34 48.69 128.468 55.16 78.412 9.34 157.536-2.61 228.813-34.56 50.575-19.84 97.416-46.88 132.581-68.22 15.416-8.56 30.096-17.65 43.676-27.04 44.93-31.09 80.85-67.27 113.07-113.86 8.03-12.12 15.53-24.81 22.89-38.779 24.08-40.235 45.88-82.237 66.67-128.433 23.87-49.521 36.87-96.823 37.61-136.812.22-9.002-.09-17.824-.9-26.229-3.83-47.97-32.38-86.1-80.41-107.359-58.87-26.282-139.49-31.682-196.737-31.593-76.583-2.61-141.387 13.257-200.01 30.788-45.035 12.479-86.921 27.725-133.094 44.915-32.893 12.353-54.841 23.656-80.259 36.744-11.859 6.107-24.128 12.424-38.588 19.411-25.34 12.126-48.858 25.658-69.9 40.217zm560.588 411.66c-13.63 9.44-28.37 18.56-43.798 27.13-35.205 21.37-82.149 48.47-132.838 68.35-71.596 32.09-151.114 44.11-229.899 34.73-59.477-6.51-102.972-25.2-129.267-55.54-26.95-31.07-35.919-78.26-42.786-123.92-5.993-42.97-13.464-76.37-23.51-105.124-3.107-8.882-6.201-16.906-9.462-24.529-4.301-9.214-8.625-17.854-12.805-26.205-12.264-24.509-22.86-45.672-28.287-71.449-8.959-39.345 25.108-90.107 91.127-135.784 21.131-14.621 44.742-28.206 70.179-40.378 14.433-6.975 26.684-13.285 38.535-19.387 25.482-13.12 47.485-24.45 80.493-36.846 46.235-17.215 88.168-32.474 133.268-44.972 58.787-17.578 123.799-33.495 200.659-30.876 57.401-.094 138.261 5.336 197.381 31.718 48.34 21.403 77.08 59.763 80.93 108.013.82 8.433 1.12 17.287.9 26.311-.74 40.097-13.78 87.523-37.7 137.149-20.79 46.218-42.61 88.254-66.7 128.504-7.37 13.975-14.88 26.695-22.93 38.855-32.33 46.75-68.39 83.05-113.49 114.25z"/><path d="M476.663 738.447c-64.659 44.737-98.46 93.278-90.412 129.842 5.411 26.897 16.556 48.275 29.46 73.024 3.511 6.736 7.139 13.7 10.822 21.092 3.311 7.304 6.5 15.006 9.761 23.559 10.542 27.676 18.844 59.646 26.13 100.616 8.229 43.26 18.529 87.99 45.551 117.66 26.179 28.79 68.226 46.62 124.959 52.98 77.37 9.51 153.898-2.97 221.319-36.09 41.676-17.71 80.338-40.37 125.578-68.96 13.792-7.89 27.059-16.22 39.459-24.81 44.1-30.51 80.48-65.98 114.47-111.61 8.32-11.66 16.11-23.801 23.79-37.087 26.6-40.254 49.38-80.557 69.66-123.243 23.96-46.807 36.49-92.639 36.23-132.562 0-8.66-.52-17.161-1.53-25.282-4.8-45.863-33.07-82.621-79.64-103.502-57.64-26.115-135.03-31.94-189.797-32.228-70.762-3.156-130.148 10.545-197.551 32.081-42.575 12.586-82.534 27.978-124.839 44.276l-5.933 2.286c-30.432 11.822-50.105 22.35-72.886 34.543-13.119 7.021-26.679 14.281-43.649 22.506-25.565 12.258-49.434 26.02-70.952 40.909zm543.557 389.593c-12.44 8.62-25.752 16.99-39.558 24.88-45.288 28.62-84.034 51.33-125.784 69.07-67.765 33.28-144.714 45.84-222.484 36.28-57.072-6.4-99.384-24.34-125.74-53.32-27.153-29.82-37.48-74.66-45.73-118.03-7.279-40.92-15.573-72.85-26.097-100.489-3.253-8.54-6.441-16.226-9.739-23.504-3.673-7.377-7.299-14.342-10.811-21.071-12.927-24.799-24.093-46.214-29.524-73.201-8.126-36.919 25.883-85.854 90.973-130.889 21.603-14.947 45.568-28.764 71.227-41.071 16.924-8.201 30.466-15.449 43.565-22.461 22.845-12.226 42.58-22.788 73.13-34.658l5.945-2.286c42.35-16.316 82.352-31.725 124.983-44.324 67.619-21.611 127.223-35.359 198.261-32.186 54.903.288 132.543 6.141 190.423 32.358 46.87 21.022 75.33 58.004 80.15 104.135 1.02 8.143 1.54 16.676 1.54 25.361.26 40.044-12.3 86.012-36.32 132.939-20.3 42.715-43.1 83.062-69.71 123.334-7.69 13.288-15.49 25.453-23.83 37.163-34.12 45.78-70.61 81.35-114.87 111.97z"/><path d="M485.235 749.4c-63.413 43.877-96.926 90.441-89.632 124.559 5.411 28.054 17.19 49.552 30.825 74.445 2.839 5.186 5.78 10.556 8.79 16.201 3.355 6.959 6.646 14.316 10.062 22.512 11.04 26.523 20.205 56.983 28.833 95.883 9.656 40.93 21.363 83.27 48.625 111.69 26.259 27.44 67.101 44.54 121.385 50.82 76.252 9.73 150.085-3.21 213.528-37.39 39.519-18.23 75.45-41.29 118.325-69.52 11.995-7.09 23.634-14.53 34.654-22.16 43.28-29.95 80.17-64.75 116.08-109.52 8.58-11.205 16.63-22.769 24.6-35.339 28.85-39.717 52.52-78.27 72.38-117.874 23.67-43.634 35.95-89.134 34.58-128.141-.23-8.307-.96-16.488-2.18-24.313-5.82-43.699-33.86-79.068-78.94-99.594-56.39-25.97-130.48-32.268-182.694-32.977-69.243-3.877-127.957 10.465-194.819 33.191-37.335 11.738-72.493 25.789-109.717 40.667-6.117 2.444-12.279 4.907-18.515 7.384-28.503 11.432-47.2 21.87-66.987 32.919-13.793 7.7-28.053 15.663-47.013 24.872-25.848 12.412-50.128 26.435-72.17 41.685zm526.335 367.73a586.68 586.68 0 0 1-34.738 22.2c-42.903 28.26-78.899 51.35-118.493 69.62-63.798 34.37-138.082 47.39-214.759 37.61-54.614-6.32-95.713-23.53-122.153-51.16-27.388-28.55-39.128-70.99-48.808-112.02-8.618-38.86-17.77-69.3-28.797-95.778-3.413-8.181-6.695-15.53-10.043-22.464-2.997-5.629-5.94-10.995-8.779-16.181-13.664-24.942-25.46-46.485-30.897-74.636-7.364-34.473 26.354-81.428 90.196-125.601 22.127-15.309 46.502-29.39 72.442-41.845 18.899-9.181 33.136-17.128 46.9-24.811 19.852-11.085 38.608-21.556 67.244-33.039 6.239-2.482 12.398-4.941 18.513-7.386 37.267-14.894 72.47-28.966 109.854-40.719 67.095-22.804 126.044-37.197 195.584-33.296 52.344.706 126.674 7.028 183.314 33.103 45.37 20.661 73.59 56.246 79.44 100.202 1.23 7.847 1.96 16.058 2.19 24.395 1.37 39.14-10.94 84.793-34.69 128.559-19.87 39.644-43.58 78.244-72.45 117.979-7.96 12.572-16.03 24.166-24.64 35.408-36.01 44.91-73.01 79.81-116.43 109.86z"/><path d="M493.827 760.353c-62.944 43.553-95.25 86.982-88.63 119.151 5.359 29.146 17.185 49.6 32.158 75.497 2.182 3.767 4.425 7.652 6.733 11.698 3.407 6.632 6.789 13.653 10.348 21.47 11.513 25.341 21.513 54.321 31.465 91.201 10.538 36.9 24.088 78.55 51.613 105.73 26.333 26.1 65.98 42.47 117.835 48.65 75.151 9.91 146.331-3.51 205.863-38.81 34.833-17.54 67.388-39.97 101.847-63.73l9.346-6.43a630.12 630.12 0 0 0 29.125-18.95c42.68-29.53 80.36-63.88 118.6-108.115 8.86-10.747 17.19-21.752 25.44-33.616 31.49-39.449 55.39-75.214 75.24-112.588 23.82-41.352 35.56-85.307 33.07-123.784-.45-7.96-1.39-15.82-2.83-23.363-6.8-41.549-34.56-75.534-78.18-95.7-55.15-25.818-125.96-32.55-175.654-33.646-75.441-5.066-136.314 14.209-192.196 34.382-33.116 11.076-64.375 24.098-97.462 37.88a5595.422 5595.422 0 0 1-28.335 11.745c-27.014 11.181-44.139 21.194-62.272 31.793-14.098 8.244-28.679 16.766-49.293 26.805-25.914 12.465-51.444 27.241-73.831 42.73zm508.643 346.157a629.688 629.688 0 0 1-29.18 18.98l-9.298 6.41c-34.523 23.79-67.128 46.26-102.029 63.83-59.892 35.52-131.552 49.04-207.172 39.07-52.16-6.22-92.054-22.69-118.564-48.96-27.654-27.32-41.246-69.07-51.811-106.06-9.945-36.85-19.931-65.8-31.432-91.101-3.547-7.811-6.925-14.82-10.324-21.427a1829.518 1829.518 0 0 0-6.721-11.683c-15.003-25.954-26.859-46.455-32.238-75.707-6.69-32.53 25.814-76.337 89.191-120.188 22.471-15.549 48.099-30.381 74.102-42.89 20.535-9.999 35.084-18.504 49.155-26.729 18.193-10.638 35.38-20.682 62.533-31.923a5608.78 5608.78 0 0 0 28.324-11.741c33.133-13.801 64.429-26.838 97.582-37.925 56.095-20.248 117.221-39.602 193.032-34.511 49.81 1.1 120.86 7.858 176.25 33.786 43.9 20.292 71.84 54.487 78.69 96.28a183.561 183.561 0 0 1 2.83 23.44c2.5 38.627-9.29 82.752-33.18 124.245-19.88 37.422-43.82 73.246-75.33 112.72-8.26 11.86-16.6 22.889-25.5 33.681-38.33 44.343-76.11 78.783-118.91 108.403z"/><path d="M500.893 771.201c-61.184 42.335-92.877 83.678-86.949 113.424 5.315 30.121 17.175 49.398 33.595 76.079 1.543 2.511 3.127 5.082 4.749 7.736 3.482 6.32 6.973 13.003 10.678 20.448 12.013 24.142 22.906 51.652 34.288 86.572 14.76 43.03 29.735 76.49 54.815 99.88 26.486 24.79 64.974 40.47 114.407 46.61 74.088 10.17 142.617-3.67 198.182-40.02 13.939-7.7 28.373-16.78 45.486-28.62 12.395-8.58 24.654-17.52 37.632-26.99 6.826-4.98 13.751-10.02 20.832-15.12a668.741 668.741 0 0 0 22.334-14.81c42.828-29.63 80.508-62.79 122.158-107.526a555.303 555.303 0 0 0 26.24-31.888c33.59-38.398 58.33-72.47 77.87-107.256 23.94-39.215 35.06-81.625 31.33-119.443a171.54 171.54 0 0 0-3.52-22.414c-7.85-39.417-35.42-72.054-77.63-91.919-54.01-25.745-121.57-32.978-168.74-34.513-74.078-5.872-131.934 13.393-189.566 35.4-29.589 10.494-57.569 22.66-87.201 35.542-11.658 5.066-23.721 10.313-36.074 15.531-25.808 11.003-41.592 20.691-58.297 30.944-14.137 8.677-28.746 17.646-50.743 28.369-26.489 12.757-52.722 27.963-75.876 43.984zm410.188 382.789c-17.169 11.88-31.657 20.99-45.593 28.69-55.949 36.6-124.978 50.56-199.569 40.31-49.728-6.17-88.463-21.95-115.116-46.9-25.201-23.51-40.223-57.05-55.023-100.19-11.37-34.89-22.251-62.37-34.25-86.483-3.701-7.436-7.186-14.115-10.657-20.41a3431.036 3431.036 0 0 0-4.741-7.722c-16.458-26.746-28.347-46.072-33.683-76.313-5.999-30.101 25.897-71.821 87.508-114.452 23.238-16.079 49.569-31.341 76.147-44.14 21.899-10.678 36.467-19.619 50.561-28.268 16.775-10.297 32.619-20.023 58.582-31.09 12.347-5.22 24.401-10.46 36.053-15.525 29.668-12.899 57.688-25.081 87.325-35.59 57.854-22.096 115.977-41.445 190.451-35.541 47.284 1.546 115.084 8.807 169.314 34.657 42.48 19.989 70.23 52.828 78.13 92.475a172.535 172.535 0 0 1 3.52 22.495c3.75 37.982-7.42 80.58-31.45 119.951-19.58 34.84-44.36 68.978-77.98 107.41a558.621 558.621 0 0 1-26.28 31.941c-41.75 44.835-79.51 78.065-122.453 107.775a669.533 669.533 0 0 1-22.352 14.82c-7.03 5.06-13.957 10.11-20.775 15.08-12.989 9.48-25.254 18.43-37.669 27.02z"/><path d="M514.505 794.541c-56.866 39.349-86.918 76.229-82.451 101.18 4.9 31.417 16.424 47.848 35.512 75.062l1.308 1.863a729.368 729.368 0 0 1 11.23 18.375c12.91 21.799 25.078 45.619 39.457 77.209 15.401 32.4 33.415 65.49 60.708 88 26.67 22.11 62.766 36.31 107.3 42.21 65.836 9.62 125.021-2.17 171.17-34.1 4.023-2.79 7.998-5.76 11.809-8.84.912-.62 1.751-1.19 2.599-1.78 17.483-12.1 34.223-26.22 51.938-41.18 11.2-9.45 22.777-19.22 35.287-29.12 55.388-38.41 101.168-78.79 138.658-113.225 9.68-9.32 19.1-18.906 27.97-28.485 25.89-24.586 58.77-57.774 83.68-96.771 24.11-34.834 34.46-75.209 28.43-110.793a152.98 152.98 0 0 0-4.77-20.504c-9.84-35.594-36.14-64.678-76.07-84.127-51.58-25.476-112.59-33.524-154.7-35.788-71.47-7.256-125.799 12.869-184.419 37.895-24.126 9.658-47.006 20.59-71.229 32.163-15.114 7.221-30.741 14.686-47.263 22.112-24.074 10.908-37.701 20.214-52.129 30.066-13.698 9.356-27.871 19.037-52.149 30.94-27.953 13.528-57.028 30.444-81.876 47.638zm345.168 370.479c-46.607 32.25-106.322 44.17-172.681 34.47-44.789-5.94-81.116-20.23-107.955-42.48-27.409-22.61-45.476-55.79-60.921-88.27-14.367-31.57-26.528-55.37-39.425-77.148a703.615 703.615 0 0 0-11.209-18.337l-1.296-1.849c-19.148-27.301-30.707-43.779-35.625-75.349-4.534-25.302 25.723-62.555 83.01-102.196 24.93-17.25 54.1-34.224 82.143-47.794 24.138-11.831 38.248-21.469 51.892-30.788 14.502-9.905 28.198-19.257 52.45-30.247 16.499-7.414 32.111-14.871 47.212-22.089 24.256-11.587 47.164-22.533 71.339-32.212 58.886-25.139 113.501-45.363 185.433-38.066 42.22 2.27 103.46 10.353 155.25 35.94 40.16 19.562 66.63 48.826 76.53 84.62a152.33 152.33 0 0 1 4.78 20.591c6.08 35.775-4.34 76.38-28.58 111.398-24.96 39.095-57.93 72.363-83.85 96.974a695.363 695.363 0 0 1-28 28.52c-37.55 34.482-83.39 74.912-138.812 113.352-12.444 9.85-24.013 19.61-35.2 29.06-18.609 15.7-36.139 30.5-54.631 43.03a200.286 200.286 0 0 1-11.854 8.87z"/><path d="M520.339 807.509c-31.771 21.984-84.286 63.487-79.061 94.446 4.636 31.692 15.8 46.516 36.071 73.431a829.637 829.637 0 0 1 11.587 17.42c16.787 25.914 31.324 52.384 42.124 72.554 16.675 29.96 35.945 60.66 63.734 82.1 26.82 20.79 61.741 34.27 103.805 40.07 61.182 9.26 115.59-1.13 157.354-30.03 6.26-4.33 12.319-9.12 18.002-14.26 14.723-11.2 28.703-24.12 43.505-37.8 12.238-11.32 24.897-23.02 39.194-34.93 45.116-32.93 86.846-67.23 135.636-108.608a824.036 824.036 0 0 0 28.8-26.773c29.05-25.152 62-55.666 86.48-91.5 24.38-33.062 34.17-71.86 26.87-106.457a143.927 143.927 0 0 0-5.42-19.562c-10.78-33.375-36.84-61.13-75.38-80.273-50.41-25.397-108.15-33.873-147.72-36.51-70.336-7.957-121.82 12.059-181.815 39.051-21.939 9.32-42.751 19.756-64.791 30.809-16.296 8.174-33.146 16.624-51.261 25.011-18.306 8.532-29.827 15.953-38.686 22.083-3.729 2.58-7.201 5.089-10.884 7.751-3.637 2.632-7.411 5.363-11.412 8.132-8.718 6.032-21.244 14.194-40.869 23.835-29.316 14.219-59.809 31.981-85.863 50.01zm336.55 350.671c-42.227 29.22-97.16 39.73-158.878 30.4-41.708-5.75-77.82-19.7-104.423-40.32-27.911-21.54-47.23-52.31-63.951-82.35-10.792-20.16-25.32-46.61-42.098-72.506a801.363 801.363 0 0 0-11.508-17.312c-20.39-27.071-31.593-41.949-36.251-73.806-5.308-31.442 47.609-73.302 79.625-95.456 26.137-18.086 56.724-35.902 86.13-50.166 19.5-9.577 31.939-17.682 40.604-23.678 3.987-2.759 7.741-5.48 11.381-8.113 3.522-2.545 7.166-5.181 10.911-7.773 8.93-6.179 20.537-13.651 38.993-22.254 18.085-8.37 34.925-16.815 51.21-24.985 22.058-11.065 42.904-21.52 64.887-30.853 60.291-27.13 112.063-47.246 182.899-39.239 39.67 2.644 97.64 11.16 148.26 36.658 38.76 19.254 64.98 47.174 75.82 80.744a144.496 144.496 0 0 1 5.43 19.639c7.35 34.815-2.51 73.861-27.05 107.121-24.54 35.952-57.58 66.544-86.67 91.724-9.03 8.83-18.74 17.852-28.83 26.805-48.84 41.42-90.6 75.74-135.705 108.67-14.222 11.84-26.861 23.53-39.088 34.83-14.834 13.71-28.841 26.67-43.575 37.87a179.653 179.653 0 0 1-18.123 14.35z"/><path d="M525.009 820.133c-51.603 35.709-78.235 66.747-74.992 87.397 4.318 31.72 15.384 45.375 35.465 70.157a962.436 962.436 0 0 1 11.832 16.328c16.385 23.085 31.223 46.305 44.817 67.965 17.038 26.22 38.314 55.8 66.823 76.28 26.629 19.22 61.345 32.35 100.405 37.97 57.827 9.04 106.632.14 145.069-26.46a158.883 158.883 0 0 0 22.848-19.26c11.586-9.99 22.594-21.29 34.249-33.25 12.674-13.01 25.783-26.46 41.425-40.19 25.885-20.02 51.22-39.98 78.04-61.122 17.77-14.007 36.15-28.486 54.73-43.009 10.52-8.57 20.5-17.013 29.67-25.093 32.17-25.386 65.23-53.389 89.37-86.327 24.72-31.395 33.95-68.654 25.36-102.229a135.334 135.334 0 0 0-6.06-18.631c-11.69-31.174-37.54-57.63-74.74-76.501-49.33-25.349-103.84-34.252-140.89-37.252-69.329-8.652-118.095 11.235-179.417 40.268-20.027 9.017-39.045 19.042-59.174 29.653-17.238 9.085-35.064 18.483-54.573 27.782-12.043 5.772-22.159 11.583-31.827 18.273-5.57 3.855-10.387 7.554-15.481 11.468-5.093 3.916-10.369 7.969-16.472 12.192-10.696 7.402-22.055 13.991-35.746 20.727-30.672 14.92-63.74 34.187-90.731 52.864zm330.356 330.317c-38.912 26.93-88.237 35.95-146.605 26.81-39.276-5.64-74.201-18.85-100.984-38.18-28.635-20.57-49.96-50.22-67.048-76.51-13.586-21.65-28.417-44.86-44.79-67.932a995.699 995.699 0 0 0-11.81-16.299c-20.16-24.874-31.268-38.582-35.61-70.487-3.303-20.999 23.532-52.398 75.556-88.398 27.069-18.731 60.236-38.056 90.999-53.018 13.587-6.69 24.864-13.225 35.481-20.571 6.06-4.194 11.316-8.234 16.397-12.139 5.111-3.928 9.943-7.643 15.552-11.524 9.759-6.753 19.961-12.61 32.111-18.434 19.47-9.283 37.278-18.668 54.492-27.742 20.166-10.631 39.211-20.669 59.28-29.709 61.648-29.185 110.698-49.181 180.554-40.465 37.15 3.012 91.88 11.948 141.41 37.405 37.42 18.977 63.41 45.579 75.17 76.931a137.724 137.724 0 0 1 6.1 18.708c8.64 33.815-.67 71.341-25.55 102.963-24.24 33.053-57.39 61.142-89.61 86.57-9.15 8.062-19.15 16.52-29.71 25.115-18.6 14.533-36.97 29.018-54.73 43.013-26.83 21.143-52.161 41.113-78.017 61.103-15.552 13.65-28.635 27.08-41.294 40.07-11.679 11.99-22.71 23.31-34.299 33.3a159.548 159.548 0 0 1-23.045 19.42z"/></g></svg>