<svg xmlns="http://www.w3.org/2000/svg" width="1018" height="1005">
  <g fill="#00ADEE" clip-path="url(#a)" opacity=".2">
    <path
      d="m490.592 768.185-11.02-4.559-.58-11.871 10.442-7.306 11.019 4.558.577 11.866-10.438 7.312zm12.84-24.968-11.019-4.558-.582-11.87 10.444-7.309 11.021 4.559.575 11.867-10.439 7.311zm2.245 46.346-11.014-4.556-.579-11.866 10.441-7.313 11.014 4.555.575 11.87-10.437 7.31z" />
    <path
      d="m518.517 764.596-11.014-4.553-.579-11.869 10.441-7.311 11.014 4.556.58 11.871-10.442 7.306z"
      opacity=".2" />
    <path
      d="m462.663 771.766-11.024-4.559-.578-11.869 10.441-7.311 11.023 4.561.572 11.868-10.434 7.31z" />
    <path
      d="m475.5 746.802-11.017-4.557-.577-11.87 10.441-7.311 11.017 4.558.571 11.867-10.435 7.313z"
      opacity=".2" />
    <path
      d="m488.34 721.833-11.018-4.555-.578-11.869 10.44-7.308 11.016 4.556.573 11.867-10.433 7.309z" />
    <path
      d="m501.175 696.869-11.017-4.557-.58-11.868 10.442-7.31 11.016 4.556.573 11.867-10.434 7.312z"
      opacity=".3" />
    <path
      d="m434.734 775.35-11.017-4.558-.579-11.867 10.441-7.311 11.017 4.557.572 11.867-10.434 7.312z" />
    <path
      d="m419.639 753.97-11.019-4.558-.582-11.871 10.444-7.309 11.02 4.558.575 11.867-10.438 7.313zm182.67-.124-11.013-4.554-.582-11.872 10.444-7.309 11.014 4.556.574 11.869-10.437 7.31z"
      opacity=".2" />
    <path
      d="m559.288 736.05-11.016-4.556-.578-11.869 10.439-7.31 11.017 4.558.574 11.864-10.436 7.313z" />
    <path
      d="m572.128 711.085-11.016-4.558-.58-11.868 10.441-7.311 11.017 4.558.573 11.867-10.435 7.312z"
      opacity=".3" />
    <path
      d="m574.374 757.429-11.017-4.557-.579-11.867 10.443-7.312 11.021 4.561.573 11.867-10.441 7.308zm12.847-24.962-11.023-4.56-.578-11.868 10.442-7.312 11.021 4.56.571 11.868-10.433 7.312zm-55.866 7.163-11.013-4.556-.581-11.865 10.443-7.312 11.013 4.556.581 11.871-10.443 7.306zm12.839-24.964-11.016-4.555-.578-11.869 10.443-7.312 11.013 4.556.579 11.872-10.441 7.308zm12.839-24.966-11.015-4.555-.576-11.872 10.44-7.308 11.014 4.558.582 11.868-10.445 7.309z" />
    <path
      d="m432.479 729.004-11.019-4.558-.58-11.871 10.444-7.31 11.018 4.559.576 11.866-10.439 7.314z"
      opacity=".3" />
    <path
      d="m445.317 704.037-11.018-4.56-.581-11.869 10.443-7.308 11.019 4.558.576 11.868-10.439 7.311zm2.252 46.347-11.017-4.557-.578-11.869 10.441-7.309 11.017 4.558.573 11.864-10.436 7.313zm12.84-24.965-11.016-4.559-.58-11.867 10.443-7.312 11.017 4.557.578 11.871-10.442 7.31zm-98.88-10.634-11.019-4.558-.573-11.867 10.436-7.311 11.018 4.559.575 11.867-10.437 7.31zm12.838-24.966-11.021-4.557-.571-11.866 10.434-7.314 11.02 4.559.575 11.87-10.437 7.308z" />
    <path
      d="m430.221 682.654-11.019-4.557-.572-11.869 10.436-7.312 11.018 4.559.576 11.868-10.439 7.311z"
      opacity=".3" />
    <path
      d="m443.063 657.688-11.019-4.558-.573-11.867 10.439-7.311 11.015 4.558.577 11.866-10.439 7.312z" />
    <path
      d="m404.547 732.587-11.021-4.557-.57-11.869 10.434-7.312 11.02 4.558.576 11.868-10.439 7.312zM378.87 782.52l-11.02-4.558-.571-11.868 10.434-7.312 11.02 4.559.575 11.867-10.438 7.312z"
      opacity=".3" />
    <path
      d="m391.708 757.553-11.02-4.558-.573-11.864 10.438-7.313 11.017 4.558.575 11.867-10.437 7.31zm-14.538-21.155-11.021-4.557-.572-11.866 10.438-7.312 11.017 4.557.575 11.867-10.437 7.311zm10.032-71.541-11.016-4.558-.576-11.868 10.439-7.312 11.015 4.559.575 11.867-10.437 7.312z" />
    <path
      d="m400.043 639.891-11.017-4.558-.575-11.867 10.438-7.312 11.017 4.557.574 11.87-10.437 7.31zm15.092 21.379-11.015-4.555-.58-11.868 10.441-7.311 11.015 4.558.576 11.868-10.437 7.308z"
      opacity=".2" />
    <path
      d="m458.158 679.071-11.015-4.555-.58-11.868 10.441-7.31 11.015 4.557.576 11.868-10.437 7.308zm285.379-199.849-11.021-4.559-.582-11.866 10.444-7.309 11.018 4.559.576 11.869-10.435 7.306zm12.833-24.959-11.019-4.561-.58-11.871 10.445-7.311 11.019 4.557.574 11.872-10.439 7.314zm2.251 46.345-11.016-4.559-.578-11.871 10.44-7.31 11.017 4.558.573 11.867-10.436 7.315z" />
    <path
      d="m771.462 475.638-11.02-4.552-.578-11.871 10.442-7.313 11.017 4.557.57 11.87-10.431 7.309zm-55.86 7.171-11.017-4.558-.577-11.872 10.439-7.307 11.016 4.558.575 11.863-10.436 7.316z"
      opacity=".3" />
    <path
      d="m728.442 457.845-11.016-4.558-.577-11.871 10.441-7.313 11.017 4.557.571 11.87-10.436 7.315z" />
    <path
      d="m741.279 432.877-11.016-4.558-.579-11.864 10.441-7.313 11.016 4.558.575 11.863-10.437 7.314z"
      opacity=".3" />
    <path
      d="m754.117 407.911-11.017-4.558-.575-11.871 10.439-7.309 11.017 4.557.573 11.867-10.437 7.314zm-79.279 103.444-11.017-4.558-.581-11.863 10.443-7.312 11.015 4.559.578 11.871-10.438 7.303z" />
    <path
      d="m687.672 486.391-11.017-4.557-.576-11.872 10.44-7.309 11.017 4.558.578 11.869-10.442 7.311zm51.352-99.856-11.017-4.556-.576-11.872 10.44-7.31 11.015 4.558.58 11.868-10.442 7.312z"
      opacity=".9" />
    <path
      d="m689.926 532.742-11.015-4.559-.578-11.871 10.441-7.313 11.017 4.558.571 11.869-10.436 7.316z"
      opacity=".3" />
    <path
      d="m702.765 507.769-11.019-4.551-.579-11.869 10.442-7.313 11.017 4.557.571 11.87-10.432 7.306zm-55.86 7.174-11.02-4.56-.577-11.872 10.439-7.305 11.019 4.558.578 11.865-10.439 7.314zm12.841-24.967-11.021-4.559-.578-11.869 10.442-7.312 11.02 4.558.574 11.872-10.437 7.31zm12.838-24.967-11.02-4.559-.58-11.865 10.442-7.312 11.02 4.558.574 11.871-10.436 7.307zM541.946 668.321l-11.014-4.556-.581-11.87 10.444-7.31 11.014 4.556.576 11.869-10.439 7.311zm-171.99-71.158-11.012-4.557-.583-11.87 10.446-7.31 11.012 4.557.575 11.867-10.438 7.313zm144.059 74.74-11.017-4.557-.577-11.87 10.439-7.307 11.017 4.557.575 11.864-10.437 7.313z" />
    <path
      d="m516.268 718.253-11.02-4.559-.581-11.869 10.444-7.309 11.02 4.558.575 11.867-10.438 7.312z"
      opacity=".2" />
    <path
      d="m529.109 693.286-11.02-4.559-.583-11.868 10.445-7.311 11.02 4.559.575 11.869-10.437 7.31zm-55.862 7.166-11.018-4.555-.578-11.871 10.442-7.31 11.021 4.561.574 11.864-10.441 7.311z"
      opacity=".3" />
    <path
      d="m486.092 675.488-11.022-4.558-.578-11.869 10.441-7.313 11.022 4.562.571 11.868-10.434 7.31z"
      opacity=".2" />
    <path
      d="m498.929 650.524-11.023-4.557-.576-11.872 10.439-7.31 11.024 4.561.571 11.865-10.435 7.313zm-29.505 6.649-11.023-4.56-.578-11.871 10.442-7.31 11.021 4.561.575 11.866-10.437 7.314zm225.004-31.738-11.015-4.559-.58-11.868 10.441-7.31 11.015 4.558.573 11.867-10.434 7.312zm12.84-24.964-11.015-4.559-.578-11.871 10.44-7.308 11.017 4.557.572 11.865-10.436 7.316zm2.256 46.344-11.022-4.559-.579-11.867 10.439-7.31 11.022 4.562.574 11.865-10.434 7.309zm12.84-24.961-11.022-4.56-.578-11.871 10.44-7.306 11.022 4.56.574 11.864-10.436 7.313z" />
    <path
      d="m763.126 593.298-11.012-4.556-.584-11.868 10.444-7.306 11.019 4.558.576 11.867-10.443 7.305zm-12.696 24.696-11.015-4.557-.583-11.866 10.444-7.309 11.019 4.56.577 11.866-10.442 7.306z"
      opacity=".3" />
    <path
      d="m775.969 568.34-11.019-4.558-.58-11.874 10.445-7.312 11.019 4.561.574 11.869-10.439 7.314zM735.2 596.888l-11.022-4.56-.577-11.872 10.439-7.307 11.023 4.561.572 11.863-10.435 7.315zm12.84-24.964-11.017-4.558-.576-11.872 10.442-7.312 11.016 4.559.571 11.868-10.436 7.315zm12.84-24.969-11.016-4.559-.582-11.862 10.442-7.312 11.016 4.557.575 11.863-10.435 7.313z" />
    <path
      d="M705.018 554.126 694 549.565l-.581-11.871 10.445-7.311 11.021 4.559.573 11.87-10.44 7.314z"
      opacity=".3" />
    <path
      d="m664.248 582.672-11.017-4.558-.579-11.866 10.441-7.309 11.017 4.558.574 11.859-10.436 7.316z" />
    <path
      d="m677.085 557.708-11.016-4.558-.578-11.871 10.441-7.309 11.017 4.558.572 11.865-10.436 7.315z"
      opacity=".5" />
    <path
      d="m692.181 579.089-11.018-4.559-.584-11.867 10.445-7.311 11.019 4.56.574 11.869-10.436 7.308zm77.028-149.787-11.02-4.56-.582-11.868 10.446-7.31 11.018 4.559.574 11.869-10.436 7.31z" />
    <path
      d="m649.16 561.288-11.019-4.551-.578-11.871 10.442-7.313 11.017 4.558.576 11.872-10.438 7.305z"
      opacity=".3" />
    <path
      d="m661.995 536.325-11.017-4.558-.575-11.871 10.439-7.307 11.015 4.558.581 11.866-10.443 7.312zm58.11 39.175-11.017-4.558-.577-11.872 10.44-7.306 11.016 4.559.58 11.865-10.442 7.312zM628.52 704.135l-11.017-4.558-.577-11.872 10.438-7.307 11.017 4.558.58 11.865-10.441 7.314zm53.065-53.735-11.016-4.557-.576-11.872 10.437-7.306 11.017 4.557.581 11.866-10.443 7.312zm36.274-121.243-11.017-4.558-.577-11.872 10.44-7.306 11.015 4.557.58 11.865-10.441 7.314z"
      opacity=".2" />
    <path
      d="m569.869 664.733-11.015-4.555-.577-11.869 10.44-7.31 11.014 4.557.581 11.869-10.443 7.308zm12.838-24.965-11.013-4.555-.579-11.87 10.44-7.308 11.02 4.558.576 11.866-10.444 7.309zm2.259 46.352-11.015-4.558-.578-11.869 10.441-7.31 11.015 4.557.573 11.867-10.436 7.313z" />
    <path
      d="m597.805 661.153-11.017-4.557-.579-11.869 10.441-7.311 11.017 4.558.573 11.866-10.435 7.313z"
      opacity=".3" />
    <path
      d="m679.335 604.053-11.012-4.556-.583-11.872 10.444-7.307 11.019 4.56.576 11.865-10.444 7.31z"
      opacity=".2" />
    <path
      d="m638.574 632.604-11.017-4.558-.578-11.868 10.441-7.311 11.015 4.558.573 11.867-10.434 7.312z" />
    <path
      d="m651.41 607.641-11.016-4.559-.578-11.871 10.441-7.311 11.016 4.559.573 11.866-10.436 7.316z"
      opacity=".3" />
    <path
      d="m653.656 653.982-11.013-4.555-.583-11.869 10.444-7.309 11.013 4.556.582 11.868-10.443 7.309zm12.839-24.965-11.013-4.558-.582-11.868 10.444-7.309 11.013 4.557.581 11.87-10.443 7.308z" />
    <path
      d="m610.644 636.187-11.017-4.558-.579-11.866 10.442-7.312 11.016 4.559.572 11.865-10.434 7.312z"
      opacity=".3" />
    <path
      d="m623.484 611.22-11.017-4.557-.579-11.867 10.441-7.311 11.017 4.558.577 11.87-10.439 7.307zm12.835-24.965-11.017-4.557-.577-11.871 10.438-7.305 11.016 4.559.581 11.863-10.441 7.311z" />
    <path
      d="m685.422 440.046-11.02-4.559-.576-11.872 10.442-7.312 11.018 4.559.575 11.869-10.439 7.315zm38.51-74.895-11.018-4.561-.578-11.871 10.442-7.312 11.021 4.56.573 11.87-10.44 7.314z"
      opacity=".3" />
    <path
      d="m698.259 415.078-11.019-4.558-.58-11.865 10.442-7.312 11.019 4.558.573 11.87-10.435 7.307z" />
    <path
      d="m700.513 461.423-11.018-4.553-.578-11.871 10.44-7.309 11.017 4.558.579 11.868-10.44 7.307z"
      opacity=".2" />
    <path
      d="m713.349 436.462-11.017-4.558-.577-11.872 10.443-7.312 11.015 4.559.578 11.871-10.442 7.312zm-55.86 7.167-11.014-4.556-.579-11.874 10.443-7.306 11.014 4.555.575 11.867-10.439 7.314z" />
    <path
      d="m680.915 347.348-11.014-4.556-.579-11.874 10.442-7.306 11.013 4.558.577 11.864-10.439 7.314z"
      opacity=".5" />
    <path
      d="m683.169 393.696-11.014-4.556-.582-11.87 10.443-7.309 11.014 4.556.576 11.869-10.437 7.31z" />
    <path
      d="m696.009 368.729-11.014-4.556-.584-11.867 10.445-7.311 11.014 4.556.578 11.865-10.439 7.313z"
      opacity=".2" />
    <path
      d="m655.24 397.284-11.023-4.56-.578-11.868 10.443-7.312 11.022 4.559.57 11.869-10.434 7.312zm12.841-24.969-11.022-4.561-.577-11.871 10.437-7.303 11.023 4.56.575 11.86-10.436 7.315zm43.018 17.798-11.024-4.561-.576-11.872 10.438-7.303 11.021 4.561.577 11.86-10.436 7.315z" />
    <path
      d="m359.27 668.439-11.014-4.557-.576-11.868 10.439-7.31 11.015 4.557.576 11.868-10.44 7.31z"
      opacity=".5" />
    <path
      d="m372.112 643.473-11.017-4.558-.578-11.865 10.441-7.312 11.015 4.559.578 11.867-10.439 7.309zm12.84-24.963-11.016-4.559-.577-11.87 10.438-7.309 11.016 4.559.579 11.864-10.44 7.315z" />
    <path
      d="m466.052 259.12-11.014-4.557-.579-11.867 10.44-7.312 11.015 4.557.578 11.869-10.44 7.31zm42.496 17.581-11.015-4.557-.579-11.866 10.441-7.311 11.015 4.557.577 11.867-10.439 7.31z"
      opacity=".2" />
    <path
      d="m318.503 696.989-11.016-4.557-.577-11.869 10.44-7.31 11.014 4.557.579 11.866-10.44 7.313z"
      opacity=".5" />
    <path
      d="m331.344 672.023-11.017-4.557-.578-11.867 10.442-7.314 11.015 4.559.576 11.871-10.438 7.308zm2.251 46.348-11.017-4.555-.576-11.871 10.439-7.311 11.017 4.558.576 11.868-10.439 7.311z" />
    <path
      d="m346.431 693.406-11.014-4.558-.576-11.868 10.44-7.312 11.014 4.557.576 11.871-10.44 7.31z"
      opacity=".2" />
    <path
      d="m290.572 700.575-11.018-4.558-.574-11.87 10.438-7.312 11.017 4.559.578 11.867-10.441 7.314z"
      opacity=".3" />
    <path
      d="m303.412 675.607-11.015-4.557-.576-11.868 10.439-7.311 11.015 4.558.577 11.866-10.44 7.312z" />
    <path
      d="m316.252 650.641-11.015-4.557-.577-11.866 10.438-7.313 11.016 4.559.576 11.866-10.438 7.311z"
      opacity=".3" />
    <path
      d="m329.094 625.675-11.018-4.559-.577-11.864 10.439-7.313 11.018 4.558.574 11.87-10.436 7.308zm12.836-24.965-11.018-4.558-.575-11.867 10.437-7.311 11.017 4.558.577 11.866-10.438 7.312z" />
    <path
      d="m344.181 647.058-11.014-4.557-.576-11.869 10.438-7.311 11.016 4.559.576 11.868-10.44 7.31z"
      opacity=".5" />
    <path
      d="m357.019 622.091-11.016-4.556-.576-11.868 10.44-7.312 11.014 4.557.576 11.87-10.438 7.309zm-55.86 7.169-11.016-4.557-.575-11.87 10.439-7.31 11.016 4.558.577 11.868-10.441 7.311z" />
    <path
      d="m313.999 604.293-11.015-4.555-.577-11.869 10.44-7.313 11.015 4.558.577 11.869-10.44 7.31zm-38.511 74.892-11.016-4.556-.575-11.871 10.438-7.311 11.016 4.559.576 11.868-10.439 7.311z"
      opacity=".3" />
    <path
      d="m326.835 579.329-11.016-4.556-.575-11.87 10.439-7.311 11.015 4.557.577 11.87-10.44 7.31zm-68.25 32.519-11.015-4.557-.577-11.87 10.439-7.311 11.014 4.557.577 11.869-10.438 7.312zm29.738 42.377-11.016-4.558-.576-11.869 10.44-7.312 11.015 4.557.577 11.87-10.44 7.312z"
      opacity=".9" />
    <path
      d="m339.676 554.364-11.017-4.558-.577-11.87 10.44-7.31 11.017 4.558.577 11.867-10.44 7.313zm-85.517-35.382-11.016-4.558-.576-11.868 10.439-7.312 11.015 4.559.578 11.867-10.44 7.312zm330.295-136.234-11.02-4.559-.576-11.867 10.435-7.305 11.019 4.558.576 11.861-10.434 7.312z"
      opacity=".3" />
    <path
      d="m571.61 407.72-11.021-4.559-.573-11.87 10.44-7.314 11.018 4.559.572 11.869-10.436 7.315zm-2.251-46.35-11.02-4.558-.575-11.87 10.439-7.312 11.018 4.561.576 11.867-10.438 7.312zm-12.838 24.964-11.02-4.559-.575-11.867 10.436-7.308 11.023 4.554.575 11.869-10.439 7.311zm68.534-31.82-11.014-4.556-.582-11.868 10.442-7.308 11.014 4.555.582 11.871-10.442 7.306zm-12.839 24.969-11.013-4.556-.582-11.871 10.445-7.311 11.013 4.558.58 11.871-10.443 7.309z" />
    <path
      d="m599.378 404.447-11.012-4.557-.584-11.867 10.445-7.312 11.013 4.559.583 11.865-10.445 7.312z"
      opacity=".2" />
    <path
      d="m586.538 429.416-11.014-4.556-.58-11.874 10.445-7.311 11.013 4.558.581 11.871-10.445 7.312z" />
    <path
      d="m665.826 325.968-11.015-4.557-.578-11.871 10.439-7.308 11.02 4.552.571 11.87-10.437 7.314z"
      opacity=".3" />
    <path
      d="m652.986 350.938-11.017-4.557-.576-11.872 10.442-7.313 11.015 4.558.572 11.869-10.436 7.315z" />
    <path
      d="m637.896 329.553-11.018-4.561-.581-11.869 10.445-7.311 11.018 4.56.575 11.869-10.439 7.312z"
      opacity=".2" />
    <path
      d="m693.756 322.384-11.023-4.56-.58-11.865 10.441-7.313 11.024 4.561.572 11.863-10.434 7.314z" />
    <path
      d="m520.776 810.948-11.024-4.561-.578-11.869 10.447-7.305 11.016 4.556.572 11.867-10.433 7.312z"
      opacity=".8" />
    <path
      d="m533.615 785.982-11.022-4.56-.578-11.871 10.445-7.304 11.017 4.558.574 11.864-10.436 7.313zm20.489-445.685-11.017-4.557-.577-11.864 10.434-7.308 11.019 4.558.576 11.864-10.435 7.307zm43.019 17.799-11.018-4.559-.575-11.864 10.435-7.307 11.017 4.557.578 11.865-10.437 7.308zm-70.948-14.211-11.018-4.559-.579-11.86 10.439-7.314 11.018 4.559.58 11.864-10.44 7.31zm-40.769 28.547-11.02-4.552-.575-11.867 10.439-7.314 11.017 4.557.576 11.872-10.437 7.304z" />
    <path
      d="m498.242 347.471-11.017-4.557-.574-11.872 10.435-7.307 11.017 4.558.578 11.865-10.439 7.313z"
      opacity=".5" />
    <path
      d="m640.149 375.899-11.015-4.558-.579-11.869 10.437-7.304 11.018 4.553.575 11.865-10.436 7.313z"
      opacity=".3" />
    <path
      d="m627.309 400.871-11.016-4.558-.577-11.871 10.441-7.313 11.017 4.557.571 11.87-10.436 7.315zm-86.048-35.6-11.014-4.558-.578-11.871 10.441-7.313 11.017 4.558.571 11.87-10.437 7.314z" />
    <path
      d="m457.477 376.019-11.017-4.558-.576-11.865 10.437-7.314 11.02 4.56.575 11.863-10.439 7.314z"
      opacity=".2" />
    <path
      d="m470.313 351.056-11.02-4.558-.571-11.872 10.437-7.313 11.02 4.559.573 11.87-10.439 7.314zm39.703 16.425-11.02-4.559-.573-11.87 10.439-7.314 11.018 4.559.574 11.869-10.438 7.315z" />
    <path
      d="m483.154 326.086-11.02-4.56-.577-11.86 10.438-7.314 11.019 4.56.574 11.869-10.434 7.305z"
      opacity=".3" />
    <path
      d="m495.993 301.122-11.018-4.558-.572-11.869 10.436-7.312 11.017 4.558.576 11.868-10.439 7.313zm-66.446 78.481-11.018-4.559-.577-11.864 10.439-7.313 11.017 4.557.581 11.866-10.442 7.313z" />
    <path
      d="m442.384 354.639-11.017-4.558-.575-11.867 10.438-7.315 11.016 4.559.576 11.872-10.438 7.309zm38.518-74.901-11.017-4.558-.575-11.867L479.75 256l11.017 4.557.575 11.871-10.44 7.31z"
      opacity=".9" />
    <path
      d="m455.221 329.673-11.015-4.558-.577-11.864 10.438-7.315 11.018 4.559.577 11.864-10.441 7.314z" />
    <path
      d="m468.063 304.706-11.017-4.558-.576-11.871 10.437-7.308 11.018 4.559.578 11.865-10.44 7.313z"
      opacity=".2" />
    <path
      d="m401.617 383.185-11.016-4.557-.573-11.87 10.436-7.311 11.016 4.558.577 11.867-10.44 7.313z"
      opacity=".5" />
    <path
      d="m414.453 358.218-11.019-4.551-.573-11.87 10.437-7.314 11.017 4.558.575 11.87-10.437 7.307zm12.84-24.962-11.017-4.557-.573-11.871 10.434-7.308 11.018 4.559.58 11.864-10.442 7.313z" />
    <path
      d="m440.128 308.293-11.016-4.559-.574-11.865 10.438-7.315 11.016 4.558.575 11.871-10.439 7.31z"
      opacity=".5" />
    <path
      d="m360.847 411.735-11.017-4.557-.577-11.864 10.439-7.313 11.018 4.559.576 11.862-10.439 7.313zm12.841-24.965-11.018-4.559-.577-11.863 10.439-7.314 11.018 4.559.574 11.869-10.436 7.308z"
      opacity=".2" />
    <path
      d="m375.938 433.119-11.017-4.559-.573-11.869 10.437-7.311 11.017 4.557.577 11.87-10.441 7.312zm12.839-24.966-11.017-4.558-.575-11.865 10.437-7.313 11.017 4.557.575 11.871-10.437 7.308zm-55.858 7.168-11.018-4.559-.573-11.87 10.437-7.31 11.017 4.557.579 11.869-10.442 7.313z" />
    <path
      d="m345.755 390.354-11.017-4.555-.576-11.868 10.439-7.314 11.017 4.558.575 11.87-10.438 7.309z"
      opacity=".2" />
    <path
      d="m358.594 365.386-11.014-4.557-.576-11.87 10.435-7.305 11.017 4.558.58 11.861-10.442 7.313zm12.837-24.961-11.016-4.556-.574-11.871 10.439-7.314 11.015 4.559.576 11.87-10.44 7.312z" />
    <path
      d="m384.274 315.457-11.017-4.558-.579-11.865 10.44-7.313 11.018 4.559.578 11.865-10.44 7.312z"
      opacity=".3" />
    <path
      d="m386.527 361.804-11.017-4.559-.578-11.864 10.44-7.313 11.017 4.557.575 11.871-10.437 7.308zm12.836-24.964-11.016-4.558-.576-11.866 10.438-7.315 11.017 4.558.574 11.871-10.437 7.31zm25.68-49.938-11.017-4.558-.575-11.867 10.439-7.313 11.016 4.558.574 11.869-10.437 7.311zm-81.537 57.103-11.02-4.56-.575-11.863 10.437-7.314 11.02 4.558.573 11.872-10.435 7.307zm12.839-24.964-11.018-4.559-.574-11.865 10.436-7.314 11.019 4.556.574 11.872-10.437 7.31zm12.836-24.963-11.018-4.559-.574-11.865 10.438-7.315 11.017 4.557.574 11.872-10.437 7.31zm12.842-24.97-11.018-4.559-.573-11.87 10.431-7.303 11.019 4.56.58 11.859-10.439 7.313zm129.151 53.434-11.017-4.558-.573-11.87 10.432-7.303 11.018 4.561.58 11.858-10.44 7.312zm-169.922-24.884-11.021-4.551-.574-11.872 10.439-7.313 11.018 4.559.576 11.87-10.438 7.307zm-23.424 96.279-11.017-4.557-.575-11.865 10.436-7.314 11.021 4.559.573 11.871-10.438 7.306zm12.842-24.966-11.019-4.558-.576-11.864 10.437-7.314 11.02 4.559.574 11.87-10.436 7.307zm-27.936 3.587L291.718 368l-.576-11.868 10.44-7.314 11.015 4.559.576 11.87-10.439 7.311zm49.782 156.838-11.017-4.557-.579-11.867 10.44-7.312 11.017 4.557.577 11.87-10.438 7.309zm12.84-24.966-11.018-4.556-.576-11.869 10.439-7.309 11.016 4.556.577 11.869-10.438 7.309zm2.251 46.348-11.018-4.555-.574-11.869 10.438-7.313 11.017 4.558.574 11.869-10.437 7.31z" />
    <path
      d="m380.446 525.812-11.018-4.556-.576-11.868 10.438-7.31 11.017 4.559.575 11.865-10.436 7.31zm-26.039 50.636-11.018-4.555-.575-11.867 10.436-7.312 11.018 4.559.575 11.867-10.436 7.308z"
      opacity=".2" />
    <path
      d="m324.585 532.981-11.016-4.559-.574-11.867 10.437-7.312 11.015 4.558.578 11.868-10.44 7.312z" />
    <path
      d="m337.421 508.013-11.016-4.556-.574-11.866 10.437-7.314 11.015 4.559.578 11.867-10.44 7.31z"
      opacity=".2" />
    <path
      d="m350.26 483.05-11.014-4.558-.573-11.87 10.436-7.311 11.018 4.558.576 11.869-10.443 7.312z" />
    <path
      d="m363.102 458.084-11.018-4.559-.575-11.864 10.438-7.315 11.017 4.558.577 11.872-10.439 7.308z"
      opacity=".3" />
    <path
      d="m283.814 561.53-11.015-4.557-.577-11.867 10.442-7.313 11.014 4.557.575 11.869-10.439 7.311z"
      opacity=".2" />
    <path
      d="m347.924 436.867-11.014-4.557-.578-11.867 10.44-7.314 11.014 4.557.576 11.869-10.438 7.312zm-51.269 99.697-11.015-4.555-.577-11.87 10.44-7.312 11.015 4.557.576 11.869-10.439 7.311zm38.516-74.904-11.015-4.555-.577-11.87 10.44-7.312 11.016 4.558.575 11.867-10.439 7.312zm-36.264 121.25-11.015-4.557-.576-11.868 10.438-7.309 11.015 4.557.578 11.868-10.44 7.309zm-38.514 74.898-11.016-4.556-.576-11.868 10.438-7.309 11.014 4.557.579 11.866-10.439 7.31zm151.808-345.946-11.016-4.556-.577-11.87 10.439-7.308 11.015 4.558.578 11.865-10.439 7.311zM241.323 543.946l-11.017-4.556-.576-11.869 10.438-7.309 11.015 4.558.579 11.866-10.439 7.31zm70.425 13.999-11.016-4.558-.577-11.868 10.439-7.31 11.016 4.559.577 11.867-10.439 7.31zm-77.075 149.878-11.015-4.559-.577-11.867 10.439-7.31 11.017 4.558.576 11.868-10.44 7.31zm21.213-142.711-11.016-4.556-.576-11.87 10.437-7.308 11.017 4.557.579 11.867-10.441 7.31zm12.841-24.966-11.017-4.555-.575-11.867 10.437-7.313 11.017 4.558.578 11.867-10.44 7.31zm12.835-24.964-11.017-4.557-.575-11.867 10.438-7.311 11.016 4.558.579 11.867-10.441 7.31z" />
    <path
      d="m294.402 490.216-11.017-4.557-.576-11.866 10.439-7.314 11.017 4.558.577 11.869-10.44 7.31z"
      opacity=".2" />
    <path
      d="m307.241 465.251-11.015-4.558-.577-11.867 10.439-7.314 11.018 4.559.576 11.866-10.441 7.314z" />
    <path
      d="m309.495 511.598-11.017-4.558-.579-11.866 10.441-7.311 11.017 4.558.574 11.868-10.436 7.309zm12.84-24.966-11.017-4.558-.577-11.867 10.441-7.311 11.017 4.558.573 11.868-10.437 7.31z"
      opacity=".2" />
    <path
      d="m266.475 493.799-11.019-4.557-.575-11.867 10.437-7.313 11.019 4.56.575 11.867-10.437 7.31zm-15.09-21.381-11.018-4.556-.576-11.869 10.439-7.313 11.018 4.559.575 11.87-10.438 7.309zm27.929-3.584-11.018-4.557-.573-11.869 10.437-7.311 11.018 4.559.575 11.867-10.439 7.311zm12.838-24.964-11.017-4.559-.577-11.863 10.439-7.314 11.017 4.558.574 11.871-10.436 7.307z" />
    <path
      d="m304.986 418.906-11.017-4.557-.573-11.871 10.437-7.313 11.018 4.558.574 11.87-10.439 7.313z"
      opacity=".5" />
    <path
      d="m606.813 846.543-11.017-4.557-.577-11.87 10.441-7.311 11.015 4.559.574 11.864-10.436 7.315zm12.838-24.968-11.016-4.556-.579-11.868 10.441-7.309 11.017 4.558.579 11.866-10.442 7.309z" />
    <path
      d="m632.491 796.611-11.016-4.558-.578-11.869 10.441-7.311 11.015 4.559.58 11.868-10.442 7.311z"
      opacity=".2" />
    <path
      d="m634.741 842.959-11.012-4.557-.581-11.87 10.444-7.309 11.012 4.556.576 11.869-10.439 7.311zm12.84-24.967-11.012-4.556-.582-11.868 10.443-7.311 11.012 4.557.578 11.867-10.439 7.311zm-55.857 7.169-11.022-4.559-.579-11.869 10.443-7.312 11.021 4.561.571 11.868-10.434 7.311z" />
    <path
      d="m604.564 800.195-11.022-4.56-.579-11.868 10.441-7.311 11.021 4.56.573 11.867-10.434 7.312zm-43.544-18.017-11.022-4.56-.579-11.866 10.441-7.311 11.022 4.56.572 11.867-10.434 7.31zm56.384-6.949-11.022-4.559-.579-11.869 10.441-7.311 11.022 4.562.573 11.867-10.435 7.31z"
      opacity=".3" />
    <path
      d="m630.24 750.264-11.022-4.558-.579-11.87 10.443-7.312 11.021 4.56.572 11.869-10.435 7.311zm-40.771 28.548-11.013-4.556-.582-11.868 10.444-7.311 11.014 4.556.573 11.87-10.436 7.309zm18.246-492.027-11.019-4.558-.574-11.872 10.439-7.313 11.019 4.56.574 11.869-10.439 7.314z" />
    <path
      d="m539.01 318.922-11.015-4.559-.575-11.869 10.437-7.31 11.017 4.556.578 11.868-10.442 7.314z"
      opacity=".3" />
    <path
      d="m721.682 318.799-11.014-4.553-.584-11.87 10.445-7.311 11.014 4.556.574 11.871-10.435 7.307z" />
    <path
      d="m678.664 301.004-11.016-4.557-.578-11.868 10.441-7.313 11.016 4.558.572 11.869-10.435 7.311z"
      opacity=".2" />
    <path
      d="m551.854 293.952-11.017-4.558-.578-11.861 10.439-7.314 11.015 4.558.576 11.872-10.435 7.303zm12.834-24.96-11.016-4.559-.575-11.87 10.439-7.314 11.017 4.558.576 11.87-10.441 7.315z" />
    <path
      d="m566.939 315.337-11.017-4.557-.573-11.87 10.439-7.315 11.018 4.559.573 11.87-10.44 7.313z"
      opacity=".3" />
    <path
      d="m579.78 290.369-11.022-4.552-.573-11.871 10.439-7.315 11.018 4.561.575 11.869-10.437 7.308z"
      opacity=".2" />
    <path
      d="m523.922 297.538-11.017-4.557-.575-11.871 10.436-7.308 11.018 4.559.578 11.865-10.44 7.312zm12.835-24.963-11.015-4.559-.576-11.87 10.441-7.312 11.017 4.557.575 11.871-10.442 7.313z" />
    <path
      d="m549.6 247.605-11.017-4.558-.578-11.861 10.439-7.313 11.016 4.558.579 11.864-10.439 7.31z"
      opacity=".2" />
    <path
      d="m592.622 265.405-11.018-4.559-.576-11.866 10.439-7.314 11.018 4.559.574 11.869-10.437 7.311zm-154.743-3.464-11.019-4.552-.574-11.872 10.438-7.312 11.019 4.558.573 11.87-10.437 7.308zm12.839-24.965-11.017-4.557-.575-11.871 10.437-7.306 11.017 4.557.577 11.864-10.439 7.313z" />
    <path
      d="m452.969 283.323-11.015-4.558-.574-11.868 10.434-7.306 11.017 4.557.58 11.862-10.442 7.313z"
      opacity=".3" />
    <path
      d="m409.951 265.524-11.017-4.558-.578-11.865 10.44-7.31 11.015 4.559.581 11.862-10.441 7.312zm-89.664 174.361-11.016-4.556-.578-11.865 10.439-7.312 11.015 4.559.58 11.862-10.44 7.312zm-43.019-17.8-11.016-4.556-.578-11.865 10.438-7.311 11.016 4.559.58 11.861-10.44 7.312zm145.52-181.525-11.016-4.558-.577-11.868 10.44-7.312 11.017 4.558.575 11.87-10.439 7.31zm12.839-24.965-11.019-4.556-.577-11.868 10.441-7.313 11.017 4.558.576 11.87-10.438 7.309z" />
    <path
      d="m463.555 212.013-11.017-4.557-.576-11.869 10.44-7.312 11.017 4.558.573 11.87-10.437 7.31z"
      opacity=".2" />
    <path
      d="m420.538 194.214-11.02-4.558-.575-11.867 10.439-7.314 11.018 4.559.575 11.87-10.437 7.31zm249.794 224.45-11.02-4.559-.579-11.872 10.444-7.311 11.019 4.558.576 11.871-10.44 7.313zm111.182-14.653-11.018-4.56-.58-11.871 10.444-7.312 11.021 4.559.573 11.871-10.44 7.313zm69.233-31.815-11.016-4.556-.576-11.872 10.441-7.313 11.016 4.559.572 11.869-10.437 7.313zm-27.929 3.586-11.022-4.561-.577-11.871 10.442-7.311 11.023 4.559.57 11.87-10.436 7.314zm-27.933 3.583-11.018-4.559-.581-11.873 10.446-7.31 11.019 4.558.573 11.87-10.439 7.314zm-86.038-35.599-11.019-4.558-.58-11.873 10.446-7.31 11.018 4.559.574 11.869-10.439 7.313zm98.878 10.632-11.012-4.556-.58-11.872 10.442-7.306 11.012 4.557.577 11.864-10.439 7.313z" />
    <path
      d="m751.868 361.567-11.021-4.56-.578-11.871 10.443-7.312 11.023 4.559.569 11.869-10.436 7.315zm-25.675 49.934-11.022-4.561-.577-11.871 10.442-7.312 11.023 4.56.57 11.868-10.436 7.316z"
      opacity=".3" />
    <path
      d="m764.709 336.601-11.023-4.56-.579-11.866 10.442-7.313 11.022 4.562.571 11.867-10.433 7.31z" />
    <path
      d="m779.792 357.981-11.015-4.559-.578-11.871 10.443-7.311 11.017 4.557.57 11.87-10.437 7.314z"
      opacity=".2" />
    <path
      d="m736.773 340.182-11.013-4.556-.577-11.872 10.439-7.305 11.013 4.555.577 11.864-10.439 7.314zM219.627 686.359l-11.016-4.558-.576-11.869 10.438-7.308 11.016 4.556.576 11.868-10.438 7.311zm-15.094-21.383-11.015-4.557-.576-11.868 10.439-7.311 11.015 4.558.576 11.869-10.439 7.309z" />
    <path
      d="m189.441 643.597-11.017-4.559-.574-11.868 10.436-7.309 11.018 4.556.577 11.866-10.44 7.314zm43.551 18.018-11.018-4.559-.576-11.868 10.438-7.309 11.019 4.556.576 11.866-10.439 7.314z"
      opacity=".5" />
    <path
      d="m202.281 618.628-11.017-4.558-.576-11.868 10.439-7.311 11.018 4.559.573 11.867-10.437 7.311z"
      opacity=".2" />
    <path
      d="m262.646 704.156-11.014-4.557-.578-11.867 10.439-7.312 11.014 4.558.579 11.868-10.44 7.31zm423.451 38.94-11.013-4.558-.581-11.869 10.443-7.308 11.012 4.556.578 11.868-10.439 7.311z" />
    <path
      d="m698.934 718.129-11.013-4.555-.581-11.872 10.443-7.308 11.013 4.557.576 11.866-10.438 7.312z"
      opacity=".5" />
    <path
      d="m658.172 746.681-11.021-4.561-.578-11.868 10.441-7.311 11.022 4.562.572 11.866-10.436 7.312zm12.836-24.964-11.021-4.561-.578-11.871 10.441-7.308 11.021 4.56.574 11.866-10.437 7.314zm12.841-24.967-11.022-4.559-.579-11.869 10.443-7.312 11.021 4.561.572 11.869-10.435 7.31zm12.835-24.968-11.022-4.56-.578-11.868 10.441-7.31 11.022 4.561.572 11.866-10.435 7.311zm-483.9-124.301-11.016-4.559-.578-11.868 10.439-7.31 11.017 4.557.573 11.867-10.435 7.313zm15.096 21.381-11.023-4.56-.579-11.866 10.44-7.31 11.022 4.559.573 11.867-10.433 7.31zm-55.865 7.166-11.013-4.556-.581-11.869 10.443-7.308 11.014 4.556.582 11.868-10.445 7.309zm12.835-24.966-11.012-4.556-.583-11.869 10.445-7.309 11.012 4.557.583 11.87-10.445 7.307zm30.191 42.766-11.023-4.559-.578-11.869 10.441-7.311 11.021 4.561.574 11.868-10.435 7.31zm496.729 99.336-11.013-4.556-.579-11.872 10.443-7.308 11.012 4.556.576 11.866-10.439 7.314zm-86.039-35.599-11.014-4.556-.58-11.871 10.445-7.309 11.012 4.556.576 11.869-10.439 7.311z" />
    <path
      d="m668.753 675.367-11.016-4.558-.578-11.869 10.441-7.311 11.015 4.559.573 11.864-10.435 7.315z"
      opacity=".2" />
    <path
      d="m187.191 597.245-11.017-4.556-.575-11.867 10.437-7.312 11.017 4.558.577 11.867-10.439 7.31zm83.471-10.123-11.016-4.559-.58-11.867 10.442-7.31 11.016 4.559.572 11.865-10.434 7.312zm15.096 21.381-11.023-4.56-.579-11.866 10.441-7.309 11.021 4.561.573 11.864-10.433 7.31zm-55.868 7.166-11.012-4.554-.583-11.87 10.444-7.309 11.013 4.558.582 11.868-10.444 7.307zm12.84-24.964-11.013-4.557-.582-11.868 10.444-7.311 11.013 4.558.581 11.869-10.443 7.309zm30.189 42.764-11.023-4.559-.577-11.868 10.441-7.311 11.021 4.561.573 11.867-10.435 7.31zm-27.852 3.419-11.018-4.557-.576-11.867 10.439-7.311 11.016 4.558.578 11.865-10.439 7.312zm395.392 42.775-11.016-4.559-.58-11.867 10.442-7.31 11.016 4.559.572 11.865-10.434 7.312zm15.096 21.38-11.022-4.558-.58-11.868 10.441-7.308 11.021 4.56.574 11.866-10.434 7.308zm-55.867 7.168-11.014-4.556-.583-11.869 10.445-7.309 11.013 4.558.582 11.868-10.443 7.308zm12.839-24.966-11.013-4.556-.582-11.869 10.443-7.31 11.014 4.558.58 11.869-10.442 7.308zm30.189 42.765-11.022-4.558-.578-11.869 10.441-7.311 11.021 4.561.573 11.866-10.435 7.311zm-27.852 3.418-11.019-4.556-.575-11.867 10.439-7.311 11.016 4.558.578 11.866-10.439 7.31zm148.22-136.041-11.016-4.558-.578-11.869 10.44-7.308 11.017 4.557.573 11.867-10.436 7.311zm15.097 21.382-11.023-4.559-.58-11.868 10.441-7.309 11.022 4.56.573 11.867-10.433 7.309zm-55.869 7.167-11.013-4.556-.581-11.869 10.443-7.308 11.013 4.555.583 11.869-10.445 7.309zm12.839-24.966-11.013-4.557-.582-11.868L734 573.236l11.013 4.557.582 11.868-10.444 7.309zm30.191 42.766-11.023-4.56-.578-11.868 10.441-7.311 11.021 4.56.573 11.867-10.434 7.312zm-27.851 3.417-11.016-4.556-.577-11.868 10.438-7.311 11.016 4.558.579 11.867-10.44 7.31zm-6.836-138.88-11.017-4.557-.578-11.869 10.441-7.309 11.016 4.558.573 11.866-10.435 7.311zm15.095 21.382-11.022-4.559-.58-11.867 10.441-7.309 11.022 4.56.573 11.866-10.434 7.309zm-55.866 7.166-11.015-4.555-.582-11.87 10.444-7.307 11.014 4.556.582 11.868-10.443 7.308zm12.838-24.965-11.013-4.556-.582-11.868 10.444-7.309 11.014 4.555.58 11.869-10.443 7.309zm30.191 42.764-11.024-4.557-.578-11.869 10.441-7.31 11.023 4.559.571 11.868-10.433 7.309zm-27.851 3.419-11.017-4.557-.575-11.867 10.437-7.31 11.017 4.557.577 11.868-10.439 7.309zM289.815 397.686l-11.016-4.559-.578-11.868 10.44-7.31 11.017 4.557.572 11.867-10.435 7.313z" />
    <path
      d="m304.911 419.066-11.023-4.559-.579-11.867 10.44-7.309 11.023 4.559.572 11.867-10.433 7.309z"
      opacity=".2" />
    <path
      d="m249.043 426.233-11.014-4.556-.581-11.869 10.443-7.308 11.014 4.555.581 11.869-10.443 7.309zm12.838-24.966-11.012-4.557-.582-11.868 10.444-7.309 11.012 4.557.583 11.869-10.445 7.308zm30.191 42.766-11.023-4.56-.578-11.868 10.441-7.311 11.021 4.561.574 11.868-10.435 7.31zm-27.85 3.417-11.016-4.556-.578-11.868 10.439-7.311 11.015 4.559.579 11.866-10.439 7.31zm209.829-306.567-11.017-4.557-.578-11.869 10.44-7.311 11.016 4.559.573 11.866-10.434 7.312zm15.096 21.381-11.024-4.559-.579-11.866 10.441-7.311 11.021 4.561.574 11.865-10.433 7.31zm-55.868 7.166-11.016-4.555-.58-11.869 10.444-7.309 11.012 4.557.582 11.868-10.442 7.308zm12.839-24.964-11.015-4.557-.582-11.868 10.444-7.31 11.014 4.556.582 11.871-10.443 7.308zm30.188 42.765-11.022-4.56-.58-11.868 10.441-7.311 11.024 4.561.571 11.868-10.434 7.31zm-27.848 3.416-11.018-4.555-.575-11.867 10.436-7.311 11.017 4.557.578 11.867-10.438 7.309zm70.584 14.929-11.016-4.559-.58-11.867 10.441-7.311 11.017 4.557.573 11.867-10.435 7.313zm15.096 21.381-11.023-4.56-.579-11.866 10.44-7.31 11.022 4.559.573 11.867-10.433 7.31zm-55.869 7.166-11.013-4.556-.583-11.868 10.445-7.309 11.013 4.555.581 11.87-10.443 7.308zm12.84-24.965-11.014-4.558-.582-11.868 10.445-7.309 11.012 4.557.581 11.87-10.442 7.308zm30.19 42.765-11.023-4.559-.578-11.869 10.441-7.311 11.022 4.562.572 11.867-10.434 7.31zm-27.851 3.417-11.016-4.556-.576-11.866 10.437-7.313 11.016 4.559.579 11.866-10.44 7.31zm-15.735 537.898-11.015-4.558-.58-11.868 10.441-7.311 11.016 4.559.572 11.866-10.434 7.312zm15.096 21.381-11.022-4.56-.579-11.866 10.439-7.31 11.022 4.56.574 11.866-10.434 7.31zm-55.868 7.166-11.014-4.556-.582-11.868 10.445-7.309 11.012 4.557.582 11.868-10.443 7.308zm12.839-24.964-11.013-4.559-.583-11.867 10.445-7.31 11.013 4.557.581 11.87-10.443 7.309zm30.191 42.764-11.023-4.56-.578-11.868 10.441-7.311 11.021 4.561.573 11.868-10.434 7.31zm-27.853 3.417-11.018-4.555-.575-11.867 10.438-7.313 11.015 4.559.579 11.866-10.439 7.31zm385.56-445.827-11.015-4.559-.579-11.869 10.44-7.309 11.017 4.557.573 11.867-10.436 7.313zm15.096 21.38-11.022-4.559-.579-11.867 10.439-7.31 11.023 4.56.573 11.867-10.434 7.309zm-55.868 7.166-11.014-4.555-.58-11.87 10.442-7.308 11.014 4.556.582 11.868-10.444 7.309zm12.839-24.964-11.013-4.558-.582-11.868 10.444-7.309 11.013 4.557.583 11.869-10.445 7.309zm30.19 42.765-11.022-4.56-.579-11.868 10.441-7.311 11.022 4.56.573 11.868-10.435 7.311zm-27.85 3.417-11.016-4.557-.577-11.866 10.438-7.312 11.016 4.558.579 11.867-10.44 7.31zm3.274 46.057-11.017-4.557-.579-11.869 10.441-7.308 11.017 4.557.572 11.867-10.434 7.31zm15.095 21.383-11.023-4.559-.579-11.868 10.44-7.309 11.023 4.56.572 11.867-10.433 7.309zm-55.868 7.167-11.014-4.556-.581-11.869 10.443-7.308 11.014 4.555.582 11.868-10.444 7.31zm12.84-24.967-11.014-4.556-.582-11.868 10.444-7.309 11.014 4.556.58 11.869-10.442 7.308zm30.191 42.766-11.025-4.559-.578-11.868 10.441-7.311 11.023 4.559.571 11.868-10.432 7.311zm-27.852 3.418-11.016-4.557-.576-11.868 10.437-7.31 11.017 4.557.577 11.868-10.439 7.31zM161.511 647.178l-11.016-4.556-.577-11.87 10.441-7.31L171.374 628l.578 11.868-10.441 7.31z" />
    <path
      d="m174.352 622.212-11.016-4.556-.576-11.867 10.439-7.315 11.015 4.558.577 11.87-10.439 7.31z"
      opacity=".3" />
  </g>
  <defs>
    <clipPath id="a">
      <path fill="#fff" d="M0 415.248 627.082.191l390.22 589.558-627.083 415.056z" />
    </clipPath>
  </defs>
</svg>