<svg width="1121" height="1998" viewBox="0 0 1121 1998" fill="none" xmlns="http://www.w3.org/2000/svg">
<g clip-path="url(#clip0_141_8406)">
<g opacity="0.6">
<path d="M1445.82 758.023C1445.65 765.499 1445.23 773.141 1444.55 781.46C1442.98 800.727 1440.24 820.286 1437.34 840.994C1435.69 852.832 1433.97 865.075 1432.43 877.695C1432.1 883.043 1431.71 888.396 1431.28 893.669C1427.02 945.679 1417.75 996.758 1401.23 1059.3C1397.46 1072.3 1393.26 1085.17 1388.65 1097.89C1374.08 1148.21 1359.3 1185.53 1340.72 1218.94C1320.6 1258.54 1290.53 1288.19 1256.05 1302.47C1249.34 1305.33 1242.45 1307.72 1235.42 1309.65C1198.26 1320.84 1158.66 1313.08 1120.88 1287.16C1072.37 1254.27 1033.65 1202.42 1009.72 1164.72C967.673 1104.96 956.912 1047.71 948.044 984.41C943.426 956.294 940.771 928.672 937.955 899.437C936.524 884.563 935.042 869.188 933.257 853.333C930.297 826.328 931.176 808.907 932.106 790.47C932.948 773.824 933.818 756.611 932.043 730.824C929.813 700.594 929.898 669.163 932.291 639.936C938.171 568.129 956.592 521.674 982.828 512.473C1012.12 501.454 1033.49 502.654 1065.85 504.471L1071.13 504.767C1078.11 504.826 1085.38 504.749 1093.39 504.531C1119.73 503.815 1147.26 501.014 1182.66 495.45C1225.62 489.414 1260.79 487.61 1292.77 498.43C1326.33 509.69 1357.88 534.51 1386.55 572.191C1430.71 628.637 1451.35 691.179 1446.29 753.069C1446.15 754.724 1446.01 756.376 1445.82 758.023ZM1445.61 781.931C1446.29 773.574 1446.71 765.894 1446.88 758.457C1447.05 756.868 1447.21 755.203 1447.35 753.538C1452.46 691.095 1431.65 628.037 1387.17 571.176C1358.33 533.275 1326.59 508.299 1292.81 496.962C1260.67 486.094 1225.41 487.897 1182.34 493.95C1146.97 499.508 1119.46 502.307 1093.16 503.024C1085.16 503.241 1077.89 503.32 1070.93 503.26L1065.67 502.962C1033.23 501.139 1011.79 499.935 982.378 511.006C955.799 520.323 937.157 567.146 931.235 639.465C928.834 668.797 928.748 700.333 930.987 730.67C932.752 756.324 931.886 773.474 931.049 790.058C930.113 808.588 929.23 826.083 932.209 853.262C933.993 869.098 935.472 884.463 936.903 899.335C939.722 928.611 942.387 956.27 947.011 984.428C955.589 1045.65 966.786 1105.6 1009.02 1165.63C1033.02 1203.42 1071.88 1255.46 1120.6 1288.5C1158.61 1314.58 1198.45 1322.39 1235.82 1311.12C1242.87 1309.2 1249.8 1306.79 1256.53 1303.93C1291.18 1289.58 1321.4 1259.77 1341.62 1219.99C1360.24 1186.53 1375.04 1149.11 1389.63 1098.74C1394.25 1086 1398.45 1073.11 1402.22 1060.09C1418.79 997.431 1428.07 946.252 1432.34 894.139C1432.77 888.824 1433.15 883.505 1433.48 878.183C1435.02 865.631 1436.74 853.399 1438.38 841.575C1441.28 820.838 1444.02 801.253 1445.61 781.931Z" fill="#A8C4E0" fill-opacity="0.5"/>
<path d="M1736.96 1049.07C1736.84 1051 1736.7 1052.91 1736.53 1054.86C1730.21 1132.13 1696.59 1245.31 1646.6 1357.59C1595.73 1471.87 1537.23 1563.01 1490.1 1601.41C1402.24 1721.52 1330.01 1670.79 1220.7 1594.01C1173.43 1560.81 1119.84 1523.18 1054.45 1491.01C1006.78 1467.39 964.042 1447.04 926.332 1429.08C743.399 1341.96 659.908 1302.21 575.266 1157.59C553.42 1119.69 544.273 1076.89 548.083 1030.36C550.639 999.162 559.052 966.099 573.089 932.099C588.71 889.415 609.239 846.686 630.975 801.453C651.399 758.951 672.518 714.994 691.773 666.663C731.079 566.058 744.194 457.896 750.64 385.291L751.563 372.392C752.686 356.734 753.745 341.942 754.945 327.288C760.049 264.954 767.02 215.521 784.457 176.867C831.04 74.9377 979.457 48.0498 1162.56 108.374C1256.31 138.571 1342 189.094 1410.36 254.483C1470.95 312.841 1527.23 392.609 1587.49 505.517C1631.62 587.893 1667.42 677.526 1700.17 787.584C1731.66 894.63 1743.03 975.03 1737.03 1048.27L1736.96 1049.07ZM1737.6 1055.34C1737.76 1053.37 1737.91 1051.46 1738.03 1049.53L1738.09 1048.74C1744.11 975.234 1732.72 894.584 1701.14 787.257C1668.36 677.044 1632.5 587.277 1588.3 504.771C1527.95 391.681 1471.55 311.764 1410.83 253.273C1342.33 187.757 1256.49 137.14 1162.58 106.896C979.092 46.4382 830.297 73.5141 783.517 175.87C765.999 214.719 758.997 264.306 753.877 326.813C752.677 341.477 751.619 356.274 750.496 371.939L749.572 384.819C743.136 457.304 730.043 565.306 690.814 665.726C671.573 714.009 650.465 757.946 630.051 800.435C608.301 845.694 587.759 888.448 572.128 931.161C558.04 965.284 549.59 998.509 547.02 1029.89C543.173 1076.86 552.415 1120.1 574.501 1158.4C659.4 1303.47 743.009 1343.29 926.188 1430.51C963.898 1448.47 1006.63 1468.82 1054.29 1492.44C1119.62 1524.57 1173.16 1562.18 1220.39 1595.35C1276.82 1634.98 1321.38 1666.28 1364.1 1673.46C1410.28 1681.23 1449.37 1659.39 1490.85 1602.69C1538 1564.29 1596.61 1472.99 1647.54 1358.58C1697.59 1246.15 1731.25 1132.78 1737.6 1055.34Z" fill="#A8C4E0" fill-opacity="0.5"/>
<path d="M572.41 1033.73C574.711 1005.63 581.435 975.969 592.387 945.589C607.1 891.73 629.141 837.527 652.476 780.141C667.04 744.323 682.099 707.289 696.338 668.04C730.651 570.913 746.451 472.36 757.383 388.76L757.865 383.797C765.373 306.333 771.86 239.431 796.181 190.079C842.878 92.9749 986.552 65.878 1162.23 121.041C1255.8 148.163 1337.45 193.568 1404.95 255.998C1464.16 310.941 1521.37 390.431 1579.87 498.996C1625.76 582.802 1663.34 677.956 1694.76 789.903C1724.15 895.941 1733.49 978.609 1724.46 1052.56L1724.33 1054.25C1718.28 1128.02 1685.63 1236.9 1637 1345.52C1587.43 1456.2 1530.37 1544.87 1484.38 1582.73C1398.8 1699.4 1328.27 1651.84 1221.51 1579.86C1176.63 1549.6 1125.78 1515.32 1064.18 1485.97C1018.83 1464.04 978.048 1445.1 942.065 1428.38C765.273 1346.25 684.586 1308.77 602.131 1169.84C578.278 1130 568.277 1084.21 572.41 1033.73ZM1727.27 1035.84C1732.98 966.059 1722.97 887.813 1695.74 789.611C1664.28 677.492 1626.64 582.182 1580.68 498.235C1522.07 389.486 1464.74 309.847 1405.39 254.772C1337.76 192.209 1255.94 146.718 1162.24 119.556C1075.58 92.3461 995.333 84.4885 930.169 96.8199C864.992 109.162 818.34 141.055 795.262 189.051C770.827 238.632 764.329 305.671 756.803 383.295L756.325 388.227C745.408 471.707 729.626 570.158 695.364 667.146C681.134 706.355 666.079 743.385 651.517 779.191C628.169 836.617 606.111 890.861 591.396 944.745C580.411 975.205 573.659 1005 571.345 1033.26C567.173 1084.2 577.277 1130.44 601.375 1170.68C684.088 1310.04 764.893 1347.58 941.935 1429.82C977.91 1446.53 1018.69 1465.47 1064.03 1487.4C1125.57 1516.72 1176.39 1550.98 1221.22 1581.22C1276.33 1618.37 1319.85 1647.71 1361.54 1653.93C1406.61 1660.65 1444.72 1639.09 1485.12 1584C1531.14 1546.15 1588.3 1457.33 1637.93 1346.5C1686.64 1237.75 1719.34 1128.67 1725.39 1054.72L1725.52 1053.07C1726.21 1047.43 1726.8 1041.63 1727.27 1035.84Z" fill="#A8C4E0" fill-opacity="0.5"/>
<path d="M596.87 1035.24C598.879 1010.71 604.012 984.959 612.128 958.719C625.003 891.039 648.751 822.572 673.894 750.082C682.911 724.093 692.233 697.219 701.31 669.644C733.458 568.698 751.387 467.157 764.481 393.017C773.414 321.185 781.841 253.379 808.221 204.462C831.264 159.099 876.556 128.63 939.206 116.333C1001.99 104.012 1079.08 110.562 1162.14 135.281C1254.18 158.886 1334.12 200.525 1399.74 259.044C1458.4 311.28 1514.91 388.037 1572.49 493.698C1620.76 579.935 1659.07 677.828 1689.6 792.986C1713.25 883.401 1721.75 956.371 1716.31 1022.64C1715.39 1034 1714.02 1045.35 1712.25 1056.36C1705.93 1126.92 1674.07 1230.98 1627.01 1334.8C1578.23 1442.43 1524.3 1525.69 1479.04 1563.21C1395.77 1676.22 1326.9 1631.88 1222.65 1564.78C1180.22 1537.47 1132.12 1506.5 1074.34 1479.96C1031.4 1459.74 992.632 1442.23 958.432 1426.78C787.687 1349.64 709.761 1314.44 629.459 1181.34C603.328 1139.38 592.368 1090.23 596.87 1035.24ZM1717.38 1023.11C1722.83 956.601 1714.31 883.4 1690.59 792.734C1660.01 677.378 1621.63 579.314 1573.28 492.923C1515.59 387.082 1458.97 310.166 1400.17 257.801C1334.4 199.154 1254.31 157.432 1162.13 133.792C1078.96 109.041 1001.75 102.481 938.855 114.826C875.968 127.172 830.484 157.799 807.317 203.403C780.822 252.53 772.375 320.48 763.432 392.419C750.354 466.472 732.431 567.947 700.32 668.792C691.25 696.344 681.928 723.213 672.913 749.202C647.752 821.741 623.987 890.265 611.11 957.965C602.983 984.238 597.826 1010.11 595.807 1034.77C591.265 1090.23 602.336 1139.83 628.714 1182.19C709.274 1315.71 787.317 1350.97 958.31 1428.22C992.507 1443.66 1031.27 1461.18 1074.2 1481.39C1131.92 1507.91 1179.98 1538.85 1222.39 1566.14C1276.19 1600.77 1318.69 1628.13 1359.36 1633.4C1403.34 1639.1 1440.48 1617.84 1479.79 1564.49C1525.07 1526.95 1579.1 1443.56 1627.95 1335.79C1675.06 1231.84 1706.97 1127.58 1713.31 1056.92C1715.09 1045.71 1716.45 1034.43 1717.38 1023.11Z" fill="#A8C4E0" fill-opacity="0.5"/>
<path d="M619.571 1035.13C621.246 1014.67 624.923 993.344 630.502 971.722C640.33 886.596 666.291 800.098 693.774 708.541C697.507 696.109 701.274 683.569 705.039 670.888C727.199 593.272 743.533 518.726 757.944 452.956C762.277 433.17 766.375 414.484 770.417 396.663C781.823 322.893 792.643 262.934 819.152 218.043C842.32 175.01 886.523 145.773 946.981 133.479C1007.59 121.154 1081.76 126.424 1161.47 148.73C1252.13 168.841 1330.47 206.774 1394.32 261.487C1452.48 311.052 1508.36 385.173 1565.14 488.079C1615.17 575.597 1655.37 679.21 1684.64 796.057C1705.25 879.455 1712.45 947.534 1707.31 1010.29C1705.92 1027.27 1703.55 1044.12 1700.29 1060.41C1693.31 1128.02 1662.06 1227.16 1616.68 1325.69C1569.48 1428.17 1517.35 1507.9 1473.64 1544.41C1392.52 1653.88 1325.17 1612.73 1223.23 1550.45C1183.21 1525.99 1137.84 1498.27 1083.84 1474.47C1043.32 1455.97 1006.58 1439.88 974.171 1425.7C809.103 1353.4 733.771 1320.41 655.448 1192.96C626.696 1148.58 614.63 1095.49 619.571 1035.13ZM1708.38 1010.77C1713.54 947.773 1706.31 879.476 1685.64 795.835C1656.32 678.778 1616.04 574.967 1565.92 487.293C1509.04 384.199 1453.04 309.921 1394.72 260.225C1330.72 205.396 1252.24 167.376 1161.44 147.236C1081.63 124.903 1007.34 119.625 946.622 131.978C885.938 144.317 841.55 173.702 818.266 216.957C791.649 262.027 780.797 322.126 769.379 396.003C765.347 413.767 761.248 432.456 756.913 452.247C742.509 517.993 726.179 592.513 704.036 670.078C700.271 682.742 696.507 695.286 692.776 707.714C665.271 799.345 639.29 885.906 629.466 971.075C623.882 992.661 620.19 1014.1 618.506 1034.66C613.525 1095.5 625.709 1149.05 654.719 1193.83C733.29 1321.7 808.738 1354.73 974.056 1427.12C1006.46 1441.32 1043.2 1457.41 1083.71 1475.9C1137.67 1499.7 1183 1527.39 1222.99 1551.83C1275.6 1583.97 1317.16 1609.36 1356.9 1613.68C1399.86 1618.34 1436.1 1597.38 1474.39 1545.69C1518.13 1509.16 1570.35 1429.31 1617.61 1326.69C1663.06 1228.02 1694.35 1128.71 1701.34 1061C1704.61 1044.75 1706.98 1027.82 1708.38 1010.77Z" fill="#A8C4E0" fill-opacity="0.5"/>
<path d="M652.075 959.643C659.515 868.76 682.798 776.036 710.194 672.95C720.948 630.543 730.623 590.071 739.975 550.932C753.081 496.091 765.467 444.291 777.707 400.834C790.147 334.661 802.764 276.329 831.383 231.956C854.641 191.184 897.671 163.103 955.831 150.728C1014.15 138.315 1085.25 142.226 1161.45 162.034C1250.56 178.508 1327.13 212.674 1389.06 263.582C1446.6 310.406 1501.73 381.868 1557.57 482.058C1609.93 572.062 1650.84 678.621 1679.18 798.804C1696.81 874.675 1703.05 939.926 1698.27 998.263C1696.43 1020.73 1692.89 1042.95 1687.74 1064.31C1672.25 1195.37 1560.78 1447.62 1467.98 1526.13C1389.09 1632.27 1323.36 1594.39 1223.87 1537.06C1186.39 1515.45 1143.91 1490.97 1093.83 1469.91C1055.91 1453.19 1021.36 1438.59 990.867 1425.7C831.679 1358.42 759.022 1327.71 682.829 1205.81C651.139 1158.73 637.854 1101.02 643.319 1034.26C644.607 1018.53 646.981 1002.24 650.367 985.852C650.792 977.107 651.362 968.37 652.075 959.643ZM1699.34 998.741C1704.13 940.179 1697.87 874.71 1680.18 798.605C1651.8 678.201 1610.81 571.426 1558.35 481.261C1502.39 380.88 1447.15 309.25 1389.44 262.303C1327.36 211.269 1250.63 177.033 1161.4 160.531C1085.12 140.698 1013.9 136.783 955.469 149.22C897.095 161.644 853.886 189.868 830.514 230.836C801.787 275.376 789.139 333.849 776.684 400.105C764.451 443.524 752.068 495.341 738.954 550.193C729.6 589.332 719.927 629.792 709.179 672.18C681.768 775.339 658.466 868.141 651.014 959.172C650.301 967.873 649.735 976.586 649.319 985.307C645.932 1001.62 643.552 1017.99 642.258 1033.79C636.752 1101.06 650.158 1159.23 682.112 1206.71C719.018 1265.76 756.158 1305.01 806.29 1337.94C854.268 1369.46 911.523 1393.67 990.765 1427.15C1021.25 1440.04 1055.8 1454.65 1093.72 1471.36C1143.75 1492.4 1186.2 1516.87 1223.66 1538.46C1275.01 1568.04 1315.57 1591.42 1354.3 1594.71C1396.2 1598.27 1431.48 1577.52 1468.72 1527.41C1510.82 1491.79 1561.17 1415.36 1606.77 1317.75C1650.47 1224.25 1681.12 1129.74 1688.78 1064.95C1693.93 1043.61 1697.49 1021.3 1699.34 998.741Z" fill="#A8C4E0" fill-opacity="0.5"/>
<path d="M671.875 915.853C678.855 830.582 697.128 745.716 714.081 673.948C735.722 577.276 758.925 476.835 783.765 404.381C799.323 335.491 814.548 284.928 842.418 245.522C890.273 166.859 1012.25 140.044 1160.75 175.516C1248.45 188.417 1323.38 218.866 1383.51 266.023C1440.52 310.088 1494.98 378.879 1550.02 476.34C1604.04 567.467 1646.91 679.934 1673.98 801.607C1689.31 871.554 1694.57 932.151 1690.11 986.853C1687.81 1014.91 1683.04 1041.43 1675.53 1067.93C1667.21 1129.7 1637.23 1219.06 1595.3 1307.1C1551.36 1399.38 1502.93 1472.13 1462.42 1506.69C1385.63 1609.34 1321.36 1574.73 1224.06 1522.34C1189.12 1503.52 1149.52 1482.19 1103.33 1463.78C1068.06 1448.84 1035.71 1435.72 1007.18 1424.14C858.098 1363.61 783.269 1333.24 708.995 1216.89C674.359 1167.47 659.234 1102.65 665.227 1029.43C666.084 1019.06 667.318 1008.72 668.929 998.439C668.56 972.013 669.547 944.283 671.875 915.853ZM1691.17 987.327C1695.66 932.413 1690.37 871.611 1675 801.438C1647.87 679.532 1604.92 566.829 1550.79 475.53C1495.64 377.879 1441.03 308.913 1383.87 264.727C1323.58 217.453 1248.5 186.927 1160.68 174.009C1011.88 138.471 889.594 165.431 841.568 244.373C810.58 288.188 795.526 347.05 782.763 403.583C757.922 476.034 734.706 576.517 713.055 673.226C696.091 745.045 677.803 829.983 670.811 915.38C668.48 943.865 667.492 971.666 667.873 997.994C666.253 1008.27 665.015 1018.6 664.162 1028.96C658.126 1102.7 673.386 1168 708.295 1217.81C782.821 1334.55 857.769 1364.97 1007.09 1425.59C1035.62 1437.17 1067.96 1450.3 1103.24 1465.24C1149.38 1483.62 1188.96 1504.94 1223.88 1523.74C1274.09 1550.78 1313.76 1572.14 1351.59 1574.44C1392.51 1576.93 1426.91 1556.43 1463.17 1507.96C1503.7 1473.39 1552.23 1400.52 1596.23 1308.11C1638.2 1219.95 1668.24 1130.42 1676.56 1068.61C1684.08 1042.12 1688.85 1015.5 1691.17 987.327Z" fill="#A8C4E0" fill-opacity="0.5"/>
<path d="M689.095 866.596C693.786 809.281 703.297 746.603 718.175 674.99C741.298 556.631 764.81 469.216 790.055 407.736C806.551 346.264 823.672 297.45 853.704 258.753C901.701 184.986 1019.18 158.077 1160.32 188.501C1246.62 197.773 1319.92 224.511 1378.23 267.982C1434.68 309.267 1488.5 375.434 1542.75 470.244C1614.06 588.451 1650.8 717.109 1669.06 804.232C1682.4 868.86 1686.84 925.174 1682.65 976.392C1679.94 1009.43 1673.7 1040.56 1663.59 1071.58C1645.25 1191.4 1541.83 1414.63 1457.08 1487.7C1382.31 1587.02 1319.42 1555.71 1224.22 1508.31C1191.89 1492.21 1155.25 1473.96 1113.02 1458.17C1080.52 1445.03 1050.5 1433.4 1024.02 1423.15C880.038 1367.37 807.77 1339.37 735.351 1228.42C696.774 1175.53 679.948 1104.2 686.669 1022.09C686.965 1018.49 687.303 1014.89 687.683 1011.3C684.425 965.29 684.886 918.012 689.095 866.596ZM1683.71 976.866C1687.92 925.449 1683.46 868.931 1670.08 804.09C1651.78 716.791 1614.96 587.876 1543.5 469.429C1489.14 374.411 1435.19 308.08 1378.55 266.667C1320.1 223.082 1246.64 196.269 1160.23 186.991C1018.82 156.511 901.031 183.558 852.876 257.572C822.754 296.382 805.583 345.329 789.071 406.87C763.82 468.354 740.284 555.861 717.143 674.303C702.253 745.981 692.729 808.729 688.031 866.124C683.813 917.644 683.354 965.021 686.62 1010.96C686.233 1014.51 685.894 1018.06 685.605 1021.62C678.841 1104.25 695.806 1176.09 734.666 1229.36C807.33 1340.69 879.723 1368.74 1023.94 1424.6C1050.42 1434.87 1080.43 1446.49 1112.95 1459.62C1155.14 1475.41 1191.76 1493.65 1224.06 1509.73C1319.62 1557.3 1382.74 1588.73 1457.83 1488.97C1542.67 1415.85 1646.27 1192.22 1664.61 1072.3C1674.73 1041.3 1681 1010.03 1683.71 976.866Z" fill="#A8C4E0" fill-opacity="0.5"/>
<path d="M704.435 817.393C708.112 772.463 714.254 726.44 723.206 676.715C742.42 562.348 767.32 473.116 797.22 411.491C812.558 362.965 831.455 312.575 865.793 272.199C913.876 203.196 1026.71 176.05 1160.27 201.329C1246.24 206.917 1315.81 229.248 1372.99 269.616C1428.8 308.071 1481.86 371.597 1535.23 463.822C1593.16 558.463 1638.77 680.208 1663.64 806.654C1675.24 866.516 1678.96 918.94 1675.03 966.921C1671.94 1004.61 1664.12 1040.04 1651.11 1075.24C1631.36 1189.29 1533.4 1397.59 1451.43 1469.27C1378.7 1565.5 1317.2 1537.58 1224.11 1495.31C1194.54 1481.88 1161.02 1466.67 1122.91 1453.45C1093.36 1442.17 1065.85 1432.07 1041.58 1423.17C902.709 1372.27 833.006 1346.72 762.487 1241.05C710.754 1172.84 703.947 1086 707.335 1025.16L707.33 1024.97C699.302 959.574 698.355 891.674 704.435 817.393ZM1676.09 967.386C1680.03 919.22 1676.3 866.61 1664.67 806.542C1639.74 679.831 1594.04 557.824 1535.99 462.99C1482.5 370.546 1429.28 306.854 1373.3 268.279C1315.96 227.808 1246.24 205.406 1160.15 199.819C1026.34 174.496 913.227 201.763 864.989 270.986C830.558 311.472 811.608 361.995 796.264 410.558C766.343 472.214 741.4 561.576 722.165 676.074C713.204 725.849 707.058 771.92 703.375 816.921C697.286 891.31 698.232 959.318 706.266 1024.83C702.865 1086.04 709.754 1173.37 761.817 1242.02C832.582 1348.05 902.407 1373.64 1041.52 1424.64C1065.79 1433.54 1093.3 1443.62 1122.85 1454.93C1160.94 1468.13 1194.43 1483.33 1223.99 1496.76C1317.42 1539.16 1379.14 1567.19 1452.18 1470.54C1534.23 1398.79 1632.35 1190.14 1652.12 1076.01C1665.14 1040.82 1672.99 1005.25 1676.09 967.386Z" fill="#A8C4E0" fill-opacity="0.5"/>
<path d="M715.675 771.306C718.187 740.619 721.933 708.994 726.807 677.301C742.812 564.698 769.17 473.818 803.029 414.468C824.993 355.377 846.993 316.714 876.627 285.1C900.379 253.538 938.944 230.292 988.185 217.847C1037.73 205.323 1096.98 204.026 1159.54 214.096C1244.15 215.926 1312.16 234.669 1367.52 271.413C1422.77 307.035 1475.22 367.93 1527.84 457.581C1588.22 554.625 1634.68 679.452 1658.69 809.097C1668.8 864.645 1671.94 913.479 1668.25 958.399C1664.82 1000.39 1655.3 1039.72 1639.14 1078.66C1617.69 1187.93 1524.38 1380.61 1445.98 1449.89C1375.08 1542.95 1314.73 1518.42 1223.37 1481.3C1196.62 1470.43 1166.3 1458.11 1132.34 1447.36C1105.87 1437.89 1082.04 1429.71 1058.99 1421.79C924.695 1375.66 857.283 1352.5 788.394 1252.02C735.843 1185.54 725.246 1098.67 725.602 1037.49L725.587 1037.3C711.374 954.102 708.037 864.61 715.675 771.306ZM1669.32 958.868C1673.01 913.773 1669.87 864.755 1659.72 809.013C1635.66 679.091 1589.1 553.984 1528.6 456.734C1475.83 366.874 1423.23 305.802 1367.8 270.052C1312.28 233.209 1244.1 214.409 1159.38 212.583C1096.78 202.503 1037.43 203.804 987.796 216.355C938.394 228.837 899.683 252.183 875.847 283.861C846.146 315.54 824.081 354.312 802.102 413.467C768.203 472.87 741.789 563.928 725.756 676.71C720.88 708.43 717.13 740.102 714.615 770.834C706.966 864.271 710.304 953.91 724.531 1037.26C724.184 1098.79 734.874 1186.12 787.744 1253C856.876 1353.85 924.411 1377.05 1058.95 1423.27C1081.99 1431.18 1105.82 1439.36 1132.31 1448.84C1166.25 1459.58 1196.55 1471.89 1223.29 1482.76C1314.97 1520.01 1375.53 1544.62 1446.73 1451.17C1482.55 1419.52 1525.59 1357.07 1564.77 1279.89C1601.56 1207.42 1629.74 1132.49 1640.13 1079.46C1656.31 1040.53 1665.87 1001.05 1669.32 958.868Z" fill="#A8C4E0" fill-opacity="0.5"/>
<path d="M725.258 733.816C726.762 715.496 728.684 697.213 731.023 678.982C744.346 565.477 771.45 475.373 809.408 418.391C832.094 366.305 856.308 329.464 887.971 298.851C937.108 238.598 1038.42 211.933 1159.01 227.489C1242.17 225.454 1308.55 240.575 1362.03 273.717C1416.65 306.466 1468.4 364.721 1520.24 451.817C1583 551.252 1630.25 679.183 1653.34 812.062C1662.16 863.753 1664.78 909.343 1661.33 951.471C1657.56 997.48 1646.26 1040.4 1626.76 1082.7C1604.08 1184.84 1513.62 1365.74 1440.3 1431.44C1371.14 1521.54 1311.85 1500.53 1222.11 1468.71C1198.38 1460.3 1171.48 1450.76 1141.87 1442.4C1118.7 1434.76 1097.59 1428.06 1077.19 1421.6C951.393 1381.69 882.097 1359.7 814.795 1264.26C761.518 1199.56 747.135 1112.61 744.448 1051.06C722.742 950.025 716.293 843.352 725.258 733.816ZM1662.39 951.945C1665.85 909.646 1663.24 863.872 1654.38 812.004C1631.24 678.833 1583.87 550.62 1520.99 450.966C1469.01 363.64 1417.08 305.203 1362.26 272.345C1308.64 239.099 1242.09 223.931 1158.83 225.973C1038.05 210.39 936.484 237.157 887.218 297.579C855.495 328.243 831.212 365.189 808.513 417.322C770.495 474.377 743.318 564.698 729.969 678.428C727.627 696.687 725.701 714.996 724.196 733.342C715.214 843.083 721.677 949.961 743.404 1051.03C746.086 1112.73 760.561 1200.18 814.162 1265.27C881.712 1361.07 951.132 1383.09 1077.17 1423.08C1097.57 1429.54 1118.67 1436.24 1141.86 1443.88C1171.46 1452.23 1198.34 1461.76 1222.06 1470.18C1312.11 1502.1 1371.61 1523.2 1441.05 1432.72C1475.78 1401.59 1515.94 1344.12 1554.06 1270.96C1589.08 1203.72 1616.63 1133.66 1627.74 1083.55C1647.26 1041.24 1658.61 998.157 1662.39 951.945Z" fill="#A8C4E0" fill-opacity="0.5"/>
<path d="M733.317 703.163C733.956 695.364 734.68 687.573 735.49 679.79C746.251 564.929 774.084 475.657 815.984 421.628C839.065 376.405 865.575 341.599 899.464 312C948.745 256.604 1045.57 229.84 1158.51 240.371C1241.31 234.333 1304.19 245.5 1356.44 275.51C1410.41 305.322 1461.45 360.9 1512.48 445.426C1576.64 545.715 1625.94 680.095 1647.76 814.148C1655.47 862.318 1657.64 904.955 1654.4 944.513C1650.28 994.921 1637.5 1039.77 1614.19 1085.65C1590.15 1181.21 1504.69 1347.83 1434.51 1411.63C1366.95 1498.92 1308.55 1481.5 1220.14 1455.15C1199.67 1449.05 1176.48 1442.14 1151.43 1436.03C1131.83 1430.2 1113.72 1425 1096.21 1419.97C974.363 1384.98 907.244 1365.71 841.383 1275.2C787.448 1212.36 769.277 1125.37 763.521 1063.46C733.922 947.777 723.49 823.237 733.317 703.163ZM1655.46 944.987C1658.72 905.267 1656.54 862.459 1648.8 814.104C1626.94 679.758 1577.51 545.065 1513.21 444.555C1462.04 359.802 1410.82 304.04 1356.65 274.113C1304.24 244.009 1241.2 232.805 1158.3 238.854C1045.19 228.309 948.142 255.163 898.74 310.702C864.798 340.338 838.219 375.238 815.131 420.497C773.144 474.628 745.218 564.145 734.43 679.281C733.621 687.077 732.897 694.881 732.258 702.692C722.411 823.002 732.866 947.773 762.497 1063.52C768.247 1125.59 786.529 1213.04 840.768 1276.23C906.879 1367.09 974.127 1386.4 1096.21 1421.46C1113.71 1426.48 1131.82 1431.68 1151.45 1437.52C1176.49 1443.63 1199.68 1450.54 1220.13 1456.63C1265.83 1470.26 1301.92 1481.02 1335.98 1477.7C1372.75 1474.1 1403.37 1454.13 1435.26 1412.91C1468.37 1382.81 1506.71 1328.77 1543.16 1260.8C1576.39 1198.84 1603.3 1133.7 1615.14 1086.55C1638.49 1040.65 1651.33 995.619 1655.46 944.987Z" fill="#A8C4E0" fill-opacity="0.5"/>
<path d="M739.587 671.221C748.742 559.374 777.094 474.207 821.586 424.932C845.347 385.336 872.634 354.603 910.119 325.215C959.677 274.618 1052.18 247.798 1157.63 253.429C1239.08 243.402 1300.46 251.095 1350.85 277.624C1403.5 304.154 1455.35 358.625 1505 439.541C1571.61 542.206 1621.82 679.768 1642.75 816.985C1649.51 862.031 1651.3 902.02 1648.25 939.241C1643.84 993.219 1629.19 1040.96 1602.15 1089.48C1575.85 1181.59 1496.24 1330.78 1428.96 1392.78C1362.65 1477.55 1307.82 1464.56 1216.97 1443.03C1199.25 1438.83 1180.94 1434.49 1160.73 1430.44C1144.97 1426.34 1130.17 1422.6 1115.85 1418.98C997.249 1389.03 931.918 1372.53 867.137 1286.63C812.483 1225.63 790.458 1138.53 781.594 1076.2C743.292 946.104 728.529 809.407 738.859 680.735C739.087 677.562 739.329 674.391 739.587 671.221ZM1649.32 939.71C1652.38 902.332 1650.57 862.177 1643.79 816.971C1622.81 679.446 1572.48 541.56 1505.72 438.67C1455.93 357.513 1403.88 302.848 1351.03 276.207C1300.47 249.595 1238.93 241.874 1157.39 251.913C1051.81 246.268 959.091 273.176 909.426 323.886C871.892 353.306 844.538 384.115 820.77 423.739C776.164 473.129 747.704 558.569 738.522 670.747C738.263 673.921 738.021 677.097 737.798 680.273C727.445 809.195 742.24 946.164 780.584 1076.36C789.455 1138.84 811.601 1226.37 866.544 1287.69C931.576 1373.93 997.041 1390.46 1115.88 1420.48C1130.2 1424.1 1145 1427.84 1160.78 1431.94C1180.99 1435.98 1199.3 1440.33 1217.01 1444.52C1262.4 1455.28 1298.25 1463.77 1331.92 1459.14C1368.24 1454.15 1398.4 1434.09 1429.72 1394.04C1461.26 1364.97 1497.86 1314.36 1532.71 1251.57C1564.17 1194.9 1590.48 1134.65 1603.09 1090.43C1630.18 1041.87 1644.89 993.931 1649.32 939.71Z" fill="#A8C4E0" fill-opacity="0.5"/>
<path d="M744.444 656.753C753.099 550.992 781.895 471.998 827.717 428.31C851.307 394.942 880.139 367.21 921.259 338.328C971.137 292.369 1059.26 265.378 1157.03 266.098C1238.15 251.734 1296.21 255.769 1345.37 279.195C1397.39 302.809 1448.55 354.609 1497.48 433.155C1566.48 538.244 1617.53 679.088 1637.53 819.614C1643.45 861.857 1644.93 899.478 1642.05 934.614C1637.35 992.05 1620.77 1042.51 1589.88 1093.41C1562.32 1178.35 1487.17 1314.59 1423.29 1374.49C1357.86 1457.33 1303.04 1448 1212.22 1432.56C1198.84 1430.29 1184.98 1427.93 1170.13 1425.71C1158.66 1423.22 1147.62 1420.9 1137 1418.64C1021.09 1394.15 957.236 1380.65 893.268 1299.03C838.006 1239.89 812.127 1152.59 800.138 1089.77C755.116 953.214 735.299 812.303 742.788 682.106C743.203 673.646 743.755 665.194 744.444 656.753ZM1643.11 935.088C1646 899.794 1644.52 862.025 1638.58 819.623C1618.53 678.771 1567.36 537.592 1498.2 432.272C1449.12 353.476 1397.74 301.481 1345.51 277.759C1296.19 254.262 1237.98 250.197 1156.76 264.581C1058.87 263.863 970.568 290.923 920.598 336.973C879.436 365.876 850.542 393.673 826.948 427.065C780.984 470.874 752.068 550.159 743.382 656.281C742.692 664.743 742.139 673.215 741.722 681.696C734.216 812.139 754.075 953.344 799.15 1090.02C811.152 1152.99 837.164 1240.68 892.695 1300.11C956.923 1382.08 1020.91 1395.59 1137.06 1420.15C1147.68 1422.4 1158.71 1424.72 1170.21 1427.21C1185.09 1429.44 1198.93 1431.79 1212.32 1434.07C1257.77 1441.79 1293.67 1447.9 1327.17 1441.81C1363.26 1435.25 1393.14 1414.88 1424.04 1375.76C1487.98 1315.81 1563.26 1179.35 1590.81 1094.4C1621.75 1043.45 1638.39 992.775 1643.11 935.088Z" fill="#A8C4E0" fill-opacity="0.5"/>
<path d="M749.008 645.728C757.289 544.552 786.692 470.591 834.042 431.838C861.21 399.455 893.058 376.396 932.538 351.725C983.605 309.753 1065.21 283.333 1156.47 279.198C1210.09 266.667 1279.34 255.586 1339.84 281.24C1391.18 301.901 1441.64 350.981 1489.83 427.111C1560.16 532.943 1613.36 680.629 1632.14 822.196C1637.32 861.862 1638.52 897.286 1635.8 930.486C1630.77 991.992 1612.79 1043.35 1577.48 1097C1548.18 1176.11 1476.97 1298.78 1417.58 1355.46C1352.43 1436.99 1296.89 1431.54 1204.87 1422.52C1196.74 1421.73 1188.33 1420.91 1179.61 1420.11C1173 1419.03 1166.51 1417.98 1160.17 1416.95C1049.81 1399.09 983.207 1388.31 919.6 1310.62C863.809 1253.44 834.062 1166.02 818.923 1102.75C767.884 962.123 742.344 813.211 746.964 683.323C747.328 670.498 748.017 657.848 749.008 645.728ZM1636.86 930.96C1639.59 897.616 1638.4 862.048 1633.2 822.222C1624.39 755.847 1607.64 686.008 1584.73 620.237C1559.36 547.349 1527.68 482.073 1490.55 426.218C1442.19 349.816 1391.51 300.547 1339.94 279.787C1279.22 254.042 1209.83 265.141 1156.15 277.69C1064.81 281.822 983.057 308.306 931.911 350.341C892.405 375.027 860.501 398.127 833.32 430.541C785.799 469.424 756.259 543.689 747.947 645.255C746.952 657.408 746.263 670.094 745.896 682.949C743.59 747.713 748.546 816.557 760.631 887.563C772.87 959.509 792.158 1032.02 817.954 1103.08C833.118 1166.49 863.006 1254.29 919.053 1311.74C982.926 1389.75 1049.68 1400.56 1160.27 1418.47C1166.61 1419.48 1173.09 1420.53 1179.73 1421.62C1188.48 1422.41 1196.89 1423.25 1205.02 1424.04C1297.28 1433.08 1352.97 1438.54 1418.33 1356.73C1477.78 1299.99 1549.1 1177.14 1578.39 1098.03C1613.75 1044.31 1631.8 992.745 1636.86 930.96Z" fill="#A8C4E0" fill-opacity="0.5"/>
<path d="M753.432 636.598C761.425 538.935 791.554 469.172 840.558 434.857C870.249 405.298 906.057 385.517 943.968 364.577C995.758 327.1 1073.02 300.551 1155.99 291.713C1211.86 275.3 1276.69 261.404 1334.33 282.679C1384.97 300.35 1434.7 346.698 1482.15 420.443C1554.8 528.551 1608.81 679.458 1626.65 824.134C1631.17 861.437 1632.12 894.861 1629.55 926.287C1624.26 990.958 1604.35 1044.53 1564.99 1099.96C1534.06 1172.74 1468.35 1280.83 1411.82 1335.86C1345.83 1417.37 1288.15 1416.11 1192.57 1414.04L1189.11 1413.97L1186.28 1413.69C1076.35 1402.69 1010 1396.07 946.039 1321.7C889.81 1266.53 856.178 1178.97 837.858 1115.22C780.168 968.747 749.463 815.659 751.353 684.051C751.493 667.708 752.193 651.746 753.432 636.598ZM1630.61 926.761C1633.19 895.191 1632.24 861.642 1627.7 824.174C1609.82 679.166 1555.67 527.899 1482.86 419.534C1435.22 345.516 1385.27 298.973 1334.38 281.211C1276.53 259.852 1211.56 273.781 1155.63 290.211C1072.61 299.051 995.228 325.649 943.374 363.172C905.456 384.114 869.603 403.917 839.886 433.508C790.677 467.96 760.399 538.039 752.37 636.126C751.127 651.32 750.426 667.332 750.287 683.72C748.389 815.603 779.157 968.998 836.916 1115.64C855.27 1179.52 889.045 1267.44 945.517 1322.84C1009.76 1397.54 1076.26 1404.19 1186.42 1415.19L1189.28 1415.48L1192.78 1415.55C1288.57 1417.64 1346.38 1418.89 1412.57 1337.13C1469.15 1282.04 1534.96 1173.81 1565.88 1101.02C1605.31 1045.51 1625.3 991.734 1630.61 926.761Z" fill="#A8C4E0" fill-opacity="0.5"/>
<path d="M756.693 629.862C764.456 535.009 795.409 468.914 846.206 438.712C872.192 417.438 902.989 402.854 935.59 387.411C941.936 384.414 948.27 381.394 954.593 378.351C1007.86 345.065 1080.84 318.437 1154.86 305.291C1209.69 285.74 1273.11 268.091 1328.29 285.283C1378.25 299.967 1427.3 343.597 1474.07 414.968C1549.1 525.345 1603.98 679.44 1620.89 827.167C1624.86 862.314 1625.59 893.873 1623.16 923.651C1617.62 991.383 1595.74 1046.96 1552.23 1103.86C1519.93 1169.56 1459.27 1263.84 1405.7 1317.06C1342.03 1394.44 1284.79 1403.2 1198.08 1408.46C1098.25 1406.32 1033.89 1401.54 971.755 1333.32C915.098 1280.18 877.532 1192.48 855.985 1128.26C791.571 976.099 755.661 818.885 754.837 685.477C754.628 666.15 755.254 647.438 756.693 629.862ZM1624.22 924.12C1626.67 894.212 1625.93 862.527 1621.96 827.233C1604.99 679.151 1549.98 524.696 1474.78 414.051C1427.81 342.386 1378.53 298.559 1328.3 283.801C1272.91 266.544 1209.34 284.227 1154.46 303.798C1080.41 316.95 1007.34 343.605 954.037 376.923C947.728 379.959 941.407 382.971 935.076 385.96C902.431 401.423 871.6 416.028 845.585 437.322C821.075 451.894 800.917 475.212 785.718 506.604C769.72 539.65 759.597 580.961 755.633 629.389C754.19 647.026 753.564 665.796 753.77 685.184C754.594 818.873 790.57 976.397 855.065 1128.75C876.657 1193.11 914.377 1281.13 971.256 1334.48C1033.69 1403.03 1098.21 1407.83 1198.31 1409.98C1285.24 1404.71 1342.61 1395.91 1406.46 1318.33C1460.07 1265.07 1520.81 1170.67 1553.09 1104.98C1596.7 1047.96 1618.65 992.164 1624.22 924.12Z" fill="#A8C4E0" fill-opacity="0.5"/>
<path d="M760.89 623.937C768.477 531.231 800.32 468.257 852.976 441.836C876.386 426.35 903.342 415.938 931.882 404.913C943.035 400.603 954.571 396.146 966.325 391.23C1007.35 369.537 1073.32 339.189 1154.8 317.73C1211.27 293.761 1270.73 273.412 1323.3 286.598C1372.56 298.246 1420.91 339.185 1466.99 408.273C1544.36 521.018 1600.1 678.447 1616.04 829.425C1619.45 862.168 1620.02 892.921 1617.74 920.822C1611.95 991.612 1588.08 1049.15 1540.35 1107.41C1509.61 1161.1 1454.56 1243.24 1400.47 1298.3C1340.35 1370.13 1286.44 1390.61 1207.96 1403.28C1113.64 1410.74 1055.33 1403.82 998.437 1345.3C941.454 1294.2 899.934 1206.26 875.132 1141.49C804.024 983.603 762.943 822.072 759.433 686.58C758.794 664.613 759.286 643.538 760.89 623.937ZM1618.8 921.296C1621.1 893.26 1620.52 862.382 1617.09 829.51C1609.7 759.477 1592.96 684.911 1568.71 613.866C1542.35 536.644 1507.41 465.229 1467.68 407.351C1421.4 337.949 1372.8 296.818 1323.26 285.099C1270.5 271.865 1210.9 292.253 1154.36 316.252C1072.86 337.712 1006.84 368.084 965.81 389.781C954.093 394.68 942.563 399.133 931.414 403.444C902.84 414.481 875.85 424.905 852.41 440.411C827.003 453.161 806.163 474.783 790.513 504.669C774.028 536.145 763.705 576.111 759.829 623.464C758.219 643.139 757.728 664.288 758.366 686.324C761.883 822.108 803.036 983.947 874.24 1142.04C899.101 1206.97 940.771 1295.2 997.973 1346.49C1026.19 1375.53 1056.27 1392.93 1092.58 1401.21C1129.06 1409.51 1169.74 1407.84 1208.26 1404.79C1286.93 1392.09 1340.97 1371.56 1401.22 1299.56C1455.35 1244.47 1510.46 1162.25 1541.19 1108.57C1589.03 1050.2 1612.98 992.41 1618.8 921.296Z" fill="#A8C4E0" fill-opacity="0.5"/>
<path d="M764.015 619.038C771.448 528.212 804.216 468.163 858.779 445.383C880.276 434.235 904.553 427.064 930.252 419.47C945.403 414.993 961.076 410.366 977.048 404.669C987.71 400.063 998.82 395.183 1010.35 390.117C1053.26 371.267 1101.9 349.907 1153.71 330.942C1217.65 299.254 1269.91 279.975 1317.22 288.831C1365.77 297.439 1413.4 335.652 1458.79 402.406C1537.34 515.672 1595.32 680.275 1610.1 831.991C1613.06 862.91 1613.47 892.038 1611.31 918.543C1605.19 993.236 1580.11 1050.74 1527.43 1110.83C1511.62 1134.2 1455.38 1215.23 1394.24 1279.05C1339.88 1342.61 1288.51 1376.88 1216.88 1397.34C1153.18 1410.74 1085.73 1415.06 1024.19 1356.49C978.885 1317.7 933.656 1247.74 893.365 1154.14C815.562 990.821 769.307 825.173 763.105 687.699C761.968 663.418 762.274 640.319 764.015 619.038ZM1612.36 919.017C1614.55 892.385 1614.14 863.146 1611.15 832.098C1604.22 760.885 1587.49 684.792 1562.79 612.03C1535.98 533.071 1500.25 460.265 1459.48 401.471C1413.86 334.395 1365.97 295.987 1317.14 287.33C1269.63 278.432 1217.26 297.748 1153.21 329.483C1101.42 348.439 1052.78 369.805 1009.86 388.66C998.325 393.724 987.216 398.602 976.578 403.202C960.643 408.88 944.982 413.507 929.838 417.983C904.105 425.59 879.799 432.771 858.268 443.933C831.937 454.924 810.403 474.943 794.278 503.428C777.289 533.435 766.752 572.173 762.954 618.566C761.206 639.93 760.899 663.119 762.039 687.485C768.255 825.252 814.587 991.207 892.503 1154.76C932.896 1248.6 978.292 1318.8 1023.76 1357.72C1050.79 1383.45 1080.13 1398.78 1113.43 1404.54C1142.13 1409.52 1175.12 1407.71 1217.26 1398.84C1289.07 1378.32 1340.55 1343.98 1395 1280.31C1456.17 1216.48 1512.45 1135.37 1528.24 1112.04C1581.05 1051.79 1606.23 994.056 1612.36 919.017Z" fill="#A8C4E0" fill-opacity="0.5"/>
<path d="M767.128 614.757C774.335 526.69 809.007 467.7 864.758 448.653C884.78 440.87 907.066 436.273 930.664 431.406C949.277 427.565 968.53 423.596 988.062 417.783C1035.14 401.932 1086.7 376.481 1141.29 349.539L1153.06 343.735C1205.89 313.549 1261.66 284.587 1311.74 290.594C1359.58 296.148 1406.55 331.673 1451.31 396.188C1532.26 511.767 1591.15 679.765 1604.99 834.627C1607.58 863.893 1607.85 891.533 1605.78 916.769C1597.79 1014.41 1555.55 1071.57 1515.28 1114.62C1491.84 1143.45 1444.26 1200.7 1388.65 1260.34C1344.14 1311.08 1293.68 1362.16 1226.28 1392.1C1156.36 1419.41 1100.42 1411.85 1050.26 1368.32C1004.13 1330.65 957.549 1263.01 911.802 1167.25C827.234 998.408 775.765 828.496 766.869 688.801C765.179 662.402 765.267 637.492 767.128 614.757ZM1606.84 917.243C1608.91 891.891 1608.65 864.142 1606.06 834.751C1592.17 679.515 1533.14 511.101 1451.99 395.239C1406.99 330.387 1359.76 294.669 1311.6 289.083C1261.32 283.05 1205.44 312.063 1152.51 342.295L1140.77 348.091C1086.2 375.029 1034.66 400.464 987.633 416.298C968.141 422.101 948.905 426.068 930.304 429.902C906.679 434.78 884.363 439.381 864.302 447.18C837.009 456.504 814.734 475.041 798.101 502.271C780.578 530.967 769.798 568.652 766.064 614.283C764.196 637.111 764.109 662.126 765.804 688.623C774.724 828.614 826.277 998.84 910.964 1167.93C956.825 1263.92 1003.56 1331.79 1049.87 1369.59C1100.31 1413.36 1156.53 1420.99 1226.77 1393.56C1294.31 1363.55 1344.85 1312.42 1389.41 1261.61C1445.02 1201.95 1492.61 1144.69 1516.05 1115.87C1556.42 1072.71 1598.81 1015.34 1606.84 917.243Z" fill="#A8C4E0" fill-opacity="0.5"/>
<path d="M770.179 611.163C777.283 524.355 812.999 467.876 870.749 452.128C889.549 447.048 910.248 444.558 932.16 441.921C953.919 439.308 976.417 436.602 999.07 431.125C1043.02 420.494 1088.87 398.26 1152.37 356.787C1206.28 321.651 1258.6 290.313 1306.18 292.658C1353.32 295.144 1399.61 327.973 1443.76 390.243C1527.09 508.105 1586.89 679.446 1599.8 837.408C1602.03 865.122 1602.17 891.367 1600.21 915.401C1591.92 1016.69 1546.44 1074.87 1503.04 1118.42C1495.98 1125.51 1488.7 1132.73 1481.26 1140.11C1451.57 1169.6 1417.92 1203.01 1383.01 1241.62C1374.74 1250.76 1366.28 1260.33 1358.1 1269.6C1319.89 1312.85 1280.38 1357.57 1235.65 1386.78C1182.91 1421.18 1126.33 1418.8 1076.34 1380.07C1030.09 1344.09 980.944 1276.89 930.264 1180.33C838.944 1006.08 782.26 831.95 770.657 690.011C768.375 661.681 768.215 635.152 770.179 611.163ZM1601.27 915.875C1603.25 891.729 1603.11 865.38 1600.86 837.545C1587.91 679.204 1527.97 507.442 1444.43 389.282C1400.03 326.662 1353.46 293.642 1306 291.145C1258.2 288.794 1205.77 320.19 1151.77 355.387C1088.34 396.813 1042.56 419.018 998.687 429.626C976.074 435.095 953.596 437.799 931.858 440.412C909.919 443.05 889.197 445.543 870.347 450.64C842.073 458.351 819.044 475.47 801.893 501.529C783.828 528.994 772.797 565.718 769.117 610.69C767.145 634.787 767.308 661.43 769.594 689.872C775.373 760.55 792.37 839.483 820.114 924.49C847.636 1008.81 884.425 1095.13 929.455 1181.06C980.257 1277.86 1029.56 1345.24 1075.99 1381.37C1126.3 1420.35 1183.23 1422.78 1236.26 1388.18C1281.07 1358.92 1320.62 1314.15 1358.87 1270.85C1367.04 1261.59 1375.5 1252.02 1383.76 1242.89C1418.66 1204.29 1452.3 1170.89 1481.98 1141.41C1489.43 1134.03 1496.7 1126.8 1503.77 1119.72C1547.31 1076.03 1592.94 1017.64 1601.27 915.875Z" fill="#A8C4E0" fill-opacity="0.5"/>
<path d="M783.809 615.088C790.881 528.684 825.124 472.694 880.237 457.433C899.754 452.012 921.002 449.545 943.494 446.935C963.516 444.611 984.22 442.208 1005.25 437.532C1015.1 435.293 1025.38 432.357 1035.81 428.807C1070.39 417.034 1107.19 398.465 1155.11 368.61C1207.72 335.996 1258.8 306.973 1305.32 310.077C1351.32 313.274 1396.38 345.446 1439.26 405.694C1488.71 475.117 1528.42 561.955 1554.09 656.821C1570.93 717.588 1582 781.326 1586.12 841.167C1588.07 867.56 1588.09 892.661 1586.21 915.771C1581.13 977.857 1562.45 1029.15 1527.45 1077.17C1517.81 1090.3 1506.8 1103.39 1493.78 1117.18C1483.61 1128.12 1473.12 1139.21 1462 1150.96C1437.1 1177.32 1408.86 1207.16 1379.74 1240.23C1375.01 1245.67 1370.24 1251.16 1365.46 1256.68C1332.9 1294.23 1299.23 1333.05 1262.07 1362.32C1253.24 1369.27 1244.42 1375.53 1235.86 1380.89C1184.42 1413.34 1129.16 1410.49 1080.24 1372.86C1034.62 1337.68 986.437 1272.62 937.045 1179.52C903.591 1117.28 874.206 1050.45 849.702 980.874C832.445 932.458 817.932 883.402 806.568 835.073C795.191 786.549 788.096 741.653 784.244 693.768C781.989 665.608 781.842 639.132 783.809 615.088ZM1587.27 916.245C1589.17 893.035 1589.14 867.818 1587.18 841.319C1583.05 781.348 1571.94 717.448 1555.07 656.544C1529.34 561.427 1489.52 474.347 1439.93 404.731C1396.81 344.14 1351.46 311.783 1305.15 308.564C1258.42 305.446 1207.24 334.519 1154.53 367.199C1106.64 397.026 1069.89 415.571 1035.37 427.329C1024.96 430.869 1014.7 433.8 1004.88 436.035C983.884 440.701 963.198 443.101 943.196 445.422C920.672 448.035 899.403 450.507 879.833 455.943C824.344 471.31 789.864 527.661 782.748 614.615C780.771 638.768 780.919 665.35 783.182 693.622C787.045 741.623 794.157 786.637 805.561 835.271C816.944 883.684 831.482 932.819 848.767 981.317C873.308 1050.99 902.739 1117.93 936.241 1180.27C985.751 1273.6 1034.09 1338.84 1079.9 1374.17C1129.13 1412.03 1184.73 1414.93 1236.45 1382.3C1245.04 1376.92 1253.87 1370.65 1262.71 1363.68C1299.95 1334.37 1333.64 1295.51 1366.23 1257.93C1371.01 1252.41 1375.77 1246.91 1380.52 1241.49C1409.62 1208.43 1436.63 1179.87 1462.74 1152.24C1473.86 1140.49 1484.35 1129.4 1494.53 1118.46C1507.58 1104.64 1518.61 1091.53 1528.26 1078.37C1563.41 1030.15 1582.16 978.624 1587.27 916.245Z" fill="#A8C4E0" fill-opacity="0.5"/>
<path d="M797.464 618.437C804.489 532.594 837.226 477.187 889.643 462.422C909.907 456.636 931.694 454.218 954.761 451.657C973.009 449.632 991.877 447.539 1011.21 443.632C1020.76 441.609 1030.77 438.935 1040.99 435.684C1074.86 424.904 1110.78 407.785 1157.46 380.172C1208.71 350.094 1258.48 323.414 1303.88 327.272C1348.7 331.189 1392.49 362.662 1434.05 420.832C1483.1 489.184 1521.02 573.907 1543.71 665.847C1558.86 724.167 1568.24 784.153 1571.56 844.16C1573.22 869.195 1573.14 893.105 1571.33 915.225C1566.36 975.921 1548.6 1026.71 1515.44 1075.06C1506.35 1088.17 1495.97 1101.2 1483.73 1114.92C1469.65 1131.23 1454.71 1148.05 1438.89 1165.83C1418.77 1188.46 1397.97 1211.86 1375.82 1237.74L1373.48 1240.51C1338.43 1282.13 1302.19 1325.14 1261.23 1356.25C1252.62 1362.8 1243.98 1368.71 1235.57 1373.77C1185.49 1404.24 1131.61 1400.93 1083.83 1364.44C1038.87 1330.09 991.714 1267.26 943.667 1177.7C910.72 1117.91 882.945 1053.52 858.739 980.851C842.725 933.91 829.476 886.687 818.226 836.487C808.083 790.959 801.988 749.234 797.851 696.982C795.62 668.988 795.49 642.563 797.464 618.437ZM1572.39 915.699C1574.21 893.485 1574.29 869.475 1572.64 844.347C1569.3 784.199 1559.9 724.06 1544.71 665.609C1521.96 573.409 1483.92 488.428 1434.72 419.862C1392.92 361.363 1348.84 329.704 1303.73 325.76C1258.13 321.885 1208.25 348.617 1156.88 378.758C1110.26 406.338 1074.38 423.437 1040.56 434.202C1030.37 437.446 1020.37 440.111 1010.85 442.131C991.548 446.032 972.696 448.125 954.466 450.147C931.372 452.708 909.555 455.132 889.237 460.934C863.462 468.194 842.299 485.334 826.335 511.88C810.014 539.023 799.943 574.716 796.404 617.964C794.421 642.197 794.553 668.735 796.792 696.842C800.939 749.207 807.045 791.025 817.217 836.662C828.484 886.945 841.755 934.244 857.791 981.259C882.037 1054.05 909.869 1118.56 942.874 1178.46C991.036 1268.24 1038.35 1331.26 1083.49 1365.75C1131.58 1402.47 1185.79 1405.82 1236.14 1375.18C1244.59 1370.11 1253.24 1364.19 1261.88 1357.62C1302.9 1326.46 1339.17 1283.4 1374.26 1241.76L1376.6 1238.99C1398.73 1213.12 1419.54 1189.72 1439.65 1167.09C1455.48 1149.3 1470.41 1132.49 1484.49 1116.18C1496.75 1102.43 1507.15 1089.36 1516.28 1076.23C1549.57 1027.69 1567.4 976.674 1572.39 915.699Z" fill="#A8C4E0" fill-opacity="0.5"/>
<path d="M811.173 621.591C818.057 537.459 850.148 481.126 899.216 467.03C920.313 460.822 942.679 458.477 966.36 455.992C982.84 454.264 999.876 452.478 1017.48 449.278C1026.75 447.455 1036.51 445.035 1046.5 442.083C1079.7 432.27 1114.78 416.557 1160.28 391.119C1210.24 363.501 1258.75 339.094 1303.09 343.7C1346.77 348.321 1389.34 379.153 1429.62 435.322C1478.32 502.713 1514.5 585.464 1534.22 674.651C1547.5 729.693 1555.47 787.762 1557.94 847.267C1559.31 870.957 1559.12 893.674 1557.39 914.812C1552.52 974.247 1535.64 1024.67 1504.29 1073.51C1495.71 1086.61 1485.96 1099.62 1474.49 1113.29C1454.99 1137.77 1433.4 1163.48 1410.55 1190.7C1398.33 1205.27 1385.68 1220.32 1372.57 1236.13C1338.83 1277.79 1302.42 1320.99 1260.95 1351.32C1252.51 1357.52 1244.04 1363.08 1235.77 1367.84C1187.01 1396.4 1134.43 1392.63 1087.74 1357.24C1043.4 1323.66 997.215 1262.95 950.473 1176.8C917.74 1118.8 891.495 1056.72 867.877 981.419C853.343 936.708 840.94 889.883 829.953 838.231C819.732 789.82 815.45 750.994 811.503 700.283C809.295 672.364 809.184 645.891 811.173 621.591ZM1558.45 915.287C1560.18 894.054 1560.37 871.234 1559 847.464C1556.54 787.839 1548.54 729.624 1535.23 674.458C1515.45 584.995 1479.15 501.964 1430.29 434.347C1389.77 377.854 1346.93 346.845 1302.95 342.193C1258.4 337.559 1209.79 362.011 1159.73 389.687C1114.27 415.099 1079.23 430.799 1046.09 440.597C1036.12 443.542 1026.37 445.954 1017.13 447.777C999.556 450.965 982.533 452.755 966.071 454.481C942.355 456.967 919.958 459.318 898.805 465.541C849.369 479.742 817.04 536.447 810.111 621.119C808.114 645.524 808.227 672.11 810.442 700.14C814.396 750.938 818.69 789.847 828.934 838.382C839.942 890.112 852.364 937.02 866.922 981.789C890.582 1057.24 916.884 1119.45 949.687 1177.57C996.546 1263.95 1042.88 1324.84 1087.4 1358.55C1134.41 1394.17 1187.3 1397.99 1236.35 1369.27C1244.63 1364.49 1253.12 1358.91 1261.58 1352.7C1303.13 1322.31 1339.58 1279.07 1373.35 1237.36C1386.46 1221.56 1399.1 1206.5 1411.33 1191.94C1434.18 1164.72 1455.77 1139 1475.27 1114.53C1486.76 1100.83 1496.52 1087.78 1505.14 1074.65C1536.62 1025.63 1553.55 974.992 1558.45 915.287Z" fill="#A8C4E0" fill-opacity="0.5"/>
<path d="M823.93 624.279C830.755 540.862 861.358 485.255 907.895 471.716C929.91 465.098 952.897 462.898 977.234 460.566C991.942 459.158 1007.16 457.701 1022.98 455.196C1031.97 453.594 1041.5 451.447 1051.3 448.803C1083.84 440.026 1118.13 425.787 1162.49 402.633C1209.26 378.584 1258.54 355.556 1301.85 360.979C1344.45 366.364 1385.86 396.543 1424.92 450.677C1473.35 517.04 1507.84 597.731 1524.65 684.025C1536.09 735.593 1542.7 791.649 1544.28 850.671C1545.37 872.932 1545.08 894.386 1543.44 914.458C1538.69 972.546 1522.69 1022.54 1493.1 1071.79C1485.03 1084.84 1475.9 1097.8 1465.19 1111.4C1436.99 1149.71 1404.05 1190.6 1369.18 1233.9C1339.07 1272.49 1302.6 1315.91 1260.41 1345.41C1252.15 1351.22 1243.85 1356.41 1235.71 1360.85C1188.21 1387.38 1136.89 1383.11 1091.21 1348.81C1047.42 1316.01 1002.14 1257.46 956.627 1174.79C923.871 1118.28 899.074 1058.55 876.216 981.102C862.96 938.318 851.706 893.26 840.793 839.308C830.888 789.819 828.05 752.89 824.451 706.127L824.223 703.126C822.023 675.289 821.926 648.764 823.93 624.279ZM1544.51 914.927C1546.15 894.775 1546.44 873.226 1545.35 850.9C1543.76 791.765 1537.14 735.562 1525.67 683.882C1508.8 597.3 1474.19 516.31 1425.58 449.698C1386.29 395.249 1344.62 364.889 1301.72 359.474C1258.21 354.028 1208.82 377.098 1161.96 401.193C1117.64 424.329 1083.39 438.551 1050.9 447.317C1041.12 449.949 1031.61 452.098 1022.65 453.692C1006.85 456.196 991.648 457.649 976.947 459.056C952.577 461.389 929.554 463.592 907.481 470.229C860.577 483.875 829.739 539.854 822.868 623.807C820.856 648.397 820.952 675.033 823.162 702.981L823.391 705.98C826.994 752.813 829.839 789.8 839.771 839.434C850.699 893.469 861.972 938.588 875.248 981.437C898.154 1059.05 923.016 1118.93 955.85 1175.58C1001.48 1258.46 1046.91 1317.18 1090.88 1350.12C1136.86 1384.64 1188.49 1388.96 1236.27 1362.28C1244.42 1357.83 1252.75 1352.61 1261.04 1346.79C1303.31 1317.25 1339.82 1273.76 1369.97 1235.11C1404.85 1191.82 1437.8 1150.92 1465.99 1112.59C1476.72 1098.98 1485.88 1086 1493.97 1072.9C1523.68 1023.47 1539.73 973.272 1544.51 914.927Z" fill="#A8C4E0" fill-opacity="0.5"/>
<path d="M837.587 627.671C844.352 545.001 873.409 490.102 917.311 477.043C940.247 469.94 963.803 467.899 988.743 465.74C1001.64 464.624 1014.98 463.473 1028.94 461.567C1037.77 460.151 1046.77 458.305 1056.47 455.933C1088.27 448.143 1121.7 435.313 1164.83 414.341C1210.27 392.672 1258.18 372.033 1300.4 378.205C1341.82 384.293 1381.95 413.784 1419.67 465.863C1467.69 531.186 1500.38 609.815 1514.22 693.259C1523.95 741.936 1529 794.514 1529.68 854.035C1530.49 874.824 1530.1 894.977 1528.56 913.94C1523.91 970.781 1508.8 1020.46 1481.03 1070.26C1473.5 1083.31 1464.99 1096.22 1455.06 1109.75C1431.61 1144.58 1403.88 1182.34 1365.15 1232.17C1327.1 1283.14 1293.53 1317.49 1259.49 1340.25C1251.43 1345.7 1243.3 1350.55 1235.33 1354.67C1189.2 1379.28 1139.26 1374.57 1094.71 1341.4C1052.2 1309.86 1006.73 1251.94 963.201 1173.88C921.732 1104 899.747 1034.56 885.227 981.868C870.006 929.892 859.706 879.495 852.437 841.4C844.407 798.77 842.103 766.509 839.438 729.161C838.913 721.743 838.373 714.326 837.816 706.911C835.639 679.079 835.561 652.42 837.587 627.671ZM1529.62 914.414C1531.17 895.365 1531.55 875.145 1530.75 854.292C1530.07 794.66 1525 741.951 1515.25 693.174C1501.35 609.422 1468.53 530.467 1420.33 464.884C1382.37 412.501 1341.98 382.826 1300.29 376.705C1257.87 370.499 1209.85 391.186 1164.31 412.898C1121.22 433.846 1087.84 446.66 1056.09 454.438C1046.41 456.808 1037.43 458.651 1028.62 460.06C1014.69 461.961 1001.36 463.116 988.466 464.23C963.486 466.391 939.893 468.429 916.891 475.56C872.63 488.722 843.337 543.994 836.527 627.199C834.493 652.054 834.569 678.824 836.759 706.763C837.342 714.48 837.867 721.856 838.38 728.998C841.05 766.42 843.356 798.737 851.411 841.495C858.693 879.65 869.003 930.117 884.246 982.17C898.801 1034.98 920.844 1104.6 962.429 1174.68C1006.07 1252.94 1051.69 1311.04 1094.38 1342.71C1139.23 1376.1 1189.47 1380.86 1235.86 1356.11C1243.86 1351.97 1252.01 1347.11 1260.1 1341.65C1294.21 1318.82 1327.85 1284.43 1365.96 1233.37C1404.7 1183.53 1432.44 1145.77 1455.89 1110.93C1465.84 1097.39 1474.35 1084.43 1481.91 1071.35C1509.78 1021.36 1524.95 971.485 1529.62 914.414Z" fill="#A8C4E0" fill-opacity="0.5"/>
<path d="M851.297 630.435C857.887 549.926 886.134 494.508 926.857 482.179C950.784 474.572 974.936 472.786 1000.5 470.892C1011.61 470.07 1023.09 469.218 1035.16 467.87C1043.69 466.671 1052.45 465.083 1061.94 463.022C1092.63 456.344 1126.19 444.633 1167.58 426.153C1211.75 406.915 1258.33 388.725 1299.53 395.694C1339.81 402.518 1378.71 431.339 1415.17 481.347C1462.83 545.61 1493.78 622.146 1504.69 702.682C1512.72 748.147 1516.32 797.316 1516.03 857.456C1516.57 876.703 1516.12 895.453 1514.66 913.202C1510.11 968.791 1495.88 1018.15 1469.9 1068.56C1462.89 1081.57 1455.02 1094.45 1445.83 1107.88C1422.4 1146.02 1394.97 1185.96 1361.94 1229.99C1327.89 1277.64 1293.35 1312.79 1259.28 1334.45C1251.41 1339.52 1243.45 1344.01 1235.62 1347.82C1190.81 1370.43 1142.2 1365.24 1098.71 1333.18C1056.8 1302.44 1012.32 1246.77 970.081 1172.17C929.177 1104.97 908.878 1038.29 894.419 981.936C881.289 934.418 872.131 887.026 864.19 842.898C857.466 804.947 855.757 777.122 853.777 744.907C853.108 733.978 852.41 722.677 851.481 710.217C849.308 682.344 849.246 655.505 851.297 630.435ZM1515.72 913.671C1517.18 895.846 1517.64 877.033 1517.09 857.742C1517.38 797.506 1513.77 748.211 1505.73 702.658C1494.78 621.79 1463.69 544.903 1415.82 480.36C1379.15 430.058 1340 401.065 1299.44 394.193C1258.04 387.192 1211.35 405.424 1167.08 424.702C1125.74 443.156 1092.21 454.86 1061.58 461.525C1052.1 463.585 1043.36 465.168 1034.86 466.364C1022.81 467.71 1011.33 468.56 1000.23 469.383C974.625 471.276 950.435 473.068 926.435 480.699C905.413 487.061 887.971 503.942 874.596 530.866C861.87 556.478 853.448 590.748 850.239 629.964C848.178 655.139 848.239 682.09 850.422 710.065C851.352 722.52 852.045 733.81 852.715 744.729C854.7 777.013 856.41 804.895 863.16 842.972C871.112 887.164 880.283 934.609 893.43 982.199C907.928 1038.7 928.288 1105.57 969.324 1172.99C1011.67 1247.77 1056.3 1303.62 1098.38 1334.49C1142.16 1366.76 1191.08 1372.01 1236.13 1349.25C1243.99 1345.44 1251.98 1340.93 1259.87 1335.85C1294.03 1314.14 1328.65 1278.91 1362.76 1231.18C1395.8 1187.13 1423.25 1147.17 1446.69 1109.03C1455.87 1095.58 1463.76 1082.67 1470.78 1069.61C1496.88 1019.03 1511.16 969.481 1515.72 913.671Z" fill="#A8C4E0" fill-opacity="0.5"/>
<path d="M865.001 633.406C871.506 553.918 898.197 499.413 936.397 487.6C961.357 479.445 984.941 478.037 1012.25 476.406C1021.58 475.85 1031.23 475.276 1041.38 474.391C1049.64 473.404 1058.15 472.066 1067.41 470.313C1097.38 464.632 1130.08 454.384 1170.32 438.082C1213.22 421.232 1258.45 405.436 1298.65 413.201C1337.8 420.758 1375.48 448.907 1410.65 496.878C1457.94 560.115 1487.16 634.613 1495.13 712.316C1503.23 766.035 1503.24 820.12 1502.34 861.244C1502.63 878.875 1502.1 896.133 1500.76 912.589C1496.3 967.044 1482.92 1016.24 1458.69 1067.44C1452.21 1080.45 1444.97 1093.29 1436.55 1106.65C1413.74 1147.62 1388.27 1187.5 1358.66 1228.61C1327.71 1274.04 1293.24 1308.95 1258.98 1329.58C1251.29 1334.28 1243.5 1338.42 1235.81 1341.92C1192.36 1362.59 1145.06 1356.93 1102.63 1325.96C1050.44 1288.12 1005.45 1221 976.905 1171.38C936.353 1106.36 917.692 1042.31 903.563 982.772C891.853 937.531 884.113 893.633 875.913 845.051C870.165 810.389 868.98 785.73 867.605 757.173C866.965 743.849 866.301 730.066 865.122 714.049C862.953 686.041 862.913 658.908 865.001 633.406ZM1501.8 913.059C1503.16 896.535 1503.69 879.21 1503.4 861.564C1504.3 820.391 1504.3 766.186 1496.17 712.348C1488.17 634.299 1458.82 559.424 1411.3 495.885C1375.92 447.631 1337.99 419.308 1298.57 411.706C1258.19 403.902 1212.83 419.729 1169.86 436.612C1129.65 452.907 1096.99 463.137 1067.06 468.814C1057.82 470.564 1049.32 471.897 1041.09 472.884C1030.96 473.766 1021.31 474.342 1011.99 474.897C984.634 476.531 961.008 477.936 935.971 486.124C897.418 498.038 870.49 552.922 863.942 632.935C861.846 658.545 861.886 685.785 864.063 713.901C865.239 729.887 865.9 743.652 866.541 756.966C867.92 785.594 869.109 810.315 874.878 845.098C883.087 893.747 890.839 937.691 902.565 982.998C916.736 1042.7 935.457 1106.96 976.155 1172.21C1004.77 1221.97 1049.91 1289.28 1102.31 1327.29C1145.02 1358.45 1192.61 1364.16 1236.32 1343.37C1244.03 1339.86 1251.85 1335.7 1259.56 1330.99C1293.91 1310.31 1328.46 1275.3 1359.48 1229.77C1389.11 1188.66 1414.61 1148.74 1437.42 1107.75C1445.84 1094.38 1453.1 1081.52 1459.6 1068.47C1483.93 1017.1 1497.33 967.717 1501.8 913.059Z" fill="#A8C4E0" fill-opacity="0.5"/>
<path d="M877.845 635.079C884.259 556.714 909.396 503.171 945.086 491.859C971.085 483.096 995.171 482.059 1023.06 480.86C1030.65 480.532 1038.49 480.192 1046.73 479.686C1054.71 478.901 1062.98 477.812 1072.02 476.36C1101.26 471.651 1133.09 462.856 1172.22 448.681C1213.8 434.178 1257.68 420.733 1296.89 429.299C1334.91 437.576 1371.38 465.075 1405.25 511.027C1452.17 573.276 1479.63 645.792 1484.66 720.74C1490.16 765.687 1489.86 810.5 1487.72 863.974C1487.79 879.863 1487.21 895.517 1485.97 910.551C1481.59 963.998 1469.07 1013.24 1446.54 1065.49C1440.61 1078.53 1433.99 1091.34 1426.32 1104.64C1404.76 1147.8 1381.25 1187.68 1354.42 1226.59C1325.86 1270.74 1292.44 1304.51 1257.73 1324.24C1250.23 1328.57 1242.61 1332.37 1235.07 1335.56C1192.95 1354.33 1146.99 1348.23 1105.62 1318.34C1054.18 1281.48 1010.44 1217.37 982.809 1170.08C944.695 1110.38 926.867 1052.1 911.817 982.959C901.429 939.795 894.779 897.494 887.741 852.707L886.754 846.426C881.777 814.16 881.058 791.859 880.227 766.034C879.747 751.162 879.255 735.788 877.893 716.98C875.726 688.711 875.71 661.158 877.845 635.079ZM1487.02 911.016C1488.27 895.933 1488.86 880.22 1488.79 864.318C1490.93 810.788 1491.22 765.878 1485.71 720.851C1480.65 645.525 1453.05 572.605 1405.89 510.034C1371.81 463.809 1335.12 436.135 1296.84 427.8C1257.44 419.195 1213.45 432.672 1171.76 447.212C1132.68 461.368 1100.89 470.15 1071.69 474.856C1062.67 476.309 1054.41 477.391 1046.46 478.174C1038.24 478.681 1030.39 479.023 1022.81 479.346C994.869 480.551 970.74 481.588 944.654 490.378C908.618 501.801 883.243 555.721 876.787 634.608C874.644 660.79 874.66 688.453 876.832 716.828C878.192 735.585 878.686 750.937 879.162 765.787C879.997 791.684 880.717 814.056 885.713 846.448L886.706 852.74C893.75 897.574 900.407 939.921 910.811 983.14C925.905 1052.51 943.801 1111 982.068 1170.93C1009.77 1218.34 1053.66 1282.65 1105.3 1319.66C1146.94 1349.74 1193.2 1355.9 1235.56 1337.01C1243.12 1333.82 1250.77 1330 1258.29 1325.66C1293.1 1305.87 1326.63 1272 1355.26 1227.74C1382.1 1188.8 1405.65 1148.88 1427.22 1105.7C1434.88 1092.4 1441.52 1079.56 1447.49 1066.48C1470.07 1014.04 1482.63 964.657 1487.02 911.016Z" fill="#A8C4E0" fill-opacity="0.5"/>
<path d="M891.617 637.026C897.909 560.17 921.478 507.865 954.672 497.123C981.673 487.782 1006.18 487.234 1034.56 486.595C1040.47 486.461 1046.59 486.323 1052.98 486.107C1060.69 485.533 1068.7 484.705 1077.51 483.565C1106 479.865 1136.96 472.572 1174.96 460.594C1215.24 448.491 1257.76 437.46 1296 446.859C1332.89 455.88 1368.12 482.701 1400.7 526.572C1447.26 587.743 1472.97 658.154 1475.09 730.188C1479.06 773.527 1477.05 816.174 1474.04 867.42C1473.9 881.353 1473.28 895.153 1472.18 908.511C1467.88 960.968 1456.19 1010.32 1435.37 1063.8C1429.96 1076.83 1423.97 1089.59 1417.07 1102.77C1397.1 1147.62 1375.54 1187.39 1351.18 1224.39C1325.22 1266.71 1291.96 1300.09 1257.49 1318.41C1250.18 1322.37 1242.73 1325.82 1235.35 1328.68C1194.59 1345.49 1149.94 1338.89 1109.63 1310.11C1058.94 1274.26 1016.44 1213.25 989.721 1168.38C951.742 1110.36 934.805 1052.34 921.056 983.069C912.554 944.867 907.143 907.394 901.416 867.718C900.474 861.199 899.526 854.631 898.553 847.992C894.202 817.591 893.893 796.18 893.568 773.52C893.34 757.725 893.106 741.394 891.602 720.369C889.427 691.778 889.431 663.74 891.617 637.026ZM1473.25 908.98C1474.35 895.278 1474.97 881.542 1475.1 867.796C1478.13 816.511 1480.13 773.793 1476.15 730.368C1474.02 657.933 1448.15 587.091 1401.34 525.577C1368.56 481.44 1333.11 454.452 1295.96 445.369C1257.54 435.925 1214.92 446.978 1174.54 459.11C1136.58 471.077 1105.64 478.371 1077.2 482.06C1068.41 483.195 1060.4 484.027 1052.72 484.595C1046.35 484.814 1040.23 484.948 1034.32 485.082C1005.89 485.72 981.334 486.276 954.236 495.643C920.699 506.502 896.894 559.18 890.56 636.555C888.365 663.372 888.359 691.522 890.542 720.214C892.041 741.172 892.277 757.475 892.505 773.236C892.831 795.971 893.141 817.45 897.515 847.991C898.485 854.635 899.435 861.198 900.375 867.717C906.11 907.438 911.524 944.961 920.038 983.213C933.837 1052.72 950.846 1110.97 988.995 1169.24C1015.78 1214.22 1058.42 1275.43 1109.32 1311.44C1149.9 1340.41 1194.83 1347.05 1235.82 1330.14C1243.23 1327.28 1250.7 1323.81 1258.04 1319.84C1292.62 1301.46 1326 1267.97 1352.03 1225.52C1376.43 1188.49 1398 1148.65 1417.98 1103.78C1424.88 1090.6 1430.89 1077.82 1436.32 1064.74C1457.21 1011.1 1468.93 961.608 1473.25 908.98Z" fill="#A8C4E0" fill-opacity="0.5"/>
<path d="M905.398 638.99C911.644 562.703 933.102 513.01 964.271 502.659C992.192 492.727 1015.82 492.742 1045.73 492.76C1050.09 492.766 1054.57 492.766 1059.23 492.742C1066.68 492.377 1074.45 491.795 1083 490.969C1110.7 488.269 1140.8 482.439 1177.71 472.618C1214.94 463.294 1257.78 454.203 1295.08 464.451C1330.85 474.206 1364.85 500.356 1396.13 542.174C1442.29 602.302 1466.26 670.655 1465.45 739.861C1467.68 778.798 1464.53 818.206 1461.19 859.929L1460.29 871.237C1459.99 882.818 1459.38 894.389 1458.44 905.935C1454.21 957.662 1443.3 1007.47 1424.11 1062.7C1419.23 1075.75 1413.87 1088.47 1407.72 1101.54C1389.3 1148.54 1370.28 1187.12 1347.84 1223C1323.93 1264.3 1291.74 1296.45 1257.17 1313.53C1250.05 1317.12 1242.77 1320.23 1235.52 1322.76C1196.14 1337.64 1152.83 1330.6 1113.55 1302.9C1063.62 1268.05 1022.38 1210.09 996.588 1167.61C954.48 1104.8 940.737 1042.45 930.266 983.968C923.3 949.75 918.948 916.168 914.34 880.623C913.036 870.482 911.704 860.345 910.344 850.212C906.52 821.227 906.629 801.389 906.741 780.386C906.832 764.055 906.922 747.167 905.309 724.295C903.147 695.62 903.178 666.122 905.398 638.99ZM1459.5 906.409C1460.44 894.842 1461.05 883.251 1461.35 871.649L1462.25 860.392C1465.59 818.599 1468.75 779.127 1466.51 740.117C1467.33 670.489 1443.21 601.67 1396.76 541.166C1365.3 499.104 1331.09 472.79 1295.08 462.966C1257.59 452.677 1214.64 461.781 1177.32 471.127C1140.44 480.939 1110.37 486.766 1082.71 489.456C1074.18 490.29 1066.42 490.869 1058.99 491.229C1054.5 491.252 1050.01 491.259 1045.52 491.25C1015.54 491.234 991.856 491.217 963.833 501.184C932.317 511.656 910.631 561.708 904.343 638.52C902.113 665.755 902.082 695.365 904.25 724.139C905.858 746.923 905.767 763.775 905.68 780.073C905.563 801.148 905.458 821.054 909.3 850.19C910.659 860.319 911.99 870.453 913.294 880.59C917.908 916.184 922.266 949.806 929.241 984.061C939.753 1042.76 953.555 1105.38 995.87 1168.49C1021.73 1211.07 1063.1 1269.23 1113.25 1304.23C1152.78 1332.1 1196.36 1339.2 1235.98 1324.24C1243.41 1321.62 1250.66 1318.52 1257.69 1314.97C1292.4 1297.82 1324.71 1265.55 1348.7 1224.11C1371.17 1188.18 1390.23 1149.54 1408.66 1102.51C1414.8 1089.43 1420.18 1076.69 1425.08 1063.59C1444.31 1008.22 1455.25 958.285 1459.5 906.409Z" fill="#A8C4E0" fill-opacity="0.5"/>
<path d="M918.325 639.686C924.397 565.531 944.354 517.413 973.079 507.673C1001.82 497.216 1024.45 497.848 1055.76 498.728C1058.71 498.809 1061.73 498.895 1064.84 498.973C1072.05 498.828 1079.58 498.51 1087.88 497.996C1114.8 496.329 1144.07 492.007 1180 484.405C1224.65 475.672 1261.11 471.911 1293.91 481.936C1328.62 492.478 1361.44 517.97 1391.48 557.71C1437.33 616.787 1459.61 683.055 1455.91 749.351C1456.21 765.272 1455.56 782.312 1453.87 803.053C1452.63 818.077 1451.02 833.164 1449.31 849.138C1448.41 857.54 1447.51 866.057 1446.63 874.739C1446.26 883.665 1445.7 892.582 1444.97 901.486C1440.73 953.391 1430.85 1002.6 1412.93 1061.04C1408.58 1074.11 1403.74 1087 1398.43 1099.71C1381.98 1148 1364.84 1186.46 1344.48 1220.77C1322.49 1261.11 1291.32 1291.95 1256.71 1307.63C1249.84 1310.81 1242.77 1313.54 1235.54 1315.79C1197.48 1328.7 1155.43 1321.14 1117.12 1294.52C1067.82 1260.62 1027.77 1205.72 1002.86 1165.64C960.734 1104.42 948.49 1044.69 938.733 983.772C933.026 952.9 929.572 922.586 925.912 890.482C924.471 877.853 922.983 864.783 921.326 851.476C917.95 823.624 918.449 805.111 918.975 785.517C919.421 768.936 919.884 751.8 918.172 727.388C915.975 698.069 916.028 667.748 918.325 639.686ZM1454.92 803.524C1456.63 782.715 1457.27 765.613 1456.97 749.695C1460.7 682.941 1438.27 616.18 1392.1 556.708C1361.89 516.727 1328.86 491.072 1293.92 480.464C1260.96 470.395 1224.41 474.155 1179.65 482.908C1143.75 490.506 1114.51 494.823 1087.62 496.488C1079.33 497.001 1071.81 497.322 1064.62 497.464C1061.6 497.386 1058.58 497.305 1055.56 497.219C1024.17 496.339 1001.49 495.706 972.632 506.205C943.564 516.061 923.382 564.543 917.268 639.215C914.962 667.38 914.91 697.814 917.115 727.231C918.817 751.535 918.358 768.622 917.914 785.152C917.384 804.828 916.884 823.412 920.281 851.43C921.934 864.733 923.423 877.792 924.862 890.416C928.525 922.558 931.985 952.915 937.703 983.836C947.494 1044.99 959.799 1105 1002.15 1166.54C1027.13 1206.72 1067.32 1261.8 1116.82 1295.84C1155.37 1322.64 1197.69 1330.25 1235.97 1317.27C1243.22 1315.01 1250.32 1312.27 1257.21 1309.07C1291.98 1293.33 1323.29 1262.35 1345.37 1221.86C1365.75 1187.48 1382.92 1148.95 1399.4 1100.62C1404.71 1087.89 1409.56 1074.98 1413.92 1061.89C1431.87 1003.32 1441.77 954 1446.03 901.956C1446.76 893.045 1447.31 884.121 1447.69 875.188C1448.55 866.57 1449.46 858.046 1450.36 849.657C1452.07 833.668 1453.69 818.571 1454.92 803.524Z" fill="#A8C4E0" fill-opacity="0.5"/>
<path d="M945.345 639.804C950.989 570.882 967.902 526.416 991.744 517.809C1021.4 506.344 1041.39 508.109 1074.51 511.033L1076.77 511.234C1083.95 511.519 1091.12 511.698 1098.3 511.772C1123.63 512.053 1150.35 510.68 1184.89 507.338C1220.65 504.476 1258.32 503.531 1291.46 515.913C1323.94 527.955 1354.29 552.115 1381.66 587.732C1422.91 639.938 1442.29 697.089 1437.72 753.02C1437.31 757.899 1436.73 762.826 1435.97 767.667C1435.88 768.767 1435.81 769.778 1435.72 770.808C1433.99 791.998 1430.13 813.556 1426.03 836.377C1423.45 850.802 1420.77 865.713 1418.45 881.497C1412.88 948.669 1400.8 1008.51 1389.73 1058.19C1386.5 1071.23 1382.9 1084.18 1379.04 1096.66C1370.7 1131.37 1358.4 1176.44 1337.08 1217.51C1318.97 1255.81 1289.18 1284.96 1255.34 1297.53C1248.78 1300.03 1242.05 1302.07 1235.2 1303.65C1199.46 1312.92 1161.12 1304.69 1124.31 1279.83C1076.46 1247.9 1038.98 1199.09 1015.97 1163.75C973.948 1105.49 964.212 1048.37 956.576 985.095C952.877 959.372 950.904 934.091 948.815 907.327C947.512 890.627 946.163 873.361 944.333 855.34C941.743 829.037 942.988 812.583 944.307 795.162C945.56 778.621 946.858 761.506 945.027 734.53C942.766 703.558 942.878 669.92 945.345 639.804ZM1438.77 753.489C1443.4 697.001 1423.86 639.326 1382.28 586.708C1354.75 550.889 1324.21 526.574 1291.52 514.456C1258.23 502.024 1220.46 502.967 1184.61 505.832C1150.09 509.174 1123.4 510.543 1098.09 510.263C1090.92 510.192 1083.76 510.013 1076.6 509.724L1074.35 509.526C1041.14 506.594 1021.09 504.822 991.288 516.348C967.109 525.073 949.975 569.903 944.289 639.335C941.815 669.55 941.7 703.299 943.969 734.37C945.792 761.19 944.501 778.228 943.252 794.704C941.925 812.215 940.674 828.752 943.282 855.25C945.111 873.246 946.459 890.495 947.759 907.182C949.852 933.981 951.827 959.293 955.532 985.069C963.204 1048.64 972.997 1106.05 1015.28 1164.69C1038.36 1200.12 1075.98 1249.11 1124.03 1281.17C1161.05 1306.17 1199.63 1314.46 1235.58 1305.14C1242.46 1303.56 1249.21 1301.5 1255.8 1298.98C1289.82 1286.36 1319.78 1257.03 1337.99 1218.53C1359.36 1177.37 1371.69 1132.18 1380.04 1097.43C1383.98 1084.7 1387.55 1071.86 1390.74 1058.92C1401.83 1009.16 1413.92 949.247 1419.5 882.03C1421.81 866.329 1424.48 851.43 1427.07 837.016C1431.36 813.051 1435.41 790.469 1437.02 768.19C1437.78 763.313 1438.37 758.409 1438.77 753.489Z" fill="#A8C4E0" fill-opacity="0.5"/>
<path d="M959.492 638.372C962.645 599.866 972.331 533.635 1001.75 522.68C1031.52 510.849 1049.94 513.106 1083.38 517.203C1090.34 517.733 1097.3 518.174 1104.26 518.528C1135.1 520.109 1165.29 519.463 1188.16 518.731C1222.44 518.192 1258.66 519.531 1291.13 532.877C1322.54 545.709 1351.68 569.211 1377.73 602.74C1416.34 651.095 1434.55 703.408 1430.4 754.027C1429.78 761.613 1428.66 769.256 1427.05 776.747C1424.71 795.098 1420.51 813.665 1416.07 833.324C1412.38 849.582 1408.58 866.395 1405.42 884.732C1399.46 940.268 1390.62 993.558 1379.18 1056.5C1376.55 1069.34 1373.62 1082.12 1370.39 1094.83C1363.13 1132.56 1353.18 1176.35 1334.39 1215.47C1317.95 1253.12 1289.24 1280.99 1255.63 1291.97C1249.21 1294.13 1242.64 1295.83 1235.98 1297.06C1201.68 1304.41 1164.62 1295.72 1128.77 1271.91C1081.57 1240.96 1045.36 1195.19 1023.29 1162.24C981.232 1105.3 972.824 1050.71 966.203 985.257C963.304 961.597 961.936 938.355 960.488 913.742C959.419 895.542 958.312 876.724 956.518 856.843C954.754 836.723 955.42 823.035 956.3 812.298C956.669 807.779 957.106 803.518 957.57 798.997C958.031 794.531 958.509 789.897 958.907 785.048C959.771 774.482 960.577 759.553 959.114 737.737C956.77 705.239 956.906 669.95 959.492 638.372ZM1431.46 754.498C1435.65 703.318 1417.28 650.49 1378.35 601.705C1352.51 568.46 1322.37 544.161 1291.22 531.432C1258.61 518.031 1222.3 516.685 1187.92 517.224C1165.07 517.958 1134.9 518.601 1104.08 517.019C1097.16 516.672 1090.25 516.235 1083.34 515.709C1049.7 511.586 1031.21 509.323 1001.29 521.218C971.409 532.342 961.615 599.099 958.437 637.903C955.843 669.581 955.707 704.978 958.057 737.577C959.513 759.253 958.714 774.078 957.853 784.58C957.458 789.412 956.978 794.024 956.518 798.493C956.075 802.815 955.614 807.289 955.242 811.828C954.356 822.651 953.688 836.439 955.466 856.724C957.26 876.571 958.366 895.378 959.433 913.566C960.88 938.201 962.248 961.482 965.157 985.186C971.807 1050.96 980.272 1105.86 1022.62 1163.2C1044.75 1196.23 1081.11 1242.18 1128.5 1273.27C1164.56 1297.21 1201.85 1305.96 1236.34 1298.56C1243.02 1297.32 1249.61 1295.61 1256.06 1293.44C1289.89 1282.4 1318.77 1254.34 1335.31 1216.46C1354.17 1177.23 1364.14 1133.32 1371.41 1095.53C1374.54 1083.3 1377.5 1070.38 1380.2 1057.16C1391.66 994.158 1400.5 940.833 1406.46 885.306C1409.61 867.069 1413.41 850.279 1417.08 834.04C1421.54 814.338 1425.76 795.728 1428.09 777.368C1429.7 769.825 1430.83 762.185 1431.46 754.498Z" fill="#A8C4E0" fill-opacity="0.5"/>
<path d="M972.76 636.105C977.883 573.561 991.447 534.978 1010.95 527.461C1040.58 515.341 1057.94 518.097 1089.44 523.096C1096.12 523.861 1102.81 524.555 1109.5 525.179C1137.68 527.826 1165.21 529.066 1190.77 530.009C1221.99 531.655 1258.25 535.29 1290.24 549.74C1320.2 563.191 1348.93 586.691 1373.32 617.708C1410.07 663.268 1426.76 709.984 1422.94 756.571C1422.12 766.52 1420.36 776.37 1417.69 785.988C1414.83 801.017 1410.55 816.2 1406.02 832.274C1401.09 849.755 1395.99 867.833 1391.92 888.244C1387.53 920.671 1382.91 952.592 1378.01 986.39C1374.77 1008.78 1371.42 1031.94 1368.13 1055.29C1365.97 1068.69 1363.64 1081.55 1361.23 1093.53C1355.33 1134.09 1347.61 1176.72 1331.16 1214.09C1316.33 1251.2 1288.67 1277.82 1255.3 1287.17C1249.02 1288.99 1242.62 1290.35 1236.14 1291.24C1203.3 1296.7 1167.46 1287.54 1132.52 1264.76C1085.9 1234.71 1050.93 1191.96 1029.81 1161.37C987.653 1105.66 980.492 1053.48 974.975 985.859C972.77 964.007 971.943 942.524 971.068 919.787C970.317 900.316 969.543 880.179 967.841 858.634C966.819 845.318 966.793 833.652 967.753 821.935C968.306 815.183 969.101 809.162 969.944 802.794C970.789 796.425 971.661 789.829 972.267 782.432C973.329 769.468 973.356 756.337 972.344 741.112C969.929 707.089 970.08 668.818 972.76 636.105ZM1424 757.043C1427.87 709.879 1411.02 662.652 1373.92 616.674C1349.39 585.48 1320.49 561.839 1290.36 548.31C1258.23 533.796 1221.89 530.153 1190.58 528.499C1165.03 527.558 1137.52 526.319 1109.35 523.676C1102.67 523.051 1096 522.358 1089.33 521.598C1057.71 516.576 1040.28 513.81 1010.48 526.002C990.644 533.641 976.869 572.58 971.704 635.634C969.017 668.442 968.865 706.828 971.289 740.951C972.288 756.063 972.268 769.096 971.214 781.964C970.612 789.309 969.741 795.881 968.9 802.234C968.054 808.624 967.253 814.666 966.696 821.464C965.727 833.292 965.756 845.056 966.787 858.49C968.483 879.993 969.259 900.108 970.008 919.552C970.884 942.332 971.713 963.845 973.919 985.745C979.468 1053.73 986.676 1106.2 1029.15 1162.34C1050.34 1193.01 1085.44 1235.94 1132.25 1266.1C1167.4 1289.02 1203.43 1298.23 1236.46 1292.74C1242.97 1291.84 1249.4 1290.48 1255.71 1288.67C1289.32 1279.24 1317.16 1252.42 1332.11 1215.06C1348.61 1177.54 1356.36 1134.79 1362.27 1094.17C1364.68 1082.21 1367 1069.32 1369.17 1055.88C1372.45 1032.51 1375.81 1009.36 1379.05 986.977C1383.95 953.17 1388.58 921.248 1392.96 888.861C1397.01 868.567 1402.1 850.522 1407.02 833.064C1411.56 816.955 1415.85 801.742 1418.7 786.71C1421.4 777.01 1423.18 767.077 1424 757.043Z" fill="#A8C4E0" fill-opacity="0.5"/>
</g>
</g>
<defs>
<clipPath id="clip0_141_8406">
<rect width="1702" height="1183" fill="white" transform="matrix(0.5 0.866025 0.866025 -0.5 0 591.5)"/>
</clipPath>
</defs>
</svg>
