<svg width="44" height="44" viewBox="0 0 44 44" fill="none" xmlns="http://www.w3.org/2000/svg">
<path d="M43.8927 21.9543C43.8927 33.0422 35.676 42.2089 25.002 43.6964C24.0039 43.8348 22.9828 43.9071 21.9463 43.9071C20.7499 43.9071 19.575 43.8118 18.4309 43.6272C7.98132 41.9443 0 32.8807 0 21.9543C0 9.8296 9.82671 0 21.9479 0C34.069 0 43.8957 9.8296 43.8957 21.9543H43.8927Z" fill="#F58220"/>
<path d="M25.002 17.6287V22.4112H30.9165L29.98 28.8535H25.002V43.6964C24.004 43.8348 22.9829 43.9071 21.9464 43.9071C20.75 43.9071 19.5751 43.8118 18.4309 43.6272V28.8535H12.9762V22.4112H18.4309V16.5596C18.4309 12.9293 21.3728 9.98499 25.0036 9.98499V9.98806C25.0144 9.98806 25.0236 9.98499 25.0343 9.98499H30.9181V15.5566H27.0735C25.9309 15.5566 25.0036 16.4842 25.0036 17.6272L25.002 17.6287Z" fill="white"/>
</svg>
