<svg width="44" height="44" viewBox="0 0 44 44" fill="none" xmlns="http://www.w3.org/2000/svg">
<path d="M21.9969 0H21.897C9.80352 0 -0.000152588 9.80656 -0.000152588 21.9036V22.0036C-0.000152588 34.1006 9.80352 43.9071 21.897 43.9071H21.9969C34.0904 43.9071 43.894 34.1006 43.894 22.0036V21.9036C43.894 9.80656 34.0904 0 21.9969 0Z" fill="#F58220"/>
<path d="M28.7387 8.9328H15.1566C11.4043 8.9328 8.35172 11.9863 8.35172 15.7397V28.169C8.35172 31.9224 11.4043 34.9759 15.1566 34.9759H28.7387C32.491 34.9759 35.5436 31.9224 35.5436 28.169V15.7397C35.5436 11.9863 32.491 8.9328 28.7387 8.9328ZM10.7523 15.7397C10.7523 13.3107 12.7284 11.3341 15.1566 11.3341H28.7387C31.1669 11.3341 33.143 13.3107 33.143 15.7397V28.169C33.143 30.5979 31.1669 32.5746 28.7387 32.5746H15.1566C12.7284 32.5746 10.7523 30.5979 10.7523 28.169V15.7397Z" fill="white"/>
<path d="M21.9478 28.2843C25.4372 28.2843 28.2775 25.4447 28.2775 21.9528C28.2775 18.4609 25.4387 15.6212 21.9478 15.6212C18.457 15.6212 15.6181 18.4609 15.6181 21.9528C15.6181 25.4447 18.457 28.2843 21.9478 28.2843ZM21.9478 18.024C24.1146 18.024 25.877 19.7869 25.877 21.9543C25.877 24.1217 24.1146 25.8846 21.9478 25.8846C19.7811 25.8846 18.0187 24.1217 18.0187 21.9543C18.0187 19.7869 19.7811 18.024 21.9478 18.024Z" fill="white"/>
<path d="M28.8629 16.6442C29.8025 16.6442 30.5683 15.8797 30.5683 14.9383C30.5683 13.9968 29.804 13.2323 28.8629 13.2323C27.9217 13.2323 27.1574 13.9968 27.1574 14.9383C27.1574 15.8797 27.9217 16.6442 28.8629 16.6442Z" fill="white"/>
</svg>
