<svg width="44" height="44" viewBox="0 0 44 44" fill="none" xmlns="http://www.w3.org/2000/svg">
<path d="M21.9971 0H21.8971C9.80369 0 -3.8147e-06 9.80656 -3.8147e-06 21.9036V22.0036C-3.8147e-06 34.1006 9.80369 43.9071 21.8971 43.9071H21.9971C34.0905 43.9071 43.8942 34.1006 43.8942 22.0036V21.9036C43.8942 9.80656 34.0905 0 21.9971 0Z" fill="#F58220"/>
<path d="M10.4679 14.5937C9.88966 14.0568 9.6021 13.3923 9.6021 12.6016C9.6021 11.8109 9.89119 11.1172 10.4679 10.5788C11.0461 10.0419 11.7904 9.77271 12.7023 9.77271C13.6143 9.77271 14.3294 10.0419 14.9061 10.5788C15.4843 11.1156 15.7718 11.7909 15.7718 12.6016C15.7718 13.4123 15.4827 14.0568 14.9061 14.5937C14.3278 15.1305 13.5943 15.3997 12.7023 15.3997C11.8104 15.3997 11.0461 15.1305 10.4679 14.5937ZM15.2859 17.6733V34.1329H10.0865V17.6733H15.2859Z" fill="#FEFFFC"/>
<path d="M32.594 19.2992C33.7273 20.5299 34.2933 22.2189 34.2933 24.3694V33.8421H29.3553V25.037C29.3553 23.9525 29.0739 23.1096 28.5126 22.5096C27.9513 21.9097 27.1947 21.6082 26.2474 21.6082C25.3001 21.6082 24.5434 21.9082 23.9821 22.5096C23.4208 23.1096 23.1394 23.9525 23.1394 25.037V33.8421H18.1722V17.6271H23.1394V19.7776C23.6423 19.0608 24.3205 18.4947 25.1724 18.0779C26.0244 17.661 26.9825 17.4533 28.0482 17.4533C29.9458 17.4533 31.4621 18.0686 32.594 19.2977V19.2992Z" fill="#FEFFFC"/>
</svg>
