<svg width="44" height="44" viewBox="0 0 44 44" fill="none" xmlns="http://www.w3.org/2000/svg">
<path d="M21.9971 0H21.8971C9.80365 0 -5.72205e-06 9.80656 -5.72205e-06 21.9036V22.0036C-5.72205e-06 34.1006 9.80365 43.9071 21.8971 43.9071H21.9971C34.0905 43.9071 43.8942 34.1006 43.8942 22.0036V21.9036C43.8942 9.80656 34.0905 0 21.9971 0Z" fill="#F58220"/>
<path d="M8.31378 21.2052C8.3753 21.1744 8.43684 21.1452 8.49681 21.1175C9.53946 20.6345 10.5959 20.1822 11.6509 19.73C11.7078 19.73 11.8031 19.6638 11.8569 19.6423C11.9384 19.6069 12.02 19.5731 12.1015 19.5377C12.2583 19.47 12.4152 19.4039 12.5705 19.3362C12.8842 19.2023 13.1964 19.0685 13.5101 18.9347L15.3878 18.1302C16.6396 17.5948 17.8929 17.058 19.1447 16.5226C20.3965 15.9873 21.6498 15.4505 22.9016 14.9151C24.1534 14.3798 25.4067 13.843 26.6585 13.3076C27.9103 12.7723 29.1637 12.2355 30.4155 11.7001C30.6938 11.5802 30.9952 11.4017 31.2936 11.3494C31.5442 11.3048 31.7887 11.2187 32.0409 11.171C32.5192 11.0802 33.0467 11.0433 33.5049 11.2417C33.6633 11.311 33.8094 11.4079 33.9309 11.5294C34.5122 12.1047 34.4307 13.0492 34.3077 13.8583C33.4511 19.4977 32.5945 25.1386 31.7364 30.7779C31.6196 31.5516 31.4596 32.4008 30.8491 32.8899C30.3324 33.3037 29.5973 33.3499 28.9591 33.1745C28.3209 32.9976 27.7581 32.6269 27.206 32.2623C24.9162 30.7456 22.6248 29.2288 20.335 27.7121C19.7906 27.3521 19.1847 26.8814 19.1909 26.2277C19.1939 25.8339 19.4292 25.4831 19.6691 25.1709C21.6591 22.5742 24.5302 20.7898 26.6662 18.3132C26.9676 17.964 27.2045 17.3333 26.7908 17.1318C26.5447 17.0118 26.2618 17.1749 26.0372 17.3302C23.2138 19.2916 20.3919 21.2544 17.5685 23.2157C16.6473 23.8556 15.6815 24.514 14.5712 24.6709C13.5778 24.8124 12.5782 24.5355 11.6171 24.2525C10.8112 24.0156 10.0069 23.7726 9.20573 23.5218C8.77975 23.3895 8.33993 23.2465 8.01084 22.9465C7.68174 22.6465 7.49261 22.142 7.69099 21.742C7.81556 21.4913 8.057 21.3328 8.31074 21.2036L8.31378 21.2052Z" fill="#FEFFFC"/>
</svg>
