<svg width="44" height="44" viewBox="0 0 44 44" fill="none" xmlns="http://www.w3.org/2000/svg">
<path d="M43.8927 21.9543C43.8927 33.0422 35.676 42.2089 25.002 43.6964C24.0039 43.8348 22.9828 43.9071 21.9463 43.9071C20.7499 43.9071 19.575 43.8118 18.4309 43.6272C7.98133 41.9443 1.52588e-05 32.8807 1.52588e-05 21.9543C1.52588e-05 9.8296 9.82672 0 21.9479 0C34.069 0 43.8957 9.8296 43.8957 21.9543H43.8927Z" fill="#F58220"/>
<path d="M8.90131 9.68347L19.0233 23.2203L8.83826 34.2267H11.1312L20.049 24.5909L27.2537 34.2267H35.0551L24.3642 19.9284L33.8449 9.68347H31.552L23.34 18.5578L16.7042 9.68347H8.90283H8.90131ZM12.2722 11.3725H15.8554L31.6811 32.5377H28.098L12.2722 11.3725Z" fill="white"/>
</svg>
