<svg width="44" height="44" viewBox="0 0 44 44" fill="none" xmlns="http://www.w3.org/2000/svg">
<path d="M43.7698 21.8913C43.7698 9.80105 33.9716 0 21.885 0C9.79834 0 0.000171661 9.80105 0.000171661 21.8913C0.000171661 33.9815 9.79834 43.7825 21.885 43.7825C33.9716 43.7825 43.7698 33.9815 43.7698 21.8913Z" fill="#F58220"/>
<path d="M35.6656 17.3549C35.4934 15.692 35.1228 13.8538 33.7588 12.8877C32.7023 12.1386 31.3136 12.1109 30.0172 12.1124C27.2768 12.1124 24.5349 12.117 21.7945 12.1186C19.1586 12.1217 16.5228 12.1232 13.8869 12.1263C12.7859 12.1263 11.7155 12.0417 10.6929 12.5185C9.81477 12.9277 9.12737 13.7061 8.71369 14.5721C8.14008 15.7766 8.02014 17.1411 7.95093 18.4732C7.82329 20.8991 7.83713 23.3311 7.98938 25.7554C8.10164 27.5244 8.38613 29.4796 9.75326 30.6072C10.9651 31.6055 12.6751 31.6547 14.2468 31.6563C19.2355 31.6609 24.2258 31.6655 29.216 31.6686C29.8557 31.6701 30.5232 31.6578 31.1752 31.587C32.4577 31.4486 33.6803 31.0809 34.5046 30.1303C35.3365 29.1719 35.5503 27.8383 35.6764 26.5753C35.984 23.5111 35.9809 20.4176 35.6656 17.3549ZM18.9095 26.1861V17.5948L26.3464 21.8897L18.9095 26.1861Z" fill="white"/>
</svg>
