<svg width="390" height="750" viewBox="0 0 390 750" fill="none" xmlns="http://www.w3.org/2000/svg">
<g opacity="0.8">
<mask id="mask0_1058_10676" style="mask-type:luminance" maskUnits="userSpaceOnUse" x="-628" y="-255" width="1018" height="1005">
<path d="M-628 160.248L-0.91803 -254.809L389.302 334.749L-237.781 749.805L-628 160.248Z" fill="white"/>
</mask>
<g mask="url(#mask0_1058_10676)">
<g opacity="0.2">
<path d="M-169.842 424.071L-180.857 419.516L-181.438 407.648L-170.996 400.338L-159.981 404.895L-159.405 416.763L-169.842 424.071ZM115.536 224.222L104.516 219.663L103.934 207.797L114.378 200.488L125.396 205.047L125.971 216.916L115.536 224.222ZM128.37 199.263L117.351 194.702L116.771 182.831L127.216 175.52L138.234 180.077L138.809 191.949L128.37 199.263ZM130.62 245.608L119.604 241.049L119.026 229.178L129.466 221.868L140.484 226.426L141.057 238.293L130.62 245.608Z" fill="#00ADEE"/>
<path opacity="0.3" d="M143.462 220.638L132.442 216.086L131.864 204.215L142.306 196.902L153.323 201.459L153.893 213.329L143.462 220.638ZM87.6018 227.809L76.5848 223.251L76.0078 211.379L86.4468 204.072L97.4628 208.63L98.0378 220.493L87.6018 227.809Z" fill="#00ADEE"/>
<path d="M100.443 202.845L89.4266 198.287L88.8496 186.416L99.2906 179.103L110.308 183.66L110.879 195.53L100.443 202.845Z" fill="#00ADEE"/>
<path opacity="0.3" d="M113.279 177.877L102.263 173.319L101.684 161.455L112.125 154.142L123.141 158.7L123.716 170.563L113.279 177.877Z" fill="#00ADEE"/>
<path d="M126.117 152.911L115.1 148.353L114.525 136.482L124.964 129.173L135.981 133.73L136.554 145.597L126.117 152.911ZM46.8383 256.355L35.8212 251.797L35.2402 239.934L45.6832 232.622L56.6982 237.181L57.2762 249.052L46.8383 256.355Z" fill="#00ADEE"/>
<path opacity="0.9" d="M59.6711 231.391L48.6542 226.834L48.0781 214.962L58.5181 207.653L69.5352 212.211L70.1132 224.08L59.6711 231.391ZM111.023 131.535L100.006 126.979L99.4302 115.107L109.87 107.797L120.885 112.355L121.465 124.223L111.023 131.535Z" fill="#00ADEE"/>
<path opacity="0.3" d="M61.925 277.742L50.91 273.183L50.332 261.312L60.773 253.999L71.79 258.557L72.361 270.426L61.925 277.742Z" fill="#00ADEE"/>
<path d="M74.7654 252.769L63.7463 248.218L63.1673 236.349L73.6093 229.036L84.6263 233.593L85.1974 245.463L74.7654 252.769ZM18.9054 259.943L7.88535 255.383L7.30832 243.511L17.7473 236.206L28.7663 240.764L29.3443 252.629L18.9054 259.943ZM31.7463 234.976L20.7253 230.417L20.1473 218.548L30.5893 211.236L41.6093 215.794L42.1833 227.666L31.7463 234.976ZM44.5843 210.009L33.5644 205.45L32.9843 193.585L43.4264 186.273L54.4463 190.831L55.0204 202.702L44.5843 210.009ZM-86.0537 413.321L-97.0677 408.765L-97.6487 396.895L-87.2047 389.585L-76.1906 394.141L-75.6147 406.01L-86.0537 413.321ZM-258.044 342.163L-269.056 337.606L-269.639 325.736L-259.193 318.426L-248.181 322.983L-247.606 334.85L-258.044 342.163ZM-113.985 416.903L-125.002 412.346L-125.579 400.476L-115.14 393.169L-104.123 397.726L-103.548 409.59L-113.985 416.903Z" fill="#00ADEE"/>
<path d="M-129.072 395.524L-140.095 390.967L-140.671 379.095L-130.232 371.785L-119.208 376.346L-118.637 388.211L-129.072 395.524ZM-158.577 402.173L-169.6 397.613L-170.178 385.742L-159.736 378.432L-148.715 382.993L-148.14 394.859L-158.577 402.173ZM66.4272 370.435L55.4123 365.876L54.8323 354.008L65.2733 346.698L76.2883 351.256L76.8613 363.123L66.4272 370.435ZM79.2673 345.471L68.2523 340.912L67.6743 329.041L78.1143 321.733L89.1313 326.29L89.7032 338.155L79.2673 345.471ZM81.5233 391.815L70.5013 387.256L69.9222 375.389L80.3613 368.079L91.3832 372.641L91.9573 384.506L81.5233 391.815ZM94.3633 366.854L83.3412 362.294L82.7632 350.423L93.2032 343.117L104.225 347.677L104.799 359.541L94.3633 366.854Z" fill="#00ADEE"/>
<path opacity="0.3" d="M135.126 338.298L124.114 333.742L123.53 321.874L133.974 314.568L144.993 319.126L145.569 330.993L135.126 338.298ZM122.43 362.994L111.415 358.437L110.832 346.571L121.276 339.262L132.295 343.822L132.872 355.688L122.43 362.994Z" fill="#00ADEE"/>
<path d="M147.97 313.34L136.951 308.782L136.371 296.908L146.816 289.596L157.835 294.157L158.409 306.026L147.97 313.34ZM107.201 341.888L96.1785 337.328L95.6016 325.456L106.041 318.149L117.064 322.71L117.636 334.573L107.201 341.888ZM120.041 316.924L109.024 312.366L108.448 300.494L118.89 293.182L129.906 297.741L130.477 309.609L120.041 316.924ZM132.881 291.955L121.865 287.396L121.283 275.534L131.725 268.222L142.741 272.779L143.316 284.642L132.881 291.955Z" fill="#00ADEE"/>
<path opacity="0.3" d="M77.017 299.126L65.999 294.565L65.418 282.694L75.863 275.383L86.884 279.942L87.457 291.812L77.017 299.126Z" fill="#00ADEE"/>
<path d="M36.2484 327.672L25.2314 323.114L24.6523 311.248L35.0934 303.939L46.1104 308.497L46.6844 320.356L36.2484 327.672Z" fill="#00ADEE"/>
<path opacity="0.5" d="M49.0842 302.708L38.0682 298.15L37.4902 286.279L47.9312 278.97L58.9482 283.528L59.5202 295.393L49.0842 302.708Z" fill="#00ADEE"/>
<path d="M64.1802 324.089L53.1622 319.53L52.5781 307.663L63.0231 300.352L74.0422 304.912L74.6161 316.781L64.1802 324.089ZM141.208 174.302L130.188 169.742L129.606 157.874L140.052 150.564L151.07 155.123L151.644 166.992L141.208 174.302Z" fill="#00ADEE"/>
<path opacity="0.3" d="M21.1595 306.288L10.1405 301.737L9.5625 289.866L20.0045 282.553L31.0215 287.111L31.5975 298.983L21.1595 306.288Z" fill="#00ADEE"/>
<path opacity="0.2" d="M33.9948 281.325L22.9778 276.767L22.4028 264.896L32.8417 257.589L43.8568 262.147L44.4377 274.013L33.9948 281.325ZM92.1047 320.5L81.0878 315.942L80.5107 304.07L90.9507 296.764L101.967 301.323L102.547 313.188L92.1047 320.5ZM0.519775 449.135L-10.4973 444.577L-11.0742 432.705L-0.63623 425.398L10.3807 429.956L10.9608 441.821L0.519775 449.135ZM53.5848 395.4L42.5687 390.843L41.9927 378.971L52.4297 371.665L63.4468 376.222L64.0278 388.088L53.5848 395.4ZM89.8588 274.157L78.8417 269.599L78.2648 257.727L88.7048 250.421L99.7197 254.978L100.3 266.843L89.8588 274.157Z" fill="#00ADEE"/>
<path opacity="0.2" d="M51.3353 349.053L40.3232 344.497L39.7402 332.625L50.1843 325.318L61.2032 329.878L61.7792 341.743L51.3353 349.053Z" fill="#00ADEE"/>
<path d="M10.5735 377.604L-0.443481 373.046L-1.02148 361.178L9.41949 353.867L20.4345 358.425L21.0075 370.292L10.5735 377.604Z" fill="#00ADEE"/>
<path opacity="0.3" d="M23.4104 352.641L12.3944 348.082L11.8164 336.211L22.2574 328.9L33.2734 333.459L33.8464 345.325L23.4104 352.641Z" fill="#00ADEE"/>
<path d="M25.6566 398.982L14.6436 394.427L14.0605 382.558L24.5046 375.249L35.5176 379.805L36.0995 391.673L25.6566 398.982ZM38.4955 374.017L27.4825 369.459L26.9006 357.591L37.3445 350.282L48.3575 354.839L48.9385 366.709L38.4955 374.017Z" fill="#00ADEE"/>
<path d="M-4.51532 356.22L-15.5323 351.663L-16.1113 339.796L-5.67035 332.485L5.34668 337.043L5.92365 348.913L-4.51532 356.22ZM8.31964 331.255L-2.69733 326.698L-3.27435 314.827L7.1637 307.522L18.1797 312.081L18.7607 323.944L8.31964 331.255Z" fill="#00ADEE"/>
<path opacity="0.3" d="M57.4222 185.046L46.4022 180.487L45.8262 168.615L56.2682 161.303L67.2862 165.862L67.8612 177.731L57.4222 185.046ZM95.9322 110.151L84.9142 105.59L84.3362 93.7192L94.7782 86.4072L105.799 90.9672L106.372 102.837L95.9322 110.151Z" fill="#00ADEE"/>
<path d="M70.2592 160.078L59.2402 155.52L58.6602 143.655L69.1022 136.343L80.1212 140.901L80.6942 152.771L70.2592 160.078Z" fill="#00ADEE"/>
<path opacity="0.2" d="M72.514 206.423L61.496 201.87L60.918 189.999L71.358 182.69L82.375 187.248L82.954 199.116L72.514 206.423Z" fill="#00ADEE"/>
<path d="M85.3495 181.462L74.3325 176.904L73.7555 165.032L84.1985 157.72L95.2135 162.279L95.7915 174.15L85.3495 181.462ZM29.4895 188.629L18.4755 184.073L17.8965 172.199L28.3395 164.893L39.3535 169.448L39.9285 181.315L29.4895 188.629Z" fill="#00ADEE"/>
<path opacity="0.5" d="M52.9152 92.3478L41.9012 87.7918L41.3223 75.9178L51.7642 68.6118L62.7772 73.1698L63.3542 85.0338L52.9152 92.3478Z" fill="#00ADEE"/>
<path d="M55.1683 138.696L44.1543 134.14L43.5723 122.27L54.0153 114.961L65.0293 119.517L65.6053 131.386L55.1683 138.696Z" fill="#00ADEE"/>
<path opacity="0.2" d="M68.0081 113.729L56.9941 109.173L56.4102 97.3061L66.8552 89.9951L77.8691 94.5511L78.4471 106.416L68.0081 113.729Z" fill="#00ADEE"/>
<path d="M27.2397 142.284L16.2167 137.724L15.6387 125.856L26.0817 118.544L37.1037 123.103L37.6737 134.972L27.2397 142.284ZM40.0807 117.315L29.0587 112.754L28.4817 100.883L38.9187 93.5801L49.9417 98.1401L50.5167 110L40.0807 117.315ZM83.0987 135.113L72.0747 130.552L71.4987 118.68L81.9367 111.377L92.9577 115.938L93.5347 127.798L83.0987 135.113Z" fill="#00ADEE"/>
<path d="M-56.3903 152.72L-67.4113 148.161L-67.9843 136.291L-57.5443 128.977L-46.5262 133.536L-45.9542 145.405L-56.3903 152.72ZM-58.6412 106.37L-69.6613 101.812L-70.2363 89.9422L-59.7972 82.6302L-48.7792 87.1912L-48.2032 99.0582L-58.6412 106.37ZM-71.4792 131.334L-82.4993 126.775L-83.0742 114.908L-72.6382 107.6L-61.6152 112.154L-61.0402 124.023L-71.4792 131.334ZM-2.94525 99.5142L-13.9592 94.9582L-14.5413 83.0902L-4.09924 75.7822L6.91473 80.3372L7.49677 92.2082L-2.94525 99.5142ZM-15.7842 124.483L-26.7972 119.927L-27.3793 108.056L-16.9343 100.745L-5.92126 105.303L-5.34125 117.174L-15.7842 124.483Z" fill="#00ADEE"/>
<path opacity="0.3" d="M37.8254 70.9679L26.8104 66.4109L26.2324 54.5399L36.6714 47.2319L47.6915 51.7839L48.2625 63.6539L37.8254 70.9679Z" fill="#00ADEE"/>
<path d="M24.9856 95.9378L13.9686 91.3808L13.3926 79.5088L23.8346 72.1958L34.8495 76.7538L35.4216 88.6228L24.9856 95.9378Z" fill="#00ADEE"/>
<path opacity="0.2" d="M9.89587 74.553L-1.12213 69.992L-1.70312 58.123L8.74188 50.812L19.7599 55.372L20.3349 67.241L9.89587 74.553Z" fill="#00ADEE"/>
<path d="M65.7553 67.384L54.7323 62.824L54.1523 50.959L64.5933 43.646L75.6173 48.207L76.1893 60.07L65.7553 67.384Z" fill="#00ADEE"/>
<path opacity="0.3" d="M12.1487 120.899L1.13367 116.341L0.554688 104.472L10.9917 97.168L22.0097 101.721L22.5847 113.586L12.1487 120.899Z" fill="#00ADEE"/>
<path d="M-0.690063 145.871L-11.7061 141.313L-12.2831 129.442L-1.8421 122.129L9.17493 126.686L9.74591 138.556L-0.690063 145.871ZM-86.7381 110.271L-97.7521 105.713L-98.3301 93.8418L-87.8891 86.5288L-76.8721 91.0868L-76.3011 102.957L-86.7381 110.271Z" fill="#00ADEE"/>
<path d="M-21.1873 591.543L-32.2042 586.986L-32.7812 575.116L-22.3403 567.805L-11.3253 572.364L-10.7512 584.228L-21.1873 591.543ZM-8.34924 566.575L-19.3652 562.019L-19.9442 550.151L-9.50323 542.842L1.51373 547.4L2.09277 559.266L-8.34924 566.575Z" fill="#00ADEE"/>
<path opacity="0.2" d="M4.49054 541.611L-6.52551 537.053L-7.10352 525.184L3.33752 517.873L14.3525 522.432L14.9325 534.3L4.49054 541.611Z" fill="#00ADEE"/>
<path d="M6.74109 587.959L-4.27094 583.402L-4.85193 571.532L5.59204 564.223L16.6041 568.779L17.1801 580.648L6.74109 587.959ZM19.5811 562.992L8.56903 558.436L7.98706 546.568L18.4301 539.257L29.4421 543.814L30.0201 555.681L19.5811 562.992ZM-36.2759 570.161L-47.2979 565.602L-47.877 553.733L-37.434 546.421L-26.413 550.982L-25.8419 562.85L-36.2759 570.161Z" fill="#00ADEE"/>
<path d="M2.23901 495.264L-8.78296 490.706L-9.362 478.836L1.08099 471.524L12.1021 476.084L12.674 487.953L2.23901 495.264ZM-38.532 523.812L-49.545 519.256L-50.127 507.388L-39.683 500.077L-28.669 504.633L-28.0959 516.503L-38.532 523.812ZM-20.2859 31.785L-31.305 27.227L-31.879 15.355L-21.44 8.04199L-10.421 12.602L-9.84698 24.471L-20.2859 31.785Z" fill="#00ADEE"/>
<path d="M93.682 63.799L82.668 59.2459L82.084 47.3759L92.529 40.0649L103.543 44.6209L104.117 56.4919L93.682 63.799Z" fill="#00ADEE"/>
<path opacity="0.2" d="M50.6643 46.0041L39.6483 41.4471L39.0703 29.5791L49.5113 22.2661L60.5273 26.8241L61.0993 38.6931L50.6643 46.0041Z" fill="#00ADEE"/>
<path d="M-207.462 -60.7859L-218.482 -65.3439L-219.057 -77.2109L-208.618 -84.5249L-197.6 -79.9659L-197.025 -68.0959L-207.462 -60.7859ZM42.3323 163.664L31.3124 159.105L30.7333 147.233L41.1774 139.922L52.1964 144.48L52.7723 156.351L42.3323 163.664ZM153.514 149.011L142.496 144.451L141.916 132.58L152.36 125.268L163.381 129.827L163.954 141.698L153.514 149.011ZM222.747 117.196L211.731 112.64L211.155 100.768L221.596 93.4551L232.612 98.0141L233.184 109.883L222.747 117.196ZM194.818 120.782L183.796 116.221L183.219 104.35L193.661 97.0391L204.684 101.598L205.254 113.468L194.818 120.782ZM166.885 124.365L155.867 119.806L155.286 107.933L165.732 100.623L176.751 105.181L177.324 117.051L166.885 124.365ZM80.8474 88.7661L69.8284 84.2081L69.2484 72.3351L79.6943 65.0251L90.7123 69.5841L91.2864 81.4531L80.8474 88.7661ZM179.725 99.3981L168.713 94.8421L168.133 82.9701L178.575 75.6641L189.587 80.2211L190.164 92.0851L179.725 99.3981Z" fill="#00ADEE"/>
<path opacity="0.3" d="M123.868 106.567L112.847 102.007L112.269 90.1362L122.712 82.8242L133.735 87.3832L134.304 99.2522L123.868 106.567ZM98.1927 156.501L87.1708 151.94L86.5938 140.069L97.0358 132.757L108.059 137.317L108.629 149.185L98.1927 156.501Z" fill="#00ADEE"/>
<path d="M136.709 81.6008L125.686 77.0408L125.107 65.1748L135.549 57.8618L146.571 62.4238L147.142 74.2908L136.709 81.6008Z" fill="#00ADEE"/>
<path opacity="0.2" d="M151.792 102.981L140.777 98.4222L140.199 86.5512L150.642 79.2402L161.659 83.7972L162.229 95.6672L151.792 102.981Z" fill="#00ADEE"/>
<path d="M108.772 85.1822L97.7594 80.6262L97.1824 68.7542L107.621 61.4492L118.634 66.0042L119.211 77.8682L108.772 85.1822ZM-408.374 431.359L-419.39 426.801L-419.966 414.932L-409.528 407.624L-398.512 412.18L-397.936 424.048L-408.374 431.359ZM-423.468 409.976L-434.483 405.419L-435.059 393.551L-424.62 386.24L-413.605 390.798L-413.029 402.667L-423.468 409.976Z" fill="#00ADEE"/>
<path d="M-365.353 449.156L-376.367 444.599L-376.945 432.732L-366.506 425.42L-355.492 429.978L-354.913 441.846L-365.353 449.156ZM58.0977 488.096L47.0847 483.538L46.5037 471.669L56.9467 464.361L67.9587 468.917L68.5367 480.785L58.0977 488.096Z" fill="#00ADEE"/>
<path opacity="0.5" d="M70.9338 463.129L59.9208 458.574L59.3398 446.702L69.7828 439.394L80.7958 443.951L81.3718 455.817L70.9338 463.129Z" fill="#00ADEE"/>
<path d="M30.1729 491.681L19.1519 487.12L18.5739 475.252L29.0148 467.941L40.0369 472.503L40.6088 484.369L30.1729 491.681ZM43.0089 466.717L31.9879 462.156L31.4099 450.285L41.8508 442.977L52.8718 447.537L53.4459 459.403L43.0089 466.717ZM55.8499 441.75L44.8279 437.191L44.2488 425.322L54.6918 418.01L65.7128 422.571L66.2849 434.44L55.8499 441.75ZM68.6849 416.782L57.6628 412.222L57.0848 400.354L67.5259 393.044L78.5479 397.605L79.1199 409.471L68.6849 416.782ZM-415.215 292.481L-426.231 287.922L-426.809 276.054L-416.37 268.744L-405.353 273.301L-404.78 285.168L-415.215 292.481ZM-400.119 313.862L-411.142 309.302L-411.721 297.436L-401.281 290.126L-390.259 294.685L-389.686 306.552L-400.119 313.862ZM-455.984 321.028L-466.997 316.472L-467.578 304.603L-457.135 297.295L-446.121 301.851L-445.539 313.719L-455.984 321.028ZM-443.149 296.062L-454.161 291.506L-454.744 279.637L-444.299 272.328L-433.287 276.885L-432.704 288.755L-443.149 296.062ZM-412.958 338.828L-423.981 334.269L-424.559 322.4L-414.118 315.089L-403.097 319.65L-402.523 331.518L-412.958 338.828ZM83.7709 438.164L72.7579 433.608L72.1788 421.736L82.6218 414.428L93.6339 418.984L94.2098 430.85L83.7709 438.164ZM-2.26813 402.565L-13.2822 398.009L-13.8621 386.138L-3.41718 378.829L7.59485 383.385L8.17084 395.254L-2.26813 402.565Z" fill="#00ADEE"/>
<path opacity="0.2" d="M40.7522 420.367L29.7362 415.809L29.1582 403.94L39.5992 396.629L50.6142 401.188L51.1872 413.052L40.7522 420.367Z" fill="#00ADEE"/>
<path d="M-440.808 342.245L-451.825 337.689L-452.4 325.822L-441.963 318.51L-430.946 323.068L-430.369 334.935L-440.808 342.245ZM-357.337 332.122L-368.353 327.563L-368.933 315.696L-358.491 308.386L-347.475 312.945L-346.903 324.81L-357.337 332.122ZM-342.241 353.503L-353.264 348.943L-353.843 337.077L-343.402 329.768L-332.381 334.329L-331.808 346.193L-342.241 353.503ZM-398.109 360.669L-409.121 356.115L-409.704 344.245L-399.26 336.936L-388.247 341.494L-387.665 353.362L-398.109 360.669ZM-385.269 335.705L-396.282 331.148L-396.864 319.28L-386.42 311.969L-375.407 316.527L-374.826 328.396L-385.269 335.705ZM-355.08 378.469L-366.103 373.91L-366.68 362.042L-356.239 354.731L-345.218 359.292L-344.645 371.159L-355.08 378.469ZM-382.932 381.888L-393.95 377.331L-394.526 365.464L-384.087 358.153L-373.071 362.711L-372.493 374.576L-382.932 381.888ZM12.4596 424.663L1.4436 420.104L0.863586 408.237L11.3056 400.927L22.3216 405.486L22.8936 417.351L12.4596 424.663ZM27.5556 446.043L16.5336 441.485L15.9536 429.617L26.3946 422.309L37.4156 426.869L37.9896 438.735L27.5556 446.043ZM-28.3114 453.211L-39.3254 448.655L-39.9084 436.786L-29.4634 429.477L-18.4504 434.035L-17.8684 445.903L-28.3114 453.211ZM-15.4724 428.245L-26.4854 423.689L-27.0674 411.82L-16.6244 404.51L-5.61041 409.068L-5.0304 420.937L-15.4724 428.245ZM14.7166 471.01L3.69458 466.452L3.11664 454.583L13.5576 447.272L24.5786 451.833L25.1516 463.699L14.7166 471.01ZM-13.1354 474.428L-24.1544 469.872L-24.7294 458.005L-14.2904 450.694L-3.27441 455.252L-2.69641 467.118L-13.1354 474.428ZM135.085 338.387L124.069 333.829L123.491 321.96L133.931 314.652L144.948 319.209L145.521 331.076L135.085 338.387ZM150.182 359.769L139.159 355.21L138.579 343.342L149.02 336.033L160.042 340.593L160.615 352.46L150.182 359.769ZM94.3126 366.936L83.2996 362.38L82.7186 350.511L93.1616 343.203L104.175 347.758L104.758 359.627L94.3126 366.936ZM107.152 341.97L96.1386 337.413L95.5566 325.545L106.001 318.236L117.014 322.793L117.596 334.661L107.152 341.97ZM137.343 384.736L126.32 380.176L125.742 368.308L136.183 360.997L147.204 365.557L147.777 377.424L137.343 384.736ZM109.492 388.153L98.4756 383.597L97.8986 371.729L108.337 364.418L119.353 368.976L119.932 380.843L109.492 388.153ZM102.656 249.273L91.6386 244.716L91.0606 232.847L101.502 225.538L112.518 230.096L113.091 241.962L102.656 249.273ZM117.751 270.655L106.729 266.096L106.149 254.229L116.59 246.92L127.612 251.48L128.185 263.346L117.751 270.655ZM61.8846 277.821L50.8696 273.266L50.2876 261.396L60.7316 254.089L71.7456 258.645L72.3276 270.513L61.8846 277.821ZM74.7226 252.856L63.7096 248.3L63.1276 236.432L73.5716 229.123L84.5856 233.678L85.1656 245.547L74.7226 252.856ZM104.914 295.62L93.8896 291.063L93.3116 279.194L103.753 271.884L114.776 276.443L115.347 288.311L104.914 295.62ZM77.0626 299.039L66.0456 294.482L65.4706 282.615L75.9076 275.305L86.9246 279.862L87.5016 291.73L77.0626 299.039ZM-338.184 142.686L-349.2 138.127L-349.778 126.259L-339.338 118.949L-328.321 123.506L-327.749 135.373L-338.184 142.686Z" fill="#00ADEE"/>
<path d="M-378.957 171.233L-389.971 166.677L-390.552 154.808L-380.109 147.5L-369.095 152.055L-368.514 163.924L-378.957 171.233ZM-366.119 146.267L-377.131 141.71L-377.713 129.842L-367.269 122.533L-356.257 127.09L-355.674 138.959L-366.119 146.267ZM-335.928 189.033L-346.951 184.473L-347.529 172.605L-337.088 165.294L-326.067 169.855L-325.493 181.723L-335.928 189.033ZM-363.778 192.45L-374.794 187.894L-375.372 176.026L-364.933 168.715L-353.918 173.274L-353.339 185.14L-363.778 192.45ZM-153.949 -114.117L-164.966 -118.674L-165.544 -130.543L-155.104 -137.854L-144.088 -133.295L-143.515 -121.429L-153.949 -114.117ZM-138.853 -92.736L-149.877 -97.295L-150.456 -109.161L-140.015 -116.472L-128.994 -111.911L-128.42 -100.046L-138.853 -92.736ZM-194.721 -85.57L-205.737 -90.125L-206.317 -101.994L-195.873 -109.303L-184.861 -104.746L-184.279 -92.878L-194.721 -85.57ZM-181.882 -110.534L-192.897 -115.091L-193.479 -126.959L-183.035 -134.269L-172.021 -129.713L-171.439 -117.842L-181.882 -110.534ZM-151.694 -67.769L-162.716 -72.329L-163.296 -84.197L-152.855 -91.508L-141.831 -86.947L-141.26 -75.079L-151.694 -67.769ZM-179.542 -64.353L-190.56 -68.908L-191.135 -80.775L-180.699 -88.086L-169.682 -83.529L-169.104 -71.662L-179.542 -64.353ZM-108.958 -49.424L-119.974 -53.983L-120.554 -65.85L-110.113 -73.161L-99.096 -68.604L-98.523 -56.737L-108.958 -49.424ZM-93.862 -28.043L-104.885 -32.603L-105.464 -44.469L-95.024 -51.779L-84.002 -47.22L-83.429 -35.353L-93.862 -28.043ZM-149.731 -20.877L-160.744 -25.433L-161.327 -37.301L-150.882 -44.61L-139.869 -40.055L-139.288 -28.185L-149.731 -20.877ZM-136.891 -45.842L-147.905 -50.4L-148.487 -62.268L-138.042 -69.577L-127.03 -65.02L-126.449 -53.15L-136.891 -45.842ZM-106.701 -3.077L-117.724 -7.63602L-118.302 -19.505L-107.861 -26.816L-96.839 -22.254L-96.2671 -10.387L-106.701 -3.077ZM-134.552 0.339996L-145.568 -4.216L-146.144 -16.082L-135.707 -23.395L-124.691 -18.836L-124.112 -6.97L-134.552 0.339996ZM-150.287 538.238L-161.302 533.68L-161.882 521.812L-151.441 514.501L-140.425 519.06L-139.853 530.926L-150.287 538.238ZM-135.191 559.619L-146.213 555.059L-146.792 543.193L-136.353 535.883L-125.331 540.443L-124.757 552.309L-135.191 559.619ZM-191.059 566.785L-202.073 562.229L-202.655 550.361L-192.21 543.052L-181.198 547.609L-180.616 559.477L-191.059 566.785ZM-178.22 541.821L-189.233 537.262L-189.816 525.395L-179.371 518.085L-168.358 522.642L-167.777 534.512L-178.22 541.821ZM-148.029 584.585L-159.052 580.025L-159.63 568.157L-149.189 560.846L-138.168 565.407L-137.595 577.275L-148.029 584.585ZM-175.882 588.002L-186.9 583.447L-187.475 571.58L-177.037 564.267L-166.022 568.826L-165.443 580.692L-175.882 588.002ZM209.678 142.175L198.663 137.616L198.084 125.747L208.524 118.438L219.541 122.995L220.114 134.862L209.678 142.175ZM224.774 163.555L213.752 158.996L213.173 147.129L223.612 139.819L234.635 144.379L235.208 156.246L224.774 163.555ZM168.906 170.721L157.892 166.166L157.312 154.296L167.754 146.988L178.768 151.544L179.35 163.412L168.906 170.721ZM181.745 145.757L170.732 141.199L170.15 129.331L180.594 122.022L191.607 126.579L192.19 138.448L181.745 145.757ZM211.935 188.522L200.913 183.962L200.334 172.094L210.775 164.783L221.797 169.343L222.37 181.211L211.935 188.522ZM184.085 191.939L173.069 187.382L172.492 175.516L182.93 168.204L193.946 172.762L194.525 184.629L184.085 191.939ZM187.359 237.996L176.342 233.439L175.763 221.57L186.204 214.262L197.221 218.819L197.793 230.686L187.359 237.996ZM202.454 259.379L191.431 254.82L190.852 242.952L201.292 235.643L212.315 240.203L212.887 252.07L202.454 259.379ZM146.586 266.546L135.572 261.99L134.991 250.121L145.434 242.813L156.448 247.368L157.03 259.236L146.586 266.546ZM159.426 241.579L148.412 237.023L147.83 225.155L158.274 217.846L169.288 222.402L169.868 234.271L159.426 241.579ZM189.617 284.345L178.592 279.786L178.014 267.918L188.455 260.607L199.478 265.166L200.049 277.034L189.617 284.345ZM161.765 287.763L150.749 283.206L150.173 271.338L160.61 264.028L171.627 268.585L172.204 280.453L161.765 287.763ZM-466.489 392.178L-477.505 387.622L-478.082 375.752L-467.641 368.442L-456.626 373L-456.048 384.868L-466.489 392.178Z" fill="#00ADEE"/>
</g>
</g>
</g>
</svg>
