<svg width="382" height="378" viewBox="0 0 382 378" fill="none" xmlns="http://www.w3.org/2000/svg">
<mask id="mask0_99_8122" style="mask-type:luminance" maskUnits="userSpaceOnUse" x="-690" y="-375" width="1072" height="1058">
<path d="M-690 62.1466L-29.6543 -374.799L381.265 245.85L-279.082 682.795L-690 62.1466Z" fill="white"/>
</mask>
<g mask="url(#mask0_99_8122)">
<g opacity="0.2">
<path d="M-207.539 339.883L-219.138 335.087L-219.749 322.594L-208.754 314.898L-197.155 319.695L-196.548 332.189L-207.539 339.883ZM92.978 129.494L81.3724 124.695L80.7596 112.203L91.7575 104.509L103.36 109.308L103.967 121.803L92.978 129.494ZM106.492 103.219L94.8882 98.4176L94.2775 85.9206L105.277 78.224L116.88 83.0213L117.484 95.5194L106.492 103.219ZM108.862 152.008L97.2618 147.209L96.6531 134.712L107.647 127.016L119.248 131.815L119.852 144.307L108.862 152.008Z" fill="#00ADEE" fill-opacity="0.8"/>
<path opacity="0.3" d="M122.385 125.721L110.78 120.929L110.171 108.432L121.167 100.734L132.769 105.531L133.369 118.027L122.385 125.721ZM63.5615 133.271L51.9602 128.472L51.3525 115.974L62.3453 108.282L73.9456 113.08L74.5512 125.569L63.5615 133.271Z" fill="#00ADEE" fill-opacity="0.8"/>
<path d="M77.0825 106.99L65.4821 102.192L64.8745 89.6946L75.8693 81.996L87.4708 86.7933L88.072 99.2893L77.0825 106.99Z" fill="#00ADEE" fill-opacity="0.8"/>
<path opacity="0.3" d="M90.6007 80.7053L79.0003 75.907L78.3906 63.4173L89.3854 55.7186L100.986 60.517L101.591 73.0056L90.6007 80.7053Z" fill="#00ADEE" fill-opacity="0.8"/>
<path d="M104.119 54.4227L92.518 49.6243L91.9126 37.1273L102.905 29.4329L114.507 34.2302L115.11 46.723L104.119 54.4227ZM20.6351 163.322L9.03369 158.524L8.42188 146.035L19.4188 138.337L31.0181 143.137L31.6268 155.634L20.6351 163.322Z" fill="#00ADEE" fill-opacity="0.8"/>
<path opacity="0.9" d="M34.1499 137.041L22.5485 132.244L21.9419 119.746L32.9357 112.052L44.5371 116.85L45.1458 129.345L34.1499 137.041ZM88.2258 31.9194L76.6245 27.1232L76.0179 14.6251L87.0117 6.92957L98.611 11.728L99.2217 24.2218L88.2258 31.9194Z" fill="#00ADEE" fill-opacity="0.8"/>
<path opacity="0.3" d="M36.5234 185.837L24.9241 181.037L24.3154 168.54L35.3103 160.842L46.9117 165.64L47.513 178.135L36.5234 185.837Z" fill="#00ADEE" fill-opacity="0.8"/>
<path d="M50.0436 159.547L38.4401 154.756L37.8304 142.261L48.8263 134.562L60.4277 139.36L61.029 151.856L50.0436 159.547ZM-8.77945 167.099L-20.384 162.299L-20.9917 149.801L-9.9989 142.11L1.60458 146.909L2.21326 159.399L-8.77945 167.099ZM4.74265 140.816L-6.86298 136.016L-7.47165 123.521L3.52429 115.824L15.1288 120.622L15.7333 133.12L4.74265 140.816ZM18.2616 114.532L6.65714 109.732L6.04636 97.2417L17.0423 89.5441L28.6468 94.3425L29.2513 106.84L18.2616 114.532ZM-119.306 328.566L-130.904 323.77L-131.516 311.274L-120.518 303.578L-108.92 308.374L-108.313 320.869L-119.306 328.566ZM-300.419 253.655L-312.015 248.858L-312.629 236.362L-301.629 228.666L-290.033 233.464L-289.428 245.956L-300.419 253.655ZM-148.719 332.337L-160.32 327.539L-160.928 315.043L-149.935 307.351L-138.334 312.148L-137.728 324.638L-148.719 332.337Z" fill="#00ADEE" fill-opacity="0.8"/>
<path d="M-164.605 309.83L-176.213 305.033L-176.819 292.535L-165.827 284.839L-154.218 289.641L-153.617 302.132L-164.605 309.83ZM-195.675 316.83L-207.283 312.029L-207.892 299.532L-196.896 291.837L-185.29 296.638L-184.685 309.13L-195.675 316.83ZM41.2641 283.418L29.6649 278.619L29.0541 266.125L40.0489 258.429L51.6482 263.228L52.2516 275.72L41.2641 283.418ZM54.7852 257.138L43.1859 252.338L42.5773 239.841L53.5711 232.148L65.1725 236.945L65.7748 249.436L54.7852 257.138ZM57.1609 305.926L45.5543 301.126L44.9445 288.633L55.9373 280.938L67.5439 285.74L68.1484 298.231L57.1609 305.926ZM70.682 279.648L59.0753 274.848L58.4667 262.351L69.4605 254.659L81.0672 259.46L81.6716 271.95L70.682 279.648Z" fill="#00ADEE" fill-opacity="0.8"/>
<path opacity="0.3" d="M113.606 249.586L102.01 244.79L101.395 232.296L112.393 224.605L123.997 229.403L124.603 241.896L113.606 249.586ZM100.237 275.585L88.6374 270.787L88.0234 258.296L99.0215 250.601L110.625 255.402L111.233 267.893L100.237 275.585Z" fill="#00ADEE" fill-opacity="0.8"/>
<path d="M127.131 223.312L115.527 218.514L114.916 206.014L125.916 198.316L137.519 203.118L138.123 215.612L127.131 223.312ZM84.1991 253.366L72.5924 248.565L71.9849 236.067L82.9776 228.375L94.5853 233.176L95.1877 245.665L84.1991 253.366ZM97.7202 227.085L86.1188 222.287L85.5123 209.789L96.5081 202.091L108.109 206.891L108.71 219.384L97.7202 227.085ZM111.241 200.799L99.641 196L99.0281 183.512L110.024 175.815L121.624 180.612L122.23 193.101L111.241 200.799Z" fill="#00ADEE" fill-opacity="0.8"/>
<path opacity="0.3" d="M52.4159 208.349L40.8135 203.547L40.2017 191.05L51.2007 183.354L62.8063 188.153L63.4097 200.649L52.4159 208.349Z" fill="#00ADEE" fill-opacity="0.8"/>
<path d="M9.48358 238.4L-2.11778 233.602L-2.72754 221.11L8.26735 213.415L19.8687 218.214L20.4732 230.698L9.48358 238.4Z" fill="#00ADEE" fill-opacity="0.8"/>
<path opacity="0.5" d="M23.0015 212.12L11.4011 207.321L10.7925 194.824L21.7873 187.13L33.3887 191.928L33.991 204.419L23.0015 212.12Z" fill="#00ADEE" fill-opacity="0.8"/>
<path d="M38.8981 234.628L27.2957 229.829L26.6807 217.336L37.6797 209.639L49.2833 214.44L49.8877 226.935L38.8981 234.628ZM120.012 76.9418L108.408 72.1414L107.795 59.6475L118.795 51.952L130.397 56.7514L131.002 69.2463L120.012 76.9418Z" fill="#00ADEE" fill-opacity="0.8"/>
<path opacity="0.3" d="M-6.40504 215.888L-18.0085 211.097L-18.6172 198.6L-7.62127 190.902L3.98009 195.7L4.5867 208.198L-6.40504 215.888Z" fill="#00ADEE" fill-opacity="0.8"/>
<path opacity="0.2" d="M7.11103 189.609L-4.49034 184.811L-5.09585 172.313L5.89685 164.621L17.4962 169.419L18.108 181.911L7.11103 189.609ZM68.3035 230.85L56.7021 226.051L56.0945 213.553L67.0883 205.862L78.6886 210.661L79.2994 223.152L68.3035 230.85ZM-28.1396 366.269L-39.7411 361.47L-40.3486 348.972L-29.357 341.28L-17.7556 346.078L-17.1448 358.569L-28.1396 366.269ZM27.7402 309.7L16.1398 304.902L15.5333 292.404L26.5239 284.713L38.1253 289.51L38.7372 302.002L27.7402 309.7ZM65.9384 182.063L54.3369 177.264L53.7294 164.766L64.7232 157.075L76.3224 161.872L76.9332 174.363L65.9384 182.063Z" fill="#00ADEE" fill-opacity="0.8"/>
<path opacity="0.2" d="M25.3707 260.909L13.7746 256.112L13.1606 243.614L24.1587 235.922L35.7622 240.722L36.3687 253.213L25.3707 260.909Z" fill="#00ADEE" fill-opacity="0.8"/>
<path opacity="0.3" d="M-4.03563 264.686L-15.636 259.886L-16.2446 247.389L-5.24974 239.693L6.35059 244.492L6.95399 256.984L-4.03563 264.686Z" fill="#00ADEE" fill-opacity="0.8"/>
<path d="M-1.67072 313.471L-13.2679 308.675L-13.8818 296.181L-2.8838 288.486L8.71339 293.282L9.32623 305.776L-1.67072 313.471ZM11.8493 287.189L0.252133 282.391L-0.360708 269.897L10.6373 262.202L22.2345 267L22.8463 279.496L11.8493 287.189Z" fill="#00ADEE" fill-opacity="0.8"/>
<path opacity="0.3" d="M31.7805 88.2524L20.1759 83.453L19.5693 70.9549L30.5653 63.2573L42.1677 68.0567L42.7732 80.5516L31.7805 88.2524ZM72.3332 9.40772L60.7308 4.60618L60.1221 -7.89085L71.118 -15.5884L82.7236 -10.788L83.327 1.70801L72.3332 9.40772Z" fill="#00ADEE" fill-opacity="0.8"/>
<path d="M45.2983 61.9677L33.6948 57.1693L33.084 44.6786L44.0799 36.981L55.6834 41.7793L56.2868 54.2753L45.2983 61.9677Z" fill="#00ADEE" fill-opacity="0.8"/>
<path opacity="0.2" d="M47.6721 110.757L36.0696 105.964L35.4609 93.4666L46.4547 85.7722L58.0562 90.5705L58.6659 103.064L47.6721 110.757Z" fill="#00ADEE" fill-opacity="0.8"/>
<path d="M61.1888 84.4794L49.5873 79.681L48.9798 67.183L59.9767 59.4854L71.576 64.2848L72.1847 76.7818L61.1888 84.4794ZM2.36569 92.0244L-9.23259 87.2281L-9.84229 74.7279L1.15466 67.0366L12.7529 71.8318L13.3584 84.3247L2.36569 92.0244Z" fill="#00ADEE" fill-opacity="0.8"/>
<path d="M29.4079 39.4581L17.8097 34.6618L17.1968 22.1658L28.1937 14.4714L39.792 19.2676L40.3985 31.7626L29.4079 39.4581Z" fill="#00ADEE" fill-opacity="0.8"/>
<path opacity="0.2" d="M42.929 13.1744L31.3308 8.37817L30.7158 -4.11466L41.7149 -11.8112L53.3131 -7.01495L53.9218 5.47575L42.929 13.1744Z" fill="#00ADEE" fill-opacity="0.8"/>
<path d="M-0.00235748 43.2353L-11.6101 38.4348L-12.2188 25.9409L-1.22181 18.2434L10.3849 23.0428L10.9851 35.5377L-0.00235748 43.2353ZM13.5198 16.9495L1.91316 12.148L1.30553 -0.349028L12.2962 -8.03717L23.9039 -3.23666L24.5094 9.24877L13.5198 16.9495ZM58.8197 35.6861L47.2109 30.8846L46.6044 18.3865L57.5961 10.6984L69.2017 15.4999L69.8093 27.9854L58.8197 35.6861Z" fill="#00ADEE" fill-opacity="0.8"/>
<path d="M-247.154 -170.544L-258.759 -175.342L-259.364 -187.835L-248.372 -195.535L-236.769 -190.735L-236.164 -178.239L-247.154 -170.544ZM15.8901 65.7428L4.28561 60.9434L3.67587 48.4453L14.6739 40.7487L26.2774 45.5471L26.8839 58.0441L15.8901 65.7428ZM132.97 50.317L121.367 45.5165L120.757 33.0195L131.755 25.3219L143.36 30.1213L143.964 42.6184L132.97 50.317ZM205.875 16.8242L194.275 12.028L193.668 -0.470123L204.663 -8.16881L216.264 -3.36935L216.866 9.12555L205.875 16.8242ZM176.465 20.5993L164.858 15.7978L164.251 3.30078L175.246 -4.39578L186.854 0.403625L187.454 12.8996L176.465 20.5993ZM147.05 24.3713L135.448 19.5719L134.836 7.07274L145.836 -0.622787L157.439 4.1756L158.043 16.6716L147.05 24.3713ZM56.4482 -13.1051L44.8447 -17.9034L44.2339 -30.4026L55.234 -38.0981L66.8365 -33.2986L67.4409 -20.8037L56.4482 -13.1051ZM160.571 -1.91237L148.975 -6.70863L148.364 -19.2067L159.36 -26.898L170.956 -22.1007L171.564 -9.61105L160.571 -1.91237Z" fill="#00ADEE" fill-opacity="0.8"/>
<path opacity="0.3" d="M101.751 5.63469L90.1456 0.834209L89.5369 -11.6628L100.534 -19.3604L112.142 -14.561L112.741 -2.06605L101.751 5.63469ZM74.7143 58.202L63.1076 53.4005L62.5 40.9035L73.4959 33.2059L85.1036 38.0063L85.7039 50.5002L74.7143 58.202Z" fill="#00ADEE" fill-opacity="0.8"/>
<path opacity="0.2" d="M131.156 1.85959L119.557 -2.93983L118.948 -15.4369L129.945 -23.1334L141.547 -18.3361L142.147 -5.84012L131.156 1.85959Z" fill="#00ADEE" fill-opacity="0.8"/>
<path d="M85.8553 -16.8781L74.2582 -21.6743L73.6505 -34.1724L84.6433 -41.8627L96.2405 -37.0675L96.848 -24.5778L85.8553 -16.8781ZM-458.723 347.555L-470.323 342.757L-470.93 330.262L-459.938 322.568L-448.338 327.365L-447.731 339.858L-458.723 347.555ZM-474.617 325.044L-486.217 320.247L-486.823 307.753L-475.831 300.057L-464.231 304.855L-463.625 317.35L-474.617 325.044Z" fill="#00ADEE" fill-opacity="0.8"/>
<path d="M-413.422 366.291L-425.02 361.493L-425.628 349L-414.636 341.303L-403.037 346.101L-402.428 358.595L-413.422 366.291ZM32.4915 407.284L20.8943 402.486L20.2825 389.991L31.2794 382.298L42.8756 387.094L43.4842 399.588L32.4915 407.284Z" fill="#00ADEE" fill-opacity="0.8"/>
<path opacity="0.5" d="M46.0093 381.001L34.4121 376.205L33.8003 363.707L44.7972 356.014L56.3944 360.811L57.001 373.303L46.0093 381.001Z" fill="#00ADEE" fill-opacity="0.8"/>
<path d="M3.08496 411.058L-8.52063 406.257L-9.1293 393.763L1.86554 386.066L13.4722 390.869L14.0745 403.361L3.08496 411.058ZM16.6019 384.778L4.99628 379.976L4.38757 367.479L15.3824 359.786L26.988 364.586L27.5925 377.078L16.6019 384.778ZM30.124 358.494L18.5174 353.695L17.9077 341.2L28.9046 333.502L40.5102 338.304L41.1125 350.799L30.124 358.494ZM43.6399 332.209L32.0332 327.409L31.4245 314.915L42.4194 307.219L54.0261 312.021L54.6284 324.513L43.6399 332.209ZM-465.929 201.353L-477.529 196.554L-478.138 184.06L-467.145 176.364L-455.544 181.162L-454.94 193.655L-465.929 201.353ZM-450.032 223.862L-461.64 219.061L-462.249 206.569L-451.256 198.874L-439.649 203.673L-439.046 216.166L-450.032 223.862ZM-508.86 231.406L-520.458 226.609L-521.069 214.114L-510.072 206.421L-498.474 211.217L-497.861 223.711L-508.86 231.406ZM-495.344 205.123L-506.941 200.327L-507.555 187.832L-496.556 180.137L-484.959 184.935L-484.345 197.431L-495.344 205.123ZM-463.552 250.144L-475.16 245.345L-475.768 232.85L-464.774 225.153L-453.168 229.955L-452.563 242.449L-463.552 250.144ZM59.5261 354.719L47.929 349.923L47.3192 337.425L58.3161 329.731L69.9123 334.527L70.5188 347.019L59.5261 354.719ZM-31.0768 317.243L-42.6751 312.446L-43.2859 299.949L-32.2868 292.255L-20.6907 297.051L-20.0841 309.546L-31.0768 317.243Z" fill="#00ADEE" fill-opacity="0.8"/>
<path opacity="0.2" d="M14.2276 335.983L2.62722 331.185L2.01855 318.69L13.0134 310.994L24.6127 315.793L25.2161 328.283L14.2276 335.983Z" fill="#00ADEE" fill-opacity="0.8"/>
<path d="M-492.879 253.741L-504.48 248.945L-505.086 236.452L-494.095 228.755L-482.494 233.553L-481.886 246.046L-492.879 253.741ZM-404.98 243.085L-416.581 238.285L-417.191 225.792L-406.196 218.097L-394.595 222.896L-393.993 235.387L-404.98 243.085ZM-389.084 265.593L-400.691 260.793L-401.301 248.301L-390.306 240.606L-378.7 245.408L-378.097 257.898L-389.084 265.593ZM-447.915 273.137L-459.511 268.343L-460.125 255.847L-449.127 248.152L-437.53 252.951L-436.917 265.445L-447.915 273.137ZM-434.394 246.857L-445.991 242.059L-446.604 229.565L-435.606 221.869L-424.009 226.667L-423.397 239.162L-434.394 246.857ZM-402.604 291.876L-414.211 287.076L-414.819 274.582L-403.824 266.886L-392.218 271.687L-391.615 284.18L-402.604 291.876ZM-431.933 295.475L-443.535 290.678L-444.142 278.185L-433.149 270.488L-421.549 275.287L-420.94 287.777L-431.933 295.475ZM-15.5673 340.506L-27.1677 335.706L-27.7784 323.214L-16.7825 315.518L-5.18219 320.318L-4.57983 332.808L-15.5673 340.506ZM0.329468 363.013L-11.2772 358.215L-11.888 345.721L-0.893158 338.028L10.7125 342.828L11.317 355.32L0.329468 363.013ZM-58.501 370.559L-70.0992 365.763L-70.7132 353.268L-59.7141 345.574L-48.1169 350.372L-47.5041 362.866L-58.501 370.559ZM-44.981 344.277L-56.5782 339.481L-57.191 326.986L-46.1941 319.29L-34.5959 324.088L-33.9851 336.583L-44.981 344.277ZM-13.1906 389.297L-24.7973 384.499L-25.4059 372.004L-14.4111 364.307L-2.80545 369.109L-2.20206 381.6L-13.1906 389.297ZM-42.52 392.895L-54.1235 388.099L-54.729 375.606L-43.7363 367.91L-32.136 372.708L-31.5273 385.2L-42.52 392.895ZM113.562 249.68L101.962 244.882L101.353 232.387L112.347 224.693L123.949 229.491L124.552 241.983L113.562 249.68ZM129.46 272.19L117.852 267.39L117.242 254.896L128.237 247.202L139.843 252.002L140.447 264.495L129.46 272.19ZM70.6276 279.735L59.0305 274.938L58.4186 262.443L69.4156 254.75L81.0128 259.545L81.6267 272.04L70.6276 279.735ZM84.1476 253.452L72.5505 248.655L71.9376 236.161L82.9356 228.466L94.5328 233.264L95.1456 245.758L84.1476 253.452ZM115.94 298.473L104.332 293.673L103.724 281.179L114.719 273.482L126.324 278.283L126.928 290.776L115.94 298.473ZM86.6118 302.07L75.0114 297.274L74.4038 284.78L85.3955 277.084L96.9958 281.882L97.6056 294.375L86.6118 302.07ZM79.4132 155.866L67.8118 151.069L67.2031 138.574L78.1979 130.88L89.7983 135.678L90.4017 148.17L79.4132 155.866ZM95.3089 178.376L83.7023 173.577L83.0914 161.084L94.0863 153.389L105.693 158.19L106.296 170.682L95.3089 178.376ZM36.4794 185.92L24.8802 181.125L24.2673 168.629L35.2653 160.936L46.8635 165.733L47.4764 178.227L36.4794 185.92ZM49.9984 159.638L38.4012 154.842L37.7884 142.348L48.7864 134.654L60.3846 139.449L60.9954 151.944L49.9984 159.638ZM81.791 204.658L70.1821 199.86L69.5735 187.365L80.5684 179.67L92.1761 184.469L92.7773 196.963L81.791 204.658ZM52.4626 208.257L40.8611 203.46L40.2556 190.967L51.2463 183.271L62.8477 188.069L63.4553 200.562L52.4626 208.257ZM-384.811 43.6585L-396.412 38.8591L-397.02 26.3652L-386.027 18.6697L-374.425 23.467L-373.823 35.9598L-384.811 43.6585Z" fill="#00ADEE" fill-opacity="0.8"/>
<path d="M-427.746 73.711L-439.345 68.9147L-439.956 56.4198L-428.959 48.7264L-417.361 53.5216L-416.749 66.0165L-427.746 73.711ZM-414.227 47.4284L-425.823 42.631L-426.436 30.1372L-415.438 22.4427L-403.842 27.2401L-403.228 39.735L-414.227 47.4284ZM-382.435 92.4497L-394.043 87.6492L-394.651 75.1554L-383.656 67.4588L-372.051 72.2603L-371.446 84.7542L-382.435 92.4497ZM-411.762 96.0469L-423.362 91.2506L-423.971 78.7567L-412.978 71.0602L-401.379 75.8596L-400.769 88.3514L-411.762 96.0469ZM-190.803 -226.687L-202.404 -231.485L-203.013 -243.98L-192.019 -251.676L-180.419 -246.877L-179.815 -234.385L-190.803 -226.687ZM-174.906 -204.179L-186.515 -208.978L-187.124 -221.47L-176.13 -229.167L-164.524 -224.365L-163.92 -211.874L-174.906 -204.179ZM-233.737 -196.635L-245.338 -201.43L-245.949 -213.925L-234.951 -221.619L-223.354 -216.822L-222.742 -204.328L-233.737 -196.635ZM-220.217 -222.915L-231.817 -227.713L-232.43 -240.207L-221.432 -247.902L-209.833 -243.106L-209.22 -230.609L-220.217 -222.915ZM-188.428 -177.895L-200.035 -182.696L-200.646 -195.189L-189.651 -202.886L-178.042 -198.085L-177.441 -185.591L-188.428 -177.895ZM-217.753 -174.299L-229.356 -179.094L-229.961 -191.587L-218.972 -199.284L-207.37 -194.486L-206.762 -181.993L-217.753 -174.299ZM-143.425 -158.583L-155.026 -163.382L-155.636 -175.875L-144.641 -183.571L-133.04 -178.774L-132.437 -166.281L-143.425 -158.583ZM-127.528 -136.074L-139.136 -140.875L-139.746 -153.366L-128.752 -161.062L-117.145 -156.262L-116.542 -143.77L-127.528 -136.074ZM-186.361 -128.53L-197.958 -133.326L-198.572 -145.82L-187.573 -153.515L-175.976 -148.72L-175.364 -136.224L-186.361 -128.53ZM-172.84 -154.812L-184.438 -159.61L-185.051 -172.104L-174.052 -179.798L-162.456 -175.001L-161.844 -162.505L-172.84 -154.812ZM-141.048 -109.791L-152.656 -114.591L-153.265 -127.086L-142.27 -134.782L-130.663 -129.98L-130.061 -117.487L-141.048 -109.791ZM-170.377 -106.194L-181.977 -110.991L-182.584 -123.482L-171.593 -131.181L-159.993 -126.382L-159.383 -113.89L-170.377 -106.194ZM-186.946 460.07L-198.546 455.272L-199.156 442.778L-188.162 435.082L-176.561 439.881L-175.959 452.373L-186.946 460.07ZM-171.05 482.579L-182.656 477.779L-183.266 465.287L-172.273 457.591L-160.667 462.392L-160.062 474.884L-171.05 482.579ZM-229.881 490.123L-241.479 485.327L-242.092 472.833L-231.093 465.138L-219.497 469.936L-218.884 482.43L-229.881 490.123ZM-216.361 463.842L-227.958 459.043L-228.572 446.55L-217.573 438.855L-205.976 443.652L-205.364 456.148L-216.361 463.842ZM-184.569 508.862L-196.176 504.061L-196.785 491.567L-185.79 483.871L-174.185 488.672L-173.581 501.166L-184.569 508.862ZM-213.899 512.459L-225.502 507.664L-226.107 495.171L-215.115 487.472L-203.516 492.272L-202.906 504.763L-213.899 512.459ZM192.113 43.1206L180.514 38.3211L179.904 25.8262L190.898 18.1318L202.499 22.9291L203.103 35.4219L192.113 43.1206ZM208.01 65.6281L196.403 60.8287L195.793 48.3358L206.786 40.6403L218.394 45.4408L218.997 57.9336L208.01 65.6281ZM149.178 73.172L137.58 68.3768L136.969 55.8808L147.965 48.1874L159.563 52.9837L160.176 65.4775L149.178 73.172ZM162.698 46.8915L151.101 42.0931L150.488 29.5992L161.486 21.9048L173.083 26.7021L173.697 39.197L162.698 46.8915ZM194.49 91.9117L182.883 87.1113L182.273 74.6174L193.268 66.9208L204.875 71.7213L205.478 84.2152L194.49 91.9117ZM165.162 95.5089L153.562 90.7116L152.954 78.2198L163.946 70.5223L175.546 75.3206L176.156 87.8134L165.162 95.5089ZM168.61 143.995L157.009 139.198L156.399 126.703L167.394 119.009L178.995 123.807L179.597 136.299L168.61 143.995ZM184.506 166.506L172.898 161.706L172.288 149.212L183.282 141.518L194.89 146.318L195.492 158.811L184.506 166.506ZM125.674 174.05L114.076 169.254L113.464 156.759L124.461 149.066L136.059 153.861L136.672 166.355L125.674 174.05ZM139.195 147.767L127.597 142.971L126.984 130.477L137.982 122.782L149.58 127.578L150.191 140.073L139.195 147.767ZM170.988 192.788L159.378 187.989L158.769 175.495L169.764 167.798L181.372 172.598L181.973 185.092L170.988 192.788ZM141.658 196.386L130.058 191.589L129.451 179.095L140.442 171.4L152.044 176.197L152.651 188.691L141.658 196.386ZM-519.921 306.308L-531.522 301.512L-532.129 289.016L-521.135 281.32L-509.535 286.118L-508.927 298.612L-519.921 306.308Z" fill="#00ADEE" fill-opacity="0.8"/>
</g>
</g>
</svg>
